<?xml version="1.0" encoding="utf-8"?>
<!-- Generator: Adobe Illustrator 26.2.1, SVG Export Plug-In . SVG Version: 6.00 Build 0)  -->
<svg version="1.1"
	 id="Layer_1" shape-rendering="geometricPrecision" text-rendering="geometricPrecision" image-rendering="optimizeQuality"
	 xmlns="http://www.w3.org/2000/svg" xmlns:xlink="http://www.w3.org/1999/xlink" x="0px" y="0px" viewBox="0 0 841.9 340.7"
	 style="enable-background:new 0 0 841.9 340.7;" xml:space="preserve">
<style type="text/css">
	.st0{fill:#EF4635;}
</style>
<g>
	<path class="st0" d="M336.5,291.2c15.5-64.3-2.9-66.5-2.9-97.7c0-10.4,8.2-35.3,9.4-47.4c2.8-27.8-4.1-20.4,16.2-41l1.2-28.6
		c10.2-9.8,15.3-18.6,27.8-15.5c7.6,22.6-6.8,15.5-8.2,41.9c8.5,11.3,14.2,12.4,20.6,26.6c8.1,18,2.3,17.8,17.6,32.9
		c22.5,2.6,36.1,2.7,52.2-13.5c1.7-17.3-8.3-15.8,1.9-31.7c7-10.9,13.9-16.8,27-12.4c4.3,17-15,20.5-9,39.4
		c25.9,2.6,31.9-33.1,51.7-34.9c0,38.1-39.8,43.1-40.7,74.1c-0.6,19.4,16.6,72.8,34,84.2c15.3-23.5,31.8-49.1,33.7-77.5
		C582.3-3.7,325.9-39,277.2,130.7c-2.5,8.7-4,17.5-4.7,26.3v22.5C276.8,235.3,311.2,284.3,336.5,291.2L336.5,291.2z"/>
	<path class="st0" d="M411.5,317.2c69.3,8.2,62-13.2,48.3-92.1c-5.4-31.1-11.7-47.5-48.6-44.6c-23,27.3-11.4,80.5-10.6,103.8
		C401.2,302.7,398.1,303.9,411.5,317.2z M491.2,298.2c11.6-1.4,13.6-3.8,23-11.3c1.5-15.9-9.4-41.5-26.4-46.6
		C479.8,255.7,482.1,283.1,491.2,298.2z M377,311.4c0-19.4,2.4-59.5-7.6-73.3c-13.3,3.9-9.2,15.3-9.3,39.6
		C360,295.5,356.7,309.6,377,311.4z"/>
</g>
</svg>
