<?xml version="1.0" encoding="utf-8"?>
<!-- Generator: Adobe Illustrator 26.2.1, SVG Export Plug-In . SVG Version: 6.00 Build 0)  -->
<svg version="1.1" id="Layer_1" xmlns="http://www.w3.org/2000/svg" xmlns:xlink="http://www.w3.org/1999/xlink" x="0px" y="0px"
	 viewBox="0 0 2500 1042" style="enable-background:new 0 0 2500 1042;" xml:space="preserve">
<style type="text/css">
	.st0{fill-rule:evenodd;clip-rule:evenodd;fill:#006D58;}
	.st1{fill-rule:evenodd;clip-rule:evenodd;fill:#F1A400;}
</style>
<g>
	<path class="st0" d="M1069.4,261.1h-96.5v91.5l-154.2,146l154.2,146.1v90.9h96.5l35.7,33.9l119.1,112.2l118.5-112.2l36.4-33.9h95.9
		v-90.9l36.4-33.9l118.5-112.2l-118.5-112.2l-36.4-33.9v-91.5h-95.9l-36.4-33.9L1224.2,115L1069.4,261.1 M937.1,227.2H1080
		l144.2-136l144.2,136h142.9V362l144.2,136.6l-144.2,136v134.8h-142.9l-144.2,136l-144.2-136H937.1V634.7l-144.2-136L937.1,362
		L937.1,227.2L937.1,227.2z M868.8,498.7l355.5-335.4l354.8,335.4l-354.8,335.4L868.8,498.7z"/>
	<path class="st1" d="M1475,400.3c-39.6,46-93.2,79.4-151.1,97.2c-31.4,9.3-57.7,12.9-90.3,14.4c-26.1-0.4-53.3,3.7-76.5,16.3
		c-41.9,21.6-71.6,62.5-74,110.3c-3.7,97.5,81.7,124.4,141.1,195.6l104.1-98.4L1475,596.5l104.1-97.8L1475,400.3 M972.8,596.5
		c38.8-42.9,88.4-76.4,143.6-94c60.6-24.5,112-8.7,162.4-28.2c41.6-15.5,74.2-52.6,84-95.9c18.9-106.5-72.2-143.7-138.5-215
		l-104.1,97.8L972.8,400.2l-104.1,98.4L972.8,596.5L972.8,596.5z M818.6,498.7l154.2-146.1v-91.5h96.5L1224.2,115l154.8,146.1h95.9
		v91.5l154.8,146.1L1475,644.7v90.9h-95.9l-154.8,146.1l-154.8-146.1h-96.5v-90.9L818.6,498.7L818.6,498.7z"/>
</g>
</svg>
