<svg xmlns="http://www.w3.org/2000/svg" width="148.086" height="111.814" viewBox="0 0 148.086 111.814"><defs><style>.a{fill:#0068b7;}.b,.c,.d{fill:#fff;}.c{font-size:2px;}.c,.d{font-family:ArialMT, Arial;}.d{font-size:1px;}</style></defs><g transform="translate(-776 -171.599)"><g transform="translate(775.999 171.599)"><path class="a" d="M186.185,108.506c0-19.009-16.5-34.432-36.808-34.432a39.784,39.784,0,0,0-6.994.628,1.817,1.817,0,0,1-1.435-.314A56.507,56.507,0,0,0,108.533,64.3c-22.551,0-41.874,12.867-50.079,31.2a1.68,1.68,0,0,1-.717.762c-11.791,6.77-19.637,18.92-19.637,32.773,0,19.278,15.154,35.194,34.925,37.974a1.781,1.781,0,0,1,1.166.628,24.573,24.573,0,0,0,18.74,8.474c11.074,0,20.4-7.039,23.089-16.588a1.73,1.73,0,0,1,2.018-1.211,40.777,40.777,0,0,0,6.232.493A37.431,37.431,0,0,0,155.2,143.027a1.75,1.75,0,0,1,1.166-.762c17.037-3,29.814-16.992,29.814-33.76" transform="translate(-38.099 -64.3)"/><path class="b" d="M93.706,160a4.982,4.982,0,0,0-5.156,4.842V166.5a.482.482,0,0,1-.448.448H81.96a.424.424,0,0,1-.448-.448v-1.659a5.166,5.166,0,0,0-10.312,0v16.364a5.166,5.166,0,0,0,10.312,0v-1.749a.482.482,0,0,1,.448-.448h6.1a.424.424,0,0,1,.448.448v1.749a5.166,5.166,0,0,0,10.312,0V164.842A4.943,4.943,0,0,0,93.706,160" transform="translate(-56.359 -117.093)"/><path class="b" d="M279.338,177.151h0a4.459,4.459,0,0,1-3.632-3.407,4.508,4.508,0,0,1,5.47-5.111,4.459,4.459,0,0,1,3.632,3.407,4.522,4.522,0,0,1-5.47,5.111M289.6,159.8a4.8,4.8,0,0,0-3.318,1.3,14.824,14.824,0,0,0-7.218-1.255c-6.77.493-12.284,5.649-12.822,12.015-.672,8.07,6.5,14.795,15.109,14.122a15.074,15.074,0,0,0,4.932-1.255,4.8,4.8,0,0,0,3.318,1.3,4.514,4.514,0,0,0,4.663-4.349v-17.53A4.573,4.573,0,0,0,289.6,159.8Z" transform="translate(-163.936 -116.983)"/><path class="b" d="M237.508,177.775a1.7,1.7,0,0,1-1.076-1.524V163.607a5.08,5.08,0,0,0-10.132,0v13.136c0,5.111,4.394,9.236,9.863,9.236a4.352,4.352,0,0,0,4.483-4.17,4.264,4.264,0,0,0-3.138-4.035" transform="translate(-141.923 -116.488)"/><path class="b" d="M185.742,178.8a2.111,2.111,0,1,0,2.242,2.107,2.194,2.194,0,0,0-2.242-2.107" transform="translate(-118.312 -127.465)"/><path class="b" d="M169.242,178.8a2.111,2.111,0,1,0,2.242,2.107,2.194,2.194,0,0,0-2.242-2.107" transform="translate(-109.21 -127.465)"/><path class="b" d="M161.323,182.155h0c-6.411,0-11.657-4.887-11.657-10.895s5.2-10.895,11.657-10.895c6.411,0,11.657,4.887,11.657,10.895-.045,6.008-5.245,10.895-11.657,10.895m0-25.376a15.834,15.834,0,0,0-5.963,1.121,11.879,11.879,0,0,1-2.242-1.345,2.807,2.807,0,0,0-3.721.4,2.72,2.72,0,0,0-.538,2.331,14.085,14.085,0,0,0,.9,2.331,13.77,13.77,0,0,0-3.856,9.549c0,7.98,6.949,14.436,15.468,14.436s15.468-6.5,15.468-14.436C176.79,163.236,169.841,156.78,161.323,156.78Z" transform="translate(-97.569 -114.905)"/><text class="c" transform="translate(132.312 43.78)"><tspan x="0" y="0">T</tspan></text><text class="d" transform="translate(136.183 42.78)"><tspan x="0" y="0">M</tspan></text></g></g></svg>