<?xml version="1.0" encoding="utf-8"?>
<!-- Generator: Adobe Illustrator 26.2.1, SVG Export Plug-In . SVG Version: 6.00 Build 0)  -->
<svg version="1.1" id="Layer_1" xmlns="http://www.w3.org/2000/svg" xmlns:xlink="http://www.w3.org/1999/xlink" x="0px" y="0px"
	 viewBox="0 0 2500 2403" style="enable-background:new 0 0 2500 2403;" xml:space="preserve">
<style type="text/css">
	.st0{fill:#FFFFFF;}
	.st1{fill:#00949B;}
</style>
<path class="st0" d="M2258.7,2114.6l144.3-21.3l-143.4-969.2l-0.9-979.6l-144-0.1L2093.3,0l-969.2,143.4l-979.6-0.2l-0.2,145.1
	L0,309.7l143.4,969.2l-0.9,979.7l145.8,0.1l21.4,144.3l969.2-143.4l979.6-0.6L2258.7,2114.6"/>
<path class="st1" d="M2045.7,64.2L64.1,357.3l293.2,1981.5l1981.5-293.2L2045.7,64.2"/>
<path class="st0" d="M2101.4,1021.2c-19.9,73.6-67.2,112.3-78.7,117.2c-11.5,4.9-33.1,12.9-30.7-35.2c2.4-48.1,35-103.9,51-121.6
	c15.9-17.8,27.7-31.7,47.6-33.6C2090.6,948,2121.3,947.7,2101.4,1021.2 M2096.2,907.3c-117,23.8-171.6,131.5-171.6,131.5
	c-31.7,44-52.4,158.4,60.8,145.4c113.2-13,171.6-91.4,195.1-129.7c3.4-5.6,6.5-11.4,9-17.5l-18.2-122.8
	C2154.7,904.1,2130.3,900.4,2096.2,907.3L2096.2,907.3z"/>
<path class="st0" d="M1943.7,894.9c-61.5,4.2-112.7,61.9-136.6,93.8c-0.3,0.3-0.6,0.4-0.9,0.5c-0.6,0.1-1.1-0.2-1.5-0.6
	c-0.1-0.1-0.2-0.3-0.3-0.4c0-0.1-0.1-0.3-0.1-0.4c0,0,0,0,0,0.1c-10-17.1-29.7-37.3-66.5-35.1c-22.9,1.4-49.8,19.2-52,25.3
	c0,0-4.6,7.5,3.8,9c8.4,1.6,51.1,3.6,48.9,48.3c0,0,0.4,64.4-23.9,152.7c0,0-13.9,29.9,18.2,29.2c32.2-0.8,92.6-8.9,94.6-30.3
	c2-21.4,1-17.6,1-17.6s0.4-77.4-7.4-128.1c0-1,0.1-2,0.4-3c30.4-61,80.8-74.3,80.8-74.3c19.4-4.9,32.4,7.8,37.1,12.8
	c4.7,5.1,7.8,3,7.8,3c13.3-4.3,25.2-26.4,25.2-26.4C1978.1,945.9,1998.4,891.1,1943.7,894.9"/>
<path class="st0" d="M1514,1189.6c0,0-6.5-67.6-14.4-142.1c17.1-13,54.9-37.1,71.9-8.4C1593.3,1076,1559.6,1161.3,1514,1189.6
	 M1640.9,973.5c-58.3-20.2-120.9,19.8-143.2,36.1c-0.1,0.1-0.2,0.1-0.3,0.1c-0.9,0.1-1.8-0.5-2-1.4c-7.3-66.3-14.9-129.8-19.3-148.5
	c-10.5-43.8-5.8-98.6-68.2-89.4c-19.2,2.8-62.6,10.1-86.8,25.4c-1.6,1-4.3,4.5,3.4,6.7c0,0,22.7,8.2,34.3,46.5
	c0,0,53.8,152.4,62.8,371.9c1,25.3,12.9,31.1,12.9,31.1c40.2,23.9,123.5-40.4,181.7-102.9C1675.8,1085.3,1713.5,998.6,1640.9,973.5
	L1640.9,973.5z M1670.8,1291c0,0-2.5-8.3-3.9-11.6c-1.6-3.9-5.6-3.2-5.6-3.2c-8.8,1.3-5.9,11.4-5.9,11.4
	c28,117.8,42.9,397.9-187.1,492.5c-230.1,94.5-423.2-34-453.9-54.9c-86-58.7-99.6-107.3-101.3-115c0-0.5,0.4-0.9,0.9-1
	c15.7,1.6,201,18.3,386.1-54.7c193.5-76.4,322.5-230.2,350.4-300.1c0,0,4.8-9.1-1.1-11.7c-5.5-2.3-9.1,4.3-9.1,4.3
	c-2,2.6-4.2,5.3-6.5,8.2c-80.7,103.1-197.6,208-412.7,267.4c-232.8,64.3-417,0.2-417,0.2s-3.3-1.6-5.4-0.7c-2,0.9-1.9,7.2-1.7,9.6
	c0,0,16.6,232.4,337.1,321.1C1438.9,1937.4,1792.6,1768.8,1670.8,1291 M269.4,1160.1c0,0,62.6-32.4,145.1-52.5l1-0.1
	c0.8,5.9,1.6,11.7,2.3,17.2c0.9,7,1.9,14.6,2.9,22.6c-70,18.3-118.5,30.1-145.8,33.9c0,0-25.3,5.7-26.1-3.1
	C248,1170.2,261.7,1164.4,269.4,1160.1 M320.7,1219c24.2-6.6,70.3-19,106.2-27.8c10.9,75.8,24.8,163.8,25.2,165.6
	c0,0,8.1,40.2,17.9,47.1c8.9,6.3,10.6,8.4,46.8,4.6c36.3-3.8,65.1-12,64.6-23.5c0,0,0.3-5-1.2-12.4c0,0-17.8-98.2-34.5-211.9
	c21.9-5.4,42.7-10.6,59.7-14.8c20.2-4.9,38.9-10.5,57.7-14.4c9,62.9,23.7,159.6,23.7,159.6c4.6,29.6,11.2,54.7,11.2,54.7
	s9.4,27.7,31.7,25.7c17.8-1.6,53.5-7.9,65.8-17.9c9.4-7.7-1-19.2-2.4-25.9c0,0-29-83.9-45.6-212.9c82.5-14.8,135.4-20,135.4-20
	s-94.9,97.4-64.1,169.2c30.8,71.9,126.9,50.4,193-33.6c0,0,27.7,81.1,116.2,53.7c0,0,4.2-1.2,4.5-4.3c0.4-3-2.5-6.4-6-8.3
	c0,0-29.7-13.7-32.7-63.4c-3-49.7,16.5-133.4,16.4-136.5c-0.1-3.2,0.9-23.2-24.4-17.1c-25.4,6.1-55.8,25.2-62.5,31.9
	c-6.8,6.8-8.1,12.9-11.5,24.8c0,0-28,92-78.6,137.5c-54.9,49.4-41.7-17.9-25.9-51.6c0,0,30.8-71.6,103.3-128.1
	c0,0,22-15.7,42.6-24.2c6.3-2.6,10.2-11.4-3.9-15.3c0,0-16.6-3.2-41.6-1.9c0,0-97.8,3.8-265.7,38.9c-2.8-29.6-4.6-59.3-5.4-89.1
	c-2.9-104.4,5.3-147.2,5.3-147.2s2.4-14.5-6.5-19.5c0,0-7.5-7.4-29.8-5.1c-35.9,3.7-64.9,16.2-79.6,24.8c0,0-6.7,3.8-4.7,6.9
	c1.7,2.5,5.4,3,9.6,10.7c0,0,6.5,8,9.1,53.6c0,0,16.5,182.1,16.8,184.3c-22,5.3-43.9,10.8-65.8,16.6c-18.1,4.9-35.4,9.4-52.1,13.9
	c-7-50.5-13.1-101.5-16.8-146.1l-7.6-102.7c0,0,1.6-34.9-22.2-34.5c-21.4,0.3-88.8,18.9-132.2,53.4c-13.5,10.8,2.4,13.4,4.6,14.7
	c0,0,13.3,4.2,17.8,23.4c0,0,18.5,90.1,30,164.1l-1.5,0.4c0,0-151.5,40.5-226.2,84.2l10.1,68C221.9,1242.3,262.8,1236.6,320.7,1219
	L320.7,1219z"/>
<path class="st0" d="M1230.5,1177.9c-20.8-3.3-32.9-5.9-61.1-13.2c-28.2-7.4-35.3-26.2-35.3-26.2c-23.8-66.9,62-134.9,62-134.9
	c63.3-53.5,113-64.5,113-64.5c51.4-10.7,62.3,44.5,62.3,44.5s2.3,13.8,1.8,19.2c0,0,0.7,1.9-2,2.3c-34.7,4.8-61.6,15.1-61.6,15.1
	c-83.4,33.9-88.3,73.2-88.3,73.2c-2.8,13.5,0.8,34.5,21,42.6c19.6,7.8,95.7,25.6,95.7,25.6c47.9,11.6,52.2,35.6,52.2,35.6
	c21.4,55.7-48.7,128.2-48.7,128.2c-67.9,74.1-105.4,91.6-152.3,102.9c-46.9,11.3-83.7-45.7-83.7-45.7c-3.7-5.3-15.6-17.8-14.5-26.8
	c1.1-8.9,12.8-5.6,14.2-4.4c3.3,2.7,10.2,5.3,10.2,5.3c36.1,15.2,71.7-9.2,71.7-9.2c53.6-39.3,86.9-88,88.6-90.9
	c1.7-2.9,23.1-36.5,10.7-55.4c-12.3-18.9-58.1-23.3-58.1-23.3"/>
</svg>
