<?xml version="1.0" encoding="UTF-8" standalone="no"?>
<svg
   xmlns:dc="http://purl.org/dc/elements/1.1/"
   xmlns:cc="http://creativecommons.org/ns#"
   xmlns:rdf="http://www.w3.org/1999/02/22-rdf-syntax-ns#"
   xmlns:svg="http://www.w3.org/2000/svg"
   xmlns="http://www.w3.org/2000/svg"
   version="1.1"
   id="svg2"
   viewBox="0 0 249.99998 189.13983"
   height="53.379463mm"
   width="70.55555mm">
  <defs
     id="defs4">
    <clipPath
       clipPathUnits="userSpaceOnUse"
       id="clipPath387611">
      <path
         d="m 54.14,50.204 7.183,1.467 -3.591,6.371 -3.592,-7.838 z"
         id="path387613" />
    </clipPath>
    <clipPath
       clipPathUnits="userSpaceOnUse"
       id="clipPath387627">
      <path
         d="M 0,810 630,810 630,0 0,0 0,810 Z"
         id="path387629" />
    </clipPath>
    <clipPath
       clipPathUnits="userSpaceOnUse"
       id="clipPath387659">
      <path
         d="m 57.794,54.009 0.384,-0.314 c -0.045,0.175 -0.073,0.244 -0.102,0.421 l 0,0 -0.384,0.315 c 0.028,-0.178 0.057,-0.247 0.102,-0.422"
         id="path387661" />
    </clipPath>
    <clipPath
       clipPathUnits="userSpaceOnUse"
       id="clipPath387671">
      <path
         d="M 0,810 630,810 630,0 0,0 0,810 Z"
         id="path387673" />
    </clipPath>
    <clipPath
       clipPathUnits="userSpaceOnUse"
       id="clipPath387691">
      <path
         d="m 40.832,48.234 1.537,-1.256 0,6.877 -1.537,1.256 0,-6.877 z"
         id="path387693" />
    </clipPath>
    <clipPath
       clipPathUnits="userSpaceOnUse"
       id="clipPath387707">
      <path
         d="m 52.115,54.904 c -1.822,-0.373 -3.3,-2.182 -3.3,-4.042 l 0,0 c 0,-1.861 1.478,-3.068 3.3,-2.695 l 0,0 c 1.823,0.372 3.3,2.182 3.3,4.041 l 0,0 c 0,1.633 -1.138,2.763 -2.65,2.763 l 0,0 c -0.21,0 -0.427,-0.022 -0.65,-0.067"
         id="path387709" />
    </clipPath>
    <clipPath
       clipPathUnits="userSpaceOnUse"
       id="clipPath387723">
      <path
         d="M 0,810 630,810 630,0 0,0 0,810 Z"
         id="path387725" />
    </clipPath>
    <clipPath
       clipPathUnits="userSpaceOnUse"
       id="clipPath387739">
      <path
         d="m 42.369,53.855 0,-6.877 6.74,1.375 0,6.877 -6.74,-1.375 z"
         id="path387741" />
    </clipPath>
    <clipPath
       clipPathUnits="userSpaceOnUse"
       id="clipPath387755">
      <path
         d="m 40.832,55.111 1.537,-1.256 6.74,1.375 -1.539,1.256 -6.738,-1.375 z"
         id="path387757" />
    </clipPath>
    <clipPath
       clipPathUnits="userSpaceOnUse"
       id="clipPath387771">
      <path
         d="M 0,810 630,810 630,0 0,0 0,810 Z"
         id="path387773" />
    </clipPath>
    <clipPath
       clipPathUnits="userSpaceOnUse"
       id="clipPath387783">
      <path
         d="m 52.088,50.703 c -0.035,-0.007 -0.069,-0.012 -0.102,-0.014 l 0,0 c -0.019,-0.002 -0.039,-0.003 -0.058,-0.003 l 0,0 c -0.004,0 -0.009,0 -0.013,0 l 0,0 c -0.112,0.003 -0.209,0.032 -0.292,0.082 l 0,0 c -0.016,0.009 -0.031,0.019 -0.046,0.03 l 0,0 c -0.006,0.005 -0.013,0.01 -0.019,0.015 l 0,0 0.385,-0.313 c 0.009,-0.008 0.018,-0.015 0.028,-0.022 l 0,0 c 0.055,-0.039 0.117,-0.069 0.187,-0.087 l 0,0 c 0.049,-0.012 0.101,-0.019 0.156,-0.019 l 0,0 c 0.007,0 0.013,0 0.019,0 l 0,0 c 0.03,10e-4 0.062,0.004 0.093,0.009 l 0,0 c 0.016,0.002 0.031,0.005 0.047,0.008 l 0,0 c 0.241,0.051 0.55,0.23 0.622,0.509 l 0,0 -0.385,0.313 c -0.072,-0.278 -0.379,-0.457 -0.622,-0.508"
         id="path387785" />
    </clipPath>
    <linearGradient
       x1="0"
       y1="0"
       x2="1"
       y2="0"
       gradientUnits="userSpaceOnUse"
       gradientTransform="matrix(-2.1811523,-0.3845825,-0.3845825,2.1811523,53.434082,50.949219)"
       spreadMethod="pad"
       id="linearGradient387791">
      <stop
         style="stop-opacity:1;stop-color:#8d740a"
         offset="0"
         id="stop387793" />
      <stop
         style="stop-opacity:1;stop-color:#8d740a"
         offset="0.119995"
         id="stop387795" />
      <stop
         style="stop-opacity:1;stop-color:#554506"
         offset="0.66690807"
         id="stop387797" />
      <stop
         style="stop-opacity:1;stop-color:#554506"
         offset="1"
         id="stop387799" />
    </linearGradient>
    <clipPath
       clipPathUnits="userSpaceOnUse"
       id="clipPath387807">
      <path
         d="M 0,810 630,810 630,0 0,0 0,810 Z"
         id="path387809" />
    </clipPath>
    <clipPath
       clipPathUnits="userSpaceOnUse"
       id="clipPath387823">
      <path
         d="m 52.636,52.537 c -0.003,0.003 -0.007,0.006 -0.011,0.01 l 0,0 c 0.004,-0.004 0.007,-0.007 0.011,-0.01 m 0.091,-0.107 0.385,-0.314 c -0.029,0.046 -0.064,0.086 -0.103,0.118 l 0,0 c -0.124,0.101 -0.249,0.203 -0.373,0.303 l 0,0 c 0.035,-0.029 0.065,-0.066 0.091,-0.107"
         id="path387825" />
    </clipPath>
    <clipPath
       clipPathUnits="userSpaceOnUse"
       id="clipPath387835">
      <path
         d="M 0,810 630,810 630,0 0,0 0,810 Z"
         id="path387837" />
    </clipPath>
    <clipPath
       clipPathUnits="userSpaceOnUse"
       id="clipPath387851">
      <path
         d="m 52.397,53.989 c -0.109,-0.008 -0.216,-0.024 -0.318,-0.045 l 0,0 c -1.33,-0.277 -2.342,-1.336 -2.336,-2.745 l 0,0 c 0.003,-0.633 0.223,-1.102 0.586,-1.398 l 0,0 0.192,-0.157 c 0.064,-0.052 0.128,-0.104 0.192,-0.157 l 0,0 c -0.363,0.297 -0.584,0.765 -0.586,1.399 l 0,0 c -0.006,1.408 1.006,2.468 2.338,2.745 l 0,0 c 0.026,0.005 0.053,0.011 0.08,0.015 l 0,0 c 0.141,0.025 0.291,0.038 0.443,0.038 l 0,0 c 0.004,0 0.008,0.001 0.011,0.001 l 0,0 c 0.022,0 0.043,-0.001 0.065,-0.001 l 0,0 c 0.366,-0.009 0.739,-0.091 1.032,-0.264 l 0,0 c 0.027,-0.016 0.054,-0.033 0.08,-0.051 l 0,0 c 0.014,-0.01 0.029,-0.021 0.043,-0.031 l 0,0 c 0.015,-0.011 0.029,-0.022 0.043,-0.034 l 0,0 -0.385,0.314 c -0.21,0.172 -0.485,0.281 -0.777,0.336 l 0,0 c -0.159,0.03 -0.323,0.044 -0.485,0.044 l 0,0 c -0.073,0 -0.146,-0.003 -0.218,-0.009"
         id="path387853" />
    </clipPath>
    <linearGradient
       x1="0"
       y1="0"
       x2="1"
       y2="0"
       gradientUnits="userSpaceOnUse"
       gradientTransform="matrix(-5.5251923,-0.9742126,-0.9742126,5.5251923,54.785156,52.313477)"
       spreadMethod="pad"
       id="linearGradient387859">
      <stop
         style="stop-opacity:1;stop-color:#8d740a"
         offset="0"
         id="stop387861" />
      <stop
         style="stop-opacity:1;stop-color:#8d740a"
         offset="0.139999"
         id="stop387863" />
      <stop
         style="stop-opacity:1;stop-color:#554506"
         offset="0.58253204"
         id="stop387865" />
      <stop
         style="stop-opacity:1;stop-color:#554506"
         offset="1"
         id="stop387867" />
    </linearGradient>
    <clipPath
       clipPathUnits="userSpaceOnUse"
       id="clipPath387875">
      <path
         d="M 0,810 630,810 630,0 0,0 0,810 Z"
         id="path387877" />
    </clipPath>
    <clipPath
       clipPathUnits="userSpaceOnUse"
       id="clipPath387899">
      <path
         d="m 45.717,51.207 0.385,-0.314 c 0.029,0.195 0.058,0.402 0.109,0.595 l 0,0 -0.384,0.314 c -0.051,-0.193 -0.08,-0.399 -0.11,-0.595"
         id="path387901" />
    </clipPath>
    <clipPath
       clipPathUnits="userSpaceOnUse"
       id="clipPath387911">
      <path
         d="M 0,810 630,810 630,0 0,0 0,810 Z"
         id="path387913" />
    </clipPath>
    <clipPath
       clipPathUnits="userSpaceOnUse"
       id="clipPath387927">
      <path
         d="m 44.678,50.777 0.383,-0.313 c -0.043,0.175 -0.082,0.338 -0.092,0.52 l 0,0 -0.385,0.314 c 0.011,-0.182 0.05,-0.344 0.094,-0.521"
         id="path387929" />
    </clipPath>
    <clipPath
       clipPathUnits="userSpaceOnUse"
       id="clipPath387939">
      <path
         d="M 0,810 630,810 630,0 0,0 0,810 Z"
         id="path387941" />
    </clipPath>
  </defs>
  <metadata
     id="metadata7">
    <rdf:RDF>
      <cc:Work
         rdf:about="">
        <dc:format>image/svg+xml</dc:format>
        <dc:type
           rdf:resource="http://purl.org/dc/dcmitype/StillImage" />
        <dc:title></dc:title>
      </cc:Work>
    </rdf:RDF>
  </metadata>
  <g
     transform="translate(167.8571,356.49332)"
     id="layer1">
    <g
       transform="matrix(9.317356,0,0,9.317356,3535.4426,-13905.883)"
       id="g388545">
      <g
         id="g387551"
         transform="matrix(1.25,0,0,-1.25,-395.17426,1471.8789)">
        <path
           d="m 0,0 -0.455,-0.093 0,-0.771 0.341,0.07 0,-0.232 -0.341,-0.071 0,-0.77 L 0,-1.774 0,-2.007 -0.455,-2.1 c -0.126,-0.025 -0.227,0.058 -0.227,0.186 l 0,1.775 c 0,0.129 0.101,0.253 0.227,0.279 L 0,0.232 0,0 Z"
           style="fill:#231f20;fill-opacity:1;fill-rule:nonzero;stroke:none"
           id="path387553" />
      </g>
      <g
         id="g387555"
         transform="matrix(1.25,0,0,-1.25,-394.07752,1471.365)">
        <path
           d="M 0,0 0.214,0.044 C 0.294,-0.41 0.412,-0.85 0.479,-1.335 l 0.006,10e-4 c -0.012,0.186 -0.03,0.58 -0.03,0.778 l 0,0.649 0.227,0.047 0,-2.24 -0.215,-0.044 c -0.08,0.455 -0.197,0.895 -0.265,1.38 L 0.196,-0.766 c 0.013,-0.185 0.031,-0.58 0.031,-0.777 l 0,-0.649 L 0,-2.239 0,0 Z"
           style="fill:#231f20;fill-opacity:1;fill-rule:nonzero;stroke:none"
           id="path387557" />
      </g>
      <g
         id="g387559"
         transform="matrix(1.25,0,0,-1.25,-391.88264,1471.2063)">
        <path
           d="m 0,0 -0.228,-0.047 0,0.233 0.683,0.138 0,-0.231 -0.227,-0.047 0,-2.007 L 0,-2.008 0,0 Z"
           style="fill:#231f20;fill-opacity:1;fill-rule:nonzero;stroke:none"
           id="path387561" />
      </g>
      <g
         id="g387563"
         transform="matrix(1.25,0,0,-1.25,-389.40276,1470.7009)">
        <path
           d="m 0,0 -0.455,-0.093 0,-0.771 0.341,0.07 0,-0.232 -0.341,-0.07 0,-0.771 L 0,-1.774 0,-2.007 -0.455,-2.1 c -0.126,-0.025 -0.227,0.057 -0.227,0.186 l 0,1.775 c 0,0.129 0.101,0.253 0.227,0.279 L 0,0.232 0,0 Z"
           style="fill:#231f20;fill-opacity:1;fill-rule:nonzero;stroke:none"
           id="path387565" />
      </g>
      <g
         id="g387567"
         transform="matrix(1.25,0,0,-1.25,-388.02275,1471.3833)">
        <path
           d="m 0,0 0.228,0.047 0,0.771 L 0,0.772 0,0 M -0.227,0.958 0.228,1.05 C 0.354,1.076 0.455,0.993 0.455,0.864 l 0,-0.708 c 0,-0.106 -0.046,-0.157 -0.101,-0.2 0.055,-0.011 0.101,-0.048 0.101,-0.185 l 0,-0.748 c 0,-0.062 0.025,-0.104 0.055,-0.154 L 0.277,-1.179 c -0.025,0.042 -0.049,0.1 -0.049,0.157 l 0,0.836 L 0,-0.231 l 0,-1.004 -0.227,-0.047 0,2.24 z"
           style="fill:#231f20;fill-opacity:1;fill-rule:nonzero;stroke:none"
           id="path387569" />
      </g>
      <g
         id="g387571"
         transform="matrix(1.25,0,0,-1.25,-386.11113,1470.0283)">
        <path
           d="m 0,0 -0.228,-0.046 0,0.232 0.683,0.138 0,-0.231 -0.228,-0.046 0,-2.008 L 0,-2.008 0,0 Z"
           style="fill:#231f20;fill-opacity:1;fill-rule:nonzero;stroke:none"
           id="path387573" />
      </g>
      <g
         id="g387575"
         transform="matrix(1.25,0,0,-1.25,-384.20014,1470.6033)">
        <path
           d="m 0,0 0.228,0.047 0,0.771 L 0,0.772 0,0 m -0.228,0.628 c 0,0.191 0.154,0.38 0.342,0.418 0.187,0.038 0.341,-0.087 0.341,-0.278 l 0,-1.911 -0.227,-0.046 0,1.003 L 0,-0.231 l 0,-1.004 -0.228,-0.047 0,1.91 z"
           style="fill:#231f20;fill-opacity:1;fill-rule:nonzero;stroke:none"
           id="path387577" />
      </g>
      <g
         id="g387579"
         transform="matrix(1.25,0,0,-1.25,-382.46613,1468.9944)">
        <path
           d="m 0,0 0.228,0.047 0,-2.239 L 0,-2.239 0,0 Z"
           style="fill:#231f20;fill-opacity:1;fill-rule:nonzero;stroke:none"
           id="path387581" />
      </g>
      <g
         id="g387583"
         transform="matrix(1.25,0,0,-1.25,-381.01651,1468.6978)">
        <path
           d="m 0,0 0.216,0.044 c 0.079,-0.455 0.196,-0.895 0.264,-1.38 l 0.006,0.001 c -0.012,0.187 -0.03,0.58 -0.03,0.778 l 0,0.65 0.227,0.046 0,-2.24 -0.216,-0.044 C 0.388,-1.69 0.271,-1.25 0.204,-0.765 L 0.197,-0.767 c 0.012,-0.185 0.031,-0.58 0.031,-0.777 l 0,-0.649 L 0,-2.239 0,0 Z"
           style="fill:#231f20;fill-opacity:1;fill-rule:nonzero;stroke:none"
           id="path387585" />
      </g>
      <g
         id="g387587"
         transform="matrix(1.25,0,0,-1.25,-378.9975,1468.2864)">
        <path
           d="M 0,0 0.209,0.043 0.344,-0.331 C 0.381,-0.437 0.418,-0.545 0.452,-0.65 l 0.006,0.001 c 0.034,0.119 0.071,0.243 0.107,0.363 l 0.136,0.43 0.209,0.042 0,-2.24 -0.228,-0.046 0,1.023 c 0,0.203 0.012,0.501 0.025,0.679 L 0.701,-0.399 C 0.624,-0.688 0.538,-0.941 0.458,-1.201 L 0.452,-1.203 C 0.372,-0.975 0.286,-0.757 0.209,-0.5 L 0.203,-0.501 C 0.215,-0.674 0.228,-0.967 0.228,-1.17 l 0,-1.022 L 0,-2.239 0,0 Z"
           style="fill:#231f20;fill-opacity:1;fill-rule:nonzero;stroke:none"
           id="path387589" />
      </g>
      <g
         id="g387591"
         transform="matrix(1.25,0,0,-1.25,-375.84201,1467.9324)">
        <path
           d="m 0,0 -0.455,-0.093 0,-0.771 0.341,0.069 0,-0.231 -0.341,-0.071 0,-0.771 L 0,-1.775 0,-2.007 -0.455,-2.1 c -0.126,-0.025 -0.227,0.057 -0.227,0.186 l 0,1.774 c 0,0.129 0.101,0.253 0.227,0.28 L 0,0.232 0,0 Z"
           style="fill:#231f20;fill-opacity:1;fill-rule:nonzero;stroke:none"
           id="path387593" />
      </g>
      <g
         id="g387595"
         transform="matrix(1.25,0,0,-1.25,-374.74513,1467.4184)">
        <path
           d="M 0,0 0.215,0.044 C 0.294,-0.41 0.412,-0.851 0.479,-1.335 l 0.006,10e-4 c -0.012,0.186 -0.03,0.58 -0.03,0.777 l 0,0.65 0.227,0.047 0,-2.24 -0.215,-0.044 c -0.08,0.455 -0.196,0.894 -0.264,1.38 L 0.196,-0.766 c 0.013,-0.185 0.032,-0.58 0.032,-0.778 l 0,-0.648 L 0,-2.239 0,0 Z"
           style="fill:#231f20;fill-opacity:1;fill-rule:nonzero;stroke:none"
           id="path387597" />
      </g>
      <g
         id="g387599"
         transform="matrix(1.25,0,0,-1.25,-372.55038,1467.2598)">
        <path
           d="m 0,0 -0.228,-0.047 0,0.232 0.683,0.139 0,-0.231 -0.228,-0.047 0,-2.007 L 0,-2.008 0,0 Z"
           style="fill:#231f20;fill-opacity:1;fill-rule:nonzero;stroke:none"
           id="path387601" />
      </g>
      <g
         id="g387603"
         transform="matrix(1.25,0,0,-1.25,-371.10438,1466.7641)">
        <path
           d="M 0,0 0.063,0.014 C 0.102,0.022 0.132,0.036 0.135,0.083 0.138,0.125 0.098,0.122 0.065,0.115 L 0.006,0.102 0,0 Z m -0.06,0.146 0.133,0.03 C 0.162,0.196 0.21,0.177 0.205,0.092 0.201,0.021 0.158,-0.016 0.106,-0.032 l 0.084,-0.149 -0.073,-0.016 -0.076,0.146 -0.044,-0.01 -0.01,-0.165 -0.07,-0.015 0.023,0.387 z M 0.038,-0.293 C 0.169,-0.264 0.283,-0.125 0.292,0.033 0.301,0.19 0.201,0.28 0.07,0.251 -0.062,0.222 -0.175,0.085 -0.184,-0.072 c -0.009,-0.159 0.09,-0.25 0.222,-0.221 M 0.075,0.325 C 0.246,0.363 0.391,0.263 0.378,0.052 0.366,-0.159 0.205,-0.329 0.034,-0.367 c -0.172,-0.038 -0.317,0.064 -0.304,0.275 0.013,0.21 0.173,0.379 0.345,0.417"
           style="fill:#231f20;fill-opacity:1;fill-rule:nonzero;stroke:none"
           id="path387605" />
      </g>
      <g
         id="g387607"
         transform="matrix(1.25,0,0,-1.25,-448.50251,1528.3584)">
        <g
           id="g387609"
           clip-path="url(#clipPath387611)">
          <g
             id="g387615"
             transform="translate(57.731903,58.042007)">
            <path
               d="M 0,0 3.592,-6.371 -3.591,-7.838 0,0 Z"
               style="fill:#ed2c30;fill-opacity:1;fill-rule:nonzero;stroke:none"
               id="path387617" />
          </g>
          <g
             id="g387619"
             transform="translate(54.144501,50.182602)">
            <path
               d="M 0,0 7.184,1.467 C 7.191,1.469 7.196,1.473 7.199,1.479 7.202,1.485 7.202,1.493 7.198,1.499 L 3.606,7.87 C 3.602,7.877 3.594,7.881 3.586,7.881 3.579,7.881 3.571,7.876 3.567,7.869 L -0.024,0.03 C -0.027,0.023 -0.026,0.015 -0.021,0.008 -0.016,0.002 -0.008,-0.001 0,0 M 3.569,7.849 7.161,1.478 C 7.158,1.483 7.157,1.49 7.16,1.497 7.163,1.503 7.168,1.508 7.175,1.509 L -0.009,0.043 C -0.001,0.044 0.008,0.041 0.012,0.035 0.017,0.028 0.019,0.02 0.015,0.013 L 3.607,7.851 C 3.604,7.843 3.596,7.838 3.588,7.838 3.58,7.838 3.573,7.842 3.569,7.849"
               style="fill:#ffffff;fill-opacity:1;fill-rule:nonzero;stroke:none"
               id="path387621" />
          </g>
        </g>
      </g>
      <g
         id="g387623"
         transform="matrix(1.25,0,0,-1.25,-448.50251,1528.3584)">
        <g
           id="g387625"
           clip-path="url(#clipPath387627)">
          <g
             id="g387631"
             transform="translate(54.140594,50.204102)">
            <path
               d="M 0,0 -1.538,1.255 2.054,9.093 3.591,7.838 0,0 Z"
               style="fill:#550d0c;fill-opacity:1;fill-rule:nonzero;stroke:none"
               id="path387633" />
          </g>
          <g
             id="g387635"
             transform="translate(57.745606,58.058594)">
            <path
               d="M 0,0 -1.537,1.255 C -1.542,1.26 -1.549,1.261 -1.556,1.26 -1.562,1.258 -1.567,1.254 -1.57,1.248 L -5.163,-6.59 c -0.004,-0.01 -0.002,-0.02 0.007,-0.026 l 1.536,-1.255 c 0.006,-0.005 0.013,-0.006 0.019,-0.005 0.007,0.002 0.012,0.006 0.015,0.013 l 3.592,7.838 C 0.01,-0.017 0.007,-0.006 0,0 m -3.592,-7.838 -1.537,1.255 c 0.007,-0.006 0.009,-0.017 0.005,-0.025 l 3.593,7.837 C -1.534,1.224 -1.54,1.219 -1.546,1.218 c -0.007,-0.002 -0.013,0 -0.018,0.004 l 1.537,-1.255 c -0.008,0.006 -0.01,0.016 -0.007,0.026 l -3.591,-7.839 c 0.002,0.006 0.008,0.011 0.015,0.012 0.006,0.002 0.013,0 0.018,-0.004"
               style="fill:#ffffff;fill-opacity:1;fill-rule:nonzero;stroke:none"
               id="path387637" />
          </g>
          <g
             id="g387639"
             transform="translate(58.773407,51.577103)">
            <path
               d="M 0,0 -0.385,0.313 -0.526,0.823 -0.142,0.51 0,0 Z"
               style="fill:#550d0c;fill-opacity:1;fill-rule:nonzero;stroke:none"
               id="path387641" />
          </g>
          <g
             id="g387643"
             transform="translate(57.742203,52.842804)">
            <path
               d="M 0,0 -0.385,0.314 0.233,0.441 0.617,0.128 0,0 Z"
               style="fill:#881718;fill-opacity:1;fill-rule:nonzero;stroke:none"
               id="path387645" />
          </g>
          <g
             id="g387647"
             transform="translate(58.359405,52.970703)">
            <path
               d="M 0,0 -0.384,0.313 -0.565,1.038 -0.181,0.725 0,0 Z"
               style="fill:#550d0c;fill-opacity:1;fill-rule:nonzero;stroke:none"
               id="path387649" />
          </g>
          <g
             id="g387651"
             transform="translate(58.178207,53.695297)">
            <path
               d="M 0,0 -0.384,0.313 C -0.429,0.488 -0.458,0.558 -0.487,0.735 L -0.102,0.421 C -0.074,0.243 -0.045,0.174 0,0"
               style="fill:#ffffff;fill-opacity:1;fill-rule:nonzero;stroke:none"
               id="path387653" />
          </g>
        </g>
      </g>
      <g
         id="g387655"
         transform="matrix(1.25,0,0,-1.25,-448.50251,1528.3584)">
        <g
           id="g387657"
           clip-path="url(#clipPath387659)">
          <g
             id="g387663"
             transform="translate(58.178207,53.695297)">
            <path
               d="M 0,0 -0.384,0.313 C -0.429,0.488 -0.458,0.558 -0.487,0.735 L -0.102,0.421 C -0.074,0.243 -0.045,0.174 0,0"
               style="fill:#550d0c;fill-opacity:1;fill-rule:nonzero;stroke:none"
               id="path387665" />
          </g>
        </g>
      </g>
      <g
         id="g387667"
         transform="matrix(1.25,0,0,-1.25,-448.50251,1528.3584)">
        <g
           id="g387669"
           clip-path="url(#clipPath387671)">
          <g
             id="g387675"
             transform="translate(57.513702,55.864304)">
            <path
               d="M 0,0 -0.384,0.313 0.649,0.528 1.033,0.215 0,0 Z"
               style="fill:#881718;fill-opacity:1;fill-rule:nonzero;stroke:none"
               id="path387677" />
          </g>
          <g
             id="g387679"
             transform="translate(58.359405,52.970703)">
            <path
               d="M 0,0 -0.181,0.725 C -0.227,0.898 -0.255,0.968 -0.283,1.146 L -0.339,1.134 -0.617,-0.128 0,0 m -1.012,-1.688 -1.629,-0.336 1.795,4.918 1.034,0.214 1.854,-4.166 -1.628,-0.336 -0.142,0.51 -1.162,-0.24 -0.122,-0.564 z"
               style="fill:#fdfdfd;fill-opacity:1;fill-rule:nonzero;stroke:none"
               id="path387681" />
          </g>
          <g
             id="g387683"
             transform="translate(55.718796,50.946304)">
            <path
               d="M 0,0 -0.384,0.313 1.411,5.231 1.795,4.918 0,0 Z"
               style="fill:#550d0c;fill-opacity:1;fill-rule:nonzero;stroke:none"
               id="path387685" />
          </g>
        </g>
      </g>
      <g
         id="g387687"
         transform="matrix(1.25,0,0,-1.25,-448.50251,1528.3584)">
        <g
           id="g387689"
           clip-path="url(#clipPath387691)">
          <g
             id="g387695"
             transform="translate(42.369095,46.9785)">
            <path
               d="m 0,0 -1.537,1.255 0,6.877 L 0,6.877 0,0 Z"
               style="fill:#2a223b;fill-opacity:1;fill-rule:nonzero;stroke:none"
               id="path387697" />
          </g>
          <g
             id="g387699"
             transform="translate(42.383301,53.872101)">
            <path
               d="M 0,0 -1.538,1.255 C -1.544,1.261 -1.553,1.261 -1.56,1.258 -1.568,1.254 -1.573,1.246 -1.573,1.238 l 0,-6.877 c 0,-0.007 0.004,-0.012 0.009,-0.016 l 1.537,-1.255 c 0.006,-0.006 0.015,-0.007 0.023,-0.003 0.007,0.003 0.012,0.011 0.012,0.019 l 0,6.877 C 0.008,-0.01 0.005,-0.004 0,0 m 0,-6.878 -1.538,1.256 c 0.005,-0.004 0.009,-0.011 0.009,-0.017 l 0,6.877 C -1.529,1.23 -1.534,1.223 -1.542,1.219 -1.549,1.216 -1.558,1.217 -1.564,1.222 l 1.537,-1.255 c -0.005,0.004 -0.008,0.01 -0.008,0.016 l 0,-6.877 c 0,0.008 0.005,0.016 0.012,0.019 0.007,0.004 0.017,0.003 0.023,-0.003"
               style="fill:#ffffff;fill-opacity:1;fill-rule:nonzero;stroke:none"
               id="path387701" />
          </g>
        </g>
      </g>
      <g
         id="g387703"
         transform="matrix(1.25,0,0,-1.25,-448.50251,1528.3584)">
        <g
           id="g387705"
           clip-path="url(#clipPath387707)">
          <g
             id="g387711"
             transform="translate(52.115204,48.167007)">
            <path
               d="m 0,0 c -1.822,-0.372 -3.3,0.834 -3.3,2.694 0,1.861 1.478,3.67 3.3,4.042 C 1.823,7.108 3.3,5.901 3.3,4.041 3.3,2.182 1.823,0.372 0,0"
               style="fill:#fad113;fill-opacity:1;fill-rule:nonzero;stroke:none"
               id="path387713" />
          </g>
          <g
             id="g387715"
             transform="translate(55.436996,52.207993)">
            <path
               d="m 0,0 c 0,0.906 -0.346,1.688 -0.975,2.201 -0.628,0.514 -1.463,0.696 -2.351,0.515 -1.829,-0.374 -3.317,-2.195 -3.317,-4.063 0,-0.906 0.346,-1.687 0.974,-2.2 0.629,-0.514 1.464,-0.696 2.352,-0.516 C -1.488,-3.688 0,-1.866 0,0 m -3.326,-4.02 c -0.875,-0.178 -1.697,10e-4 -2.315,0.505 -0.619,0.505 -0.959,1.276 -0.959,2.168 0,1.848 1.473,3.651 3.283,4.021 0.875,0.179 1.697,-10e-4 2.315,-0.506 0.618,-0.505 0.959,-1.274 0.959,-2.168 0,-1.847 -1.473,-3.65 -3.283,-4.02"
               style="fill:#ffffff;fill-opacity:1;fill-rule:nonzero;stroke:none"
               id="path387717" />
          </g>
        </g>
      </g>
      <g
         id="g387719"
         transform="matrix(1.25,0,0,-1.25,-448.50251,1528.3584)">
        <g
           id="g387721"
           clip-path="url(#clipPath387723)">
          <g
             id="g387727"
             transform="translate(49.782196,48.676804)">
            <path
               d="m 0,0 -1.538,1.256 c -0.596,0.487 -0.966,1.254 -0.966,2.183 0,1.861 1.478,3.67 3.3,4.042 0.911,0.186 1.736,-0.022 2.333,-0.51 L 4.667,5.716 C 4.07,6.203 3.244,6.412 2.333,6.227 0.511,5.854 -0.967,4.045 -0.967,2.185 -0.967,1.255 -0.598,0.488 0,0"
               style="fill:#554506;fill-opacity:1;fill-rule:nonzero;stroke:none"
               id="path387729" />
          </g>
          <g
             id="g387731"
             transform="translate(49.795898,48.693405)">
            <path
               d="m 0,0 -1.538,1.255 c -0.618,0.506 -0.958,1.275 -0.958,2.168 0,1.848 1.473,3.651 3.283,4.02 C 1.661,7.622 2.484,7.442 3.102,6.938 L 4.639,5.683 4.667,5.716 C 4.038,6.229 3.203,6.412 2.315,6.23 0.486,5.856 -1.002,4.035 -1.002,2.168 c 0,-0.906 0.346,-1.688 0.975,-2.201 L 0,0 c -0.619,0.505 -0.959,1.275 -0.959,2.168 0,1.848 1.473,3.65 3.283,4.02 0.875,0.179 1.697,0 2.315,-0.505 L 4.667,5.716 3.129,6.971 C 2.5,7.484 1.666,7.667 0.778,7.486 -1.051,7.112 -2.539,5.29 -2.539,3.423 c 0,-0.906 0.346,-1.688 0.975,-2.201 L -0.027,-0.033 0,0 Z"
               style="fill:#ffffff;fill-opacity:1;fill-rule:nonzero;stroke:none"
               id="path387733" />
          </g>
        </g>
      </g>
      <g
         id="g387735"
         transform="matrix(1.25,0,0,-1.25,-448.50251,1528.3584)">
        <g
           id="g387737"
           clip-path="url(#clipPath387739)">
          <g
             id="g387743"
             transform="translate(49.108398,48.3535)">
            <path
               d="m 0,0 -6.739,-1.375 0,6.877 L 0,6.877 0,0 Z"
               style="fill:#796abb;fill-opacity:1;fill-rule:nonzero;stroke:none"
               id="path387745" />
          </g>
          <g
             id="g387747"
             transform="translate(49.1035,55.251999)">
            <path
               d="m 0,0 -6.738,-1.376 c -0.011,-0.002 -0.017,-0.011 -0.017,-0.02 l 0,-6.877 c 0,-0.007 0.003,-0.013 0.007,-0.017 0.005,-0.005 0.012,-0.006 0.019,-0.005 l 6.738,1.375 c 0.01,0.003 0.017,0.011 0.017,0.022 l 0,6.877 c 0,0.006 -0.003,0.012 -0.008,0.016 C 0.013,0 0.006,0.001 0,0 m 0,-6.878 -6.738,-1.375 c 0.006,10e-4 0.012,0 0.018,-0.005 0.005,-0.003 0.008,-0.01 0.008,-0.015 l 0,6.877 c 0,-0.011 -0.008,-0.02 -0.017,-0.022 l 6.738,1.375 c -0.007,-0.001 -0.013,10e-4 -0.018,0.005 -0.005,0.004 -0.008,0.01 -0.008,0.017 l 0,-6.877 c 0,0.01 0.007,0.018 0.017,0.02"
               style="fill:#ffffff;fill-opacity:1;fill-rule:nonzero;stroke:none"
               id="path387749" />
          </g>
        </g>
      </g>
      <g
         id="g387751"
         transform="matrix(1.25,0,0,-1.25,-448.50251,1528.3584)">
        <g
           id="g387753"
           clip-path="url(#clipPath387755)">
          <g
             id="g387759"
             transform="translate(42.369095,53.855499)">
            <path
               d="M 0,0 -1.537,1.255 5.202,2.63 6.739,1.375 0,0 Z"
               style="fill:#2a223b;fill-opacity:1;fill-rule:nonzero;stroke:none"
               id="path387761" />
          </g>
          <g
             id="g387763"
             transform="translate(49.121597,55.247101)">
            <path
               d="M 0,0 -1.537,1.255 C -1.542,1.259 -1.549,1.261 -1.555,1.26 l -6.738,-1.375 c -0.009,-0.002 -0.015,-0.008 -0.017,-0.017 -0.002,-0.008 0,-0.016 0.007,-0.021 l 1.537,-1.255 c 0.005,-0.004 0.012,-0.006 0.018,-0.005 l 6.739,1.375 c 0.008,0.003 0.014,0.009 0.017,0.017 C 0.009,-0.014 0.006,-0.005 0,0 m -6.738,-1.375 -1.538,1.255 c 0.006,-0.005 0.009,-0.014 0.007,-0.022 -0.002,-0.007 -0.008,-0.014 -0.016,-0.015 l 6.739,1.375 c -0.006,-10e-4 -0.013,0 -0.018,0.004 l 1.537,-1.255 c -0.007,0.006 -0.009,0.013 -0.007,0.021 0.001,0.009 0.008,0.015 0.016,0.017 l -6.738,-1.376 c 0.006,0.002 0.012,0 0.018,-0.004"
               style="fill:#ffffff;fill-opacity:1;fill-rule:nonzero;stroke:none"
               id="path387765" />
          </g>
        </g>
      </g>
      <g
         id="g387767"
         transform="matrix(1.25,0,0,-1.25,-448.50251,1528.3584)">
        <g
           id="g387769"
           clip-path="url(#clipPath387771)">
          <g
             id="g387775"
             transform="translate(51.942398,50.5)">
            <path
               d="m 0,0 c -0.128,0.104 -0.256,0.209 -0.384,0.313 0.133,-0.108 0.311,-0.155 0.53,-0.11 0.242,0.051 0.55,0.23 0.622,0.508 L 1.152,0.397 C 1.081,0.119 0.771,-0.061 0.531,-0.11 0.312,-0.156 0.133,-0.107 0,0"
               style="fill:#ffffff;fill-opacity:1;fill-rule:nonzero;stroke:none"
               id="path387777" />
          </g>
        </g>
      </g>
      <g
         id="g387779"
         transform="matrix(1.25,0,0,-1.25,-448.50251,1528.3584)">
        <g
           id="g387781"
           clip-path="url(#clipPath387783)">
          <g
             id="g387787">
            <g
               id="g387789">
              <path
                 d="m 52.088,50.703 c -0.035,-0.007 -0.069,-0.012 -0.102,-0.014 l 0,0 c -0.019,-0.002 -0.039,-0.003 -0.058,-0.003 l 0,0 c -0.004,0 -0.009,0 -0.013,0 l 0,0 c -0.112,0.003 -0.209,0.032 -0.292,0.082 l 0,0 c -0.016,0.009 -0.031,0.019 -0.046,0.03 l 0,0 c -0.006,0.005 -0.013,0.01 -0.019,0.015 l 0,0 0.385,-0.313 c 0.009,-0.008 0.018,-0.015 0.028,-0.022 l 0,0 c 0.055,-0.039 0.117,-0.069 0.187,-0.087 l 0,0 c 0.049,-0.012 0.101,-0.019 0.156,-0.019 l 0,0 c 0.007,0 0.013,0 0.019,0 l 0,0 c 0.03,10e-4 0.062,0.004 0.093,0.009 l 0,0 c 0.016,0.002 0.031,0.005 0.047,0.008 l 0,0 c 0.241,0.051 0.55,0.23 0.622,0.509 l 0,0 -0.385,0.313 c -0.072,-0.278 -0.379,-0.457 -0.622,-0.508"
                 style="fill:url(#linearGradient387791);stroke:none"
                 id="path387801" />
            </g>
          </g>
        </g>
      </g>
      <g
         id="g387803"
         transform="matrix(1.25,0,0,-1.25,-448.50251,1528.3584)">
        <g
           id="g387805"
           clip-path="url(#clipPath387807)">
          <g
             id="g387811"
             transform="translate(52.393997,51.7715)">
            <path
               d="M 0,0 -0.385,0.313 1.99,0.809 2.375,0.495 0,0 Z"
               style="fill:#8d740a;fill-opacity:1;fill-rule:nonzero;stroke:none"
               id="path387813" />
          </g>
          <g
             id="g387815"
             transform="translate(52.624496,52.546905)">
            <path
               d="M 0,0 C 0.128,-0.104 0.256,-0.209 0.384,-0.313 0.423,-0.345 0.458,-0.385 0.487,-0.431 L 0.102,-0.117 C 0.074,-0.071 0.04,-0.031 0,0"
               style="fill:#ffffff;fill-opacity:1;fill-rule:nonzero;stroke:none"
               id="path387817" />
          </g>
        </g>
      </g>
      <g
         id="g387819"
         transform="matrix(1.25,0,0,-1.25,-448.50251,1528.3584)">
        <g
           id="g387821"
           clip-path="url(#clipPath387823)">
          <g
             id="g387827"
             transform="translate(53.111298,52.116196)">
            <path
               d="M 0,0 -0.385,0.313 C -0.413,0.359 -0.447,0.399 -0.487,0.431 L -0.103,0.118 C -0.063,0.086 -0.029,0.046 0,0"
               style="fill:#727070;fill-opacity:1;fill-rule:nonzero;stroke:none"
               id="path387829" />
          </g>
        </g>
      </g>
      <g
         id="g387831"
         transform="matrix(1.25,0,0,-1.25,-448.50251,1528.3584)">
        <g
           id="g387833"
           clip-path="url(#clipPath387835)">
          <g
             id="g387839"
             transform="translate(52.397903,50.751999)">
            <path
               d="M 0,0 -0.384,0.313 -0.389,1.333 -0.004,1.02 0,0 Z"
               style="fill:#554506;fill-opacity:1;fill-rule:nonzero;stroke:none"
               id="path387841" />
          </g>
          <g
             id="g387843"
             transform="translate(50.712906,49.487305)">
            <path
               d="M 0,0 C -0.128,0.104 -0.256,0.209 -0.384,0.313 -0.747,0.609 -0.967,1.078 -0.97,1.712 -0.977,3.12 0.037,4.18 1.367,4.457 1.951,4.579 2.709,4.503 3.164,4.131 3.293,4.026 3.42,3.922 3.549,3.817 3.094,4.189 2.335,4.266 1.751,4.144 0.421,3.866 -0.592,2.807 -0.586,1.398 -0.583,0.765 -0.362,0.296 0,0"
               style="fill:#ffffff;fill-opacity:1;fill-rule:nonzero;stroke:none"
               id="path387845" />
          </g>
        </g>
      </g>
      <g
         id="g387847"
         transform="matrix(1.25,0,0,-1.25,-448.50251,1528.3584)">
        <g
           id="g387849"
           clip-path="url(#clipPath387851)">
          <g
             id="g387855">
            <g
               id="g387857">
              <path
                 d="m 52.397,53.989 c -0.109,-0.008 -0.216,-0.024 -0.318,-0.045 l 0,0 c -1.33,-0.277 -2.342,-1.336 -2.336,-2.745 l 0,0 c 0.003,-0.633 0.223,-1.102 0.586,-1.398 l 0,0 0.192,-0.157 c 0.064,-0.052 0.128,-0.104 0.192,-0.157 l 0,0 c -0.363,0.297 -0.584,0.765 -0.586,1.399 l 0,0 c -0.006,1.408 1.006,2.468 2.338,2.745 l 0,0 c 0.026,0.005 0.053,0.011 0.08,0.015 l 0,0 c 0.141,0.025 0.291,0.038 0.443,0.038 l 0,0 c 0.004,0 0.008,0.001 0.011,0.001 l 0,0 c 0.022,0 0.043,-0.001 0.065,-0.001 l 0,0 c 0.366,-0.009 0.739,-0.091 1.032,-0.264 l 0,0 c 0.027,-0.016 0.054,-0.033 0.08,-0.051 l 0,0 c 0.014,-0.01 0.029,-0.021 0.043,-0.031 l 0,0 c 0.015,-0.011 0.029,-0.022 0.043,-0.034 l 0,0 -0.385,0.314 c -0.21,0.172 -0.485,0.281 -0.777,0.336 l 0,0 c -0.159,0.03 -0.323,0.044 -0.485,0.044 l 0,0 c -0.073,0 -0.146,-0.003 -0.218,-0.009"
                 style="fill:url(#linearGradient387859);stroke:none"
                 id="path387869" />
            </g>
          </g>
        </g>
      </g>
      <g
         id="g387871"
         transform="matrix(1.25,0,0,-1.25,-448.50251,1528.3584)">
        <g
           id="g387873"
           clip-path="url(#clipPath387875)">
          <g
             id="g387879"
             transform="translate(54.768601,52.266602)">
            <path
               d="m 0,0 c -0.008,-0.706 -0.005,-1.296 -0.503,-1.95 -0.446,-0.592 -1.136,-1.005 -1.793,-1.142 -1.291,-0.269 -2.339,0.325 -2.346,1.711 -0.006,1.408 1.007,2.468 2.338,2.745 0.735,0.154 1.747,-0.008 2.082,-0.676 L -1.657,-0.15 c -0.119,0.192 -0.339,0.261 -0.586,0.21 -0.55,-0.116 -0.851,-0.66 -0.848,-1.181 0.002,-0.475 0.296,-0.86 0.796,-0.756 0.24,0.05 0.549,0.23 0.621,0.508 L -2.371,-1.515 -2.375,-0.495 0,0 Z"
               style="fill:#fdfdfd;fill-opacity:1;fill-rule:nonzero;stroke:none"
               id="path387881" />
          </g>
          <g
             id="g387883"
             transform="translate(47.448196,49.108398)">
            <path
               d="M 0,0 -0.384,0.313 -0.578,2.643 -0.193,2.328 0,0 Z"
               style="fill:#2a223b;fill-opacity:1;fill-rule:nonzero;stroke:none"
               id="path387885" />
          </g>
          <g
             id="g387887"
             transform="translate(46.0625,50.885696)">
            <path
               d="M 0,0 -0.385,0.313 -0.345,0.321 0.039,0.008 0,0 Z"
               style="fill:#251d32;fill-opacity:1;fill-rule:nonzero;stroke:none"
               id="path387889" />
          </g>
          <g
             id="g387891"
             transform="translate(46.101593,50.8936)">
            <path
               d="m 0,0 -0.384,0.313 c 0.029,0.196 0.058,0.402 0.11,0.595 L 0.11,0.595 C 0.058,0.401 0.029,0.194 0,0"
               style="fill:#ffffff;fill-opacity:1;fill-rule:nonzero;stroke:none"
               id="path387893" />
          </g>
        </g>
      </g>
      <g
         id="g387895"
         transform="matrix(1.25,0,0,-1.25,-448.50251,1528.3584)">
        <g
           id="g387897"
           clip-path="url(#clipPath387899)">
          <g
             id="g387903"
             transform="translate(46.101593,50.8936)">
            <path
               d="m 0,0 -0.384,0.313 c 0.029,0.196 0.058,0.402 0.11,0.595 L 0.11,0.595 C 0.058,0.401 0.029,0.194 0,0"
               style="fill:#2a223b;fill-opacity:1;fill-rule:nonzero;stroke:none"
               id="path387905" />
          </g>
        </g>
      </g>
      <g
         id="g387907"
         transform="matrix(1.25,0,0,-1.25,-448.50251,1528.3584)">
        <g
           id="g387909"
           clip-path="url(#clipPath387911)">
          <g
             id="g387915"
             transform="translate(45.601105,48.743195)">
            <path
               d="M 0,0 -0.384,0.313 -0.923,2.034 -0.54,1.721 0,0 Z"
               style="fill:#2a223b;fill-opacity:1;fill-rule:nonzero;stroke:none"
               id="path387917" />
          </g>
          <g
             id="g387919"
             transform="translate(45.061493,50.463898)">
            <path
               d="M 0,0 -0.384,0.313 C -0.428,0.489 -0.466,0.652 -0.477,0.834 L -0.092,0.521 C -0.082,0.339 -0.043,0.175 0,0"
               style="fill:#ffffff;fill-opacity:1;fill-rule:nonzero;stroke:none"
               id="path387921" />
          </g>
        </g>
      </g>
      <g
         id="g387923"
         transform="matrix(1.25,0,0,-1.25,-448.50251,1528.3584)">
        <g
           id="g387925"
           clip-path="url(#clipPath387927)">
          <g
             id="g387931"
             transform="translate(45.061493,50.463898)">
            <path
               d="M 0,0 -0.384,0.313 C -0.428,0.489 -0.466,0.652 -0.477,0.834 L -0.092,0.521 C -0.082,0.339 -0.043,0.175 0,0"
               style="fill:#251d32;fill-opacity:1;fill-rule:nonzero;stroke:none"
               id="path387933" />
          </g>
        </g>
      </g>
      <g
         id="g387935"
         transform="matrix(1.25,0,0,-1.25,-448.50251,1528.3584)">
        <g
           id="g387937"
           clip-path="url(#clipPath387939)">
          <g
             id="g387943"
             transform="translate(46.6987,53.281296)">
            <path
               d="M 0,0 -0.384,0.313 1.183,0.623 1.566,0.31 0,0 Z"
               style="fill:#453b66;fill-opacity:1;fill-rule:nonzero;stroke:none"
               id="path387945" />
          </g>
          <g
             id="g387947"
             transform="translate(46.211395,51.488296)">
            <path
               d="M 0,0 -0.384,0.313 0.103,2.106 0.487,1.793 0,0 Z"
               style="fill:#2a223b;fill-opacity:1;fill-rule:nonzero;stroke:none"
               id="path387949" />
          </g>
          <g
             id="g387951"
             transform="translate(43.908203,52.7285)">
            <path
               d="M 0,0 -0.384,0.313 1.199,0.627 1.583,0.313 0,0 Z"
               style="fill:#453b66;fill-opacity:1;fill-rule:nonzero;stroke:none"
               id="path387953" />
          </g>
          <g
             id="g387955"
             transform="translate(43.908203,52.7285)">
            <path
               d="m 0,0 1.583,0.313 0.571,-2.156 0.039,0.008 c 0.03,0.194 0.058,0.401 0.11,0.595 L 2.791,0.553 4.357,0.862 5.028,-3.325 3.54,-3.62 3.347,-1.292 3.318,-1.298 C 3.289,-1.446 3.26,-1.601 3.215,-1.747 L 2.591,-3.808 1.693,-3.985 1.153,-2.265 C 1.11,-2.09 1.071,-1.926 1.061,-1.744 l -0.05,-0.01 C 0.998,-1.928 0.986,-2.108 0.968,-2.284 L 0.778,-4.167 -0.71,-4.461 0,0 Z"
               style="fill:#fdfdfd;fill-opacity:1;fill-rule:nonzero;stroke:none"
               id="path387957" />
          </g>
          <g
             id="g387959"
             transform="translate(43.198196,48.267593)">
            <path
               d="M 0,0 -0.384,0.313 0.326,4.774 0.71,4.461 0,0 Z"
               style="fill:#2a223b;fill-opacity:1;fill-rule:nonzero;stroke:none"
               id="path387961" />
          </g>
        </g>
      </g>
    </g>
  </g>
</svg>
