<?xml version="1.0" encoding="utf-8"?>
<!-- Generator: Adobe Illustrator 26.2.1, SVG Export Plug-In . SVG Version: 6.00 Build 0)  -->
<svg version="1.1" id="Layer_1" xmlns="http://www.w3.org/2000/svg" xmlns:xlink="http://www.w3.org/1999/xlink" x="0px" y="0px"
	 viewBox="0 0 1000 1000" style="enable-background:new 0 0 1000 1000;" xml:space="preserve">
<style type="text/css">
	.st0{fill:#EBEEEC;}
	.st1{fill:#EC1687;}
	.st2{fill:#FFFFFF;}
	.st3{fill:#020203;}
</style>
<g>
	<path class="st0" d="M835.8,553.6c-2.4-2.7-5.1-4.7-8.4-6.1l-0.9-10l0-0.1c0-4.8,0-10.3-2.9-16.1c-3.2-6.5-6.7-8.6-10.7-10.5
		c-0.8-0.4-1.5-0.7-2.4-1.2c-6.3-3.6-12.5-4.2-17.9-4.2c-1.9-0.2-6.8-0.7-13-0.5c-2.1,0.1-4.4,0.1-6.7,0.1c-5.4,0.1-11,0.2-15.1,0.5
		c-2.6,0.2-4.6,0.5-6.4,0.8c-2.2,0.4-4,0.6-6.9,0.7l-0.4,0c-1.3,0-2.8-0.1-4.3-0.2l0-11L739,475l0.5-23.8l-1.1-18l2.7-27.7l0-9.8
		c0.6-10.2-2.6-19.6-9.1-26.5c-6.7-7.1-16.1-11.1-26.7-11.2l-11-0.9l-12.6-0.3l-0.2,0c-0.6,0-1.7,0-2.9,0c-1.9,0-4.2,0-6.2,0
		c-2.2,0-3.6,0-4.5,0.1c-11.1,0.7-19.9,8-24.2,20.1l-7.2,17.6c-2.6,4.7-5.9,10.2-6.7,11.5c-0.4,0.6-0.8,1.2-1.2,1.7
		c-2.2-2.7-4.6-5.3-6.9-8l-1.6-1.8c-0.9-1-2-2.6-3.2-4.2c-2.4-3.3-5.2-7.1-8.6-9.9c-0.8-0.7-1.7-1.4-2.5-2.1
		c-6.6-5.5-13.3-11.2-22.4-15.3c-7.8-3.5-17.1-7.3-29.1-8.3c-1.9-0.2-4.5-0.8-7.2-1.4c-4.4-1.1-9.3-2.2-14.4-2.2c-1,0-1.9,0-2.9,0
		c-1,0-1.9,0-2.9,0c-5.2,0-9.6,0.2-14.3,0.9c-10.7,1.6-19.7,4.2-28.3,8c-4.8,2.1-8.8,4.6-13.5,7.4c-1.8,1.1-3.8,2.3-6,3.6
		c-5.8,3.4-9.8,7.9-13.2,11.9c-1.1,1.3-2.1,2.4-3.2,3.5c-0.3,0.3-0.5,0.6-0.7,0.8c-0.7,0.7-1.4,1.5-2.1,2.3
		c-0.8,0.9-1.5,1.8-2.3,2.7l-2.1,2.3l-0.6,0.5l-2.2,3.5c-0.5,0.6-0.9,1.3-1.3,1.9c-0.3,0.3-0.8,0.7-1.2,1c-1.6,1.4-3.7,3.2-5.3,5.8
		l-13.5,20.3l-0.5,0.8c-2.5,4.4-5.4,9.3-6.3,10.5c-2.3,2.5-9.7,11.5-11.9,14.2l-1.4,0.7l-0.4,2.4c-0.4,0.7-1.6,2.3-3.9,4.8
		c-5.8,6.1-16.8,20.7-19.8,25.9c-1.1,1.8-5,6-8,8.8l-0.4,0.4l-9.2,10.4c-0.7,0-1.4,0-1.9,0c-0.6,0-1.7,0-3.3,0.1c-0.3,0-0.7,0-0.9,0
		l-0.1,0c-1,0-2.1,0-3.3-0.1l-1.2-16.9l1.7-31.1l0.1-21.6l0.3-25.8l-0.3-16.2c0-6.5-0.1-16.1-7.1-24.4c-7.5-8.7-17.9-13.8-28.5-14
		l-8.4-0.9l-14.7-0.8l-0.6,0c-8.9,0-17.2,3-24,8.4l-1.5,0l-2.6,3.8l-9.6,9.1l-0.7,1.1c-5.5,8.5-15.1,23.1-17.2,25.9
		c-2.9,3.8-6.7,8.3-6.7,8.3l-0.6,0.8c-4.2,5.8-9.2,12.1-10.7,13.3c-3.3,2.5-5.3,5-6.8,7c-1,1.3-1.9,2.5-3.4,3.9
		c-4,3.9-7.3,9.1-9.5,12.4c-0.5,0.8-1.2,1.9-1.5,2.2c-0.5,0.6-2.1,2.5-3.6,4.4c-3.4,4-7.7,9.1-10.3,12.5
		c-3.6,4.7-9.4,13.2-10.5,14.8c-9.1,11.9-9.1,24.7-9.1,37l0,1.9l0.1,0.7c0,0.1,0.7,5.4,0.7,9.8c0,2.2,0.2,5.6,0.4,10
		c0.3,6.6,0.7,14.8,0.5,20c-0.2,8.7,0.3,25.3,0.6,35.2l0.1,2c0.3,7.8,0.6,15.2,0.7,17.4c-0.1,1.5-0.2,4.5,0.3,8.2
		c0.3,2.1,0.6,13.7,0.7,23.3c0,9.7,3.6,18.9,10,25.3c5.5,5.4,12.7,8.4,20.3,8.4h0.1c0.3,0,29.8-0.4,43.2-0.7
		c13.9-0.3,36.7,1.2,37,1.2l0.5,0l72.7-1.8l177.9,1l0.2,0c0.4,0,38.9-0.5,72.5-0.5c15.9,0,28.2,0.1,36.7,0.2
		c11,0.2,25.6,0.3,43.7,0.3c22.8,0,43.3-0.2,44.5-0.3c17.6-0.1,28.1-13.3,35-22.2l5.3-6.4c2.4-1.9,7.2-6.1,11-12.4
		c2.9-4.7,5.6-7.6,5.9-7.9c1.1-1.1,7.5-7.4,11.8-13.8c0.7-1,1.4-2.1,2.1-3.1c2.7-4,5.5-8.3,7.4-10.3c3.3-3.4,8.7-9.4,8.9-9.6
		l1.5-1.7c1.5,0.2,3,0.3,4.5,0.3c10.1,0,15.1-4.9,18.9-9.5c3.5-4.1,6.7-9,6.7-16.6l0-1C840.9,566.1,840.9,559.4,835.8,553.6
		L835.8,553.6z"/>
	<path class="st1" d="M505.5,497l1.2,3.2c1.1,4.6,3.1,6.2,5.5,9.7c2,2.9,5.9,4.6,9.3,6.5c2.9,1.6,7.2,2.5,12.3,2.5
		c5.1,0,9.6,0.4,12.5-1.2c3.3-1.8,7.7-3.1,9.7-6c2.4-3.6,4.1-5.9,5.2-10.5c1.3-5.4,3.7-12.5,3.7-18.2c0-6.1-0.2-16.4-1.5-22.1
		c-1.2-4.8-3.8-10-6.2-13.6c-2-3-4.8-6.1-8.1-7.9c-3-1.6-10.8-1-15.9-1.1c-5.1,0-8.8,2.1-11.7,3.8c-3.3,1.8-5.8,3.8-7.8,6.7
		c-2.4,3.6-5.5,6.7-6.6,11.5c-1.3,5.7-1.9,12.8-1.9,19c0,5.7-1.3,9.1,0,14.5L505.5,497L505.5,497z"/>
	<path class="st1" d="M744.6,583.1L725,582l-18.9-0.2l-7.2-0.6l-2.1,0l-10.9,0.1c-2.5,0-4.9,0-7.2-0.1c-6.8,0.2-12.4,0.8-16.9-4
		c-4.6-4.9-6.5-10-6.5-17.2l-1.3-21.1l0.7-20.4l-1.3-23.5l-0.1-49.4l-1.8-31.3l0-7.4c-2.1,3-4.1,5.9-4.5,6.5c-0.9,1.2-7,6.4-8.3,8.4
		c-0.8,1.3-4.5,7.4-7,11.4c0.6,1.3,1.1,2.6,1.6,3.9c2.4,6.8,3.9,13.6,5.1,20.9c1.2,7.2,0,14.5,0,22.1c0,6.8,0.3,13.5-0.7,20
		c-1.2,8-2.7,13.7-5.3,21c-1.5,4.2-3.7,9.7-5.6,13.6c-4.3,8.8-8.5,16.1-14.8,23.1c-0.5,0.6-1.1,1.2-1.6,1.7c3.1,3,4.9,7.2,4.9,12
		c0,3-0.4,6.2-1.8,8.7c-1.2,2.2-3,4.1-5.5,5.9c-2.8,2.1-5.6,2.3-9.3,2.3c-5.1,0-9.7-1.8-12.8-5.4c-0.6-0.7-1.2-1.4-1.7-2.3
		c-1.8,1-3.7,1.9-5.6,2.8c-5.1,2.3-10.5,4-16.1,5.5c-9.1,2.3-18.7,3.2-28.9,3.2c-7.5,0-14.7-2.5-21.7-2.5
		c-8.3,0.1-15.9-2.9-23.2-6.1c-6.8-2.9-13-6.5-18.8-10.6c-5.8-4.1-11-8.8-15.7-14c-1.2-1.4-2.4-2.8-3.6-4.2
		c-7.5-9.3-12.2-19.6-16.5-31.5c-1.8-5-2.4-10.8-3.6-16.1c-1.9-8.8-2.9-17.7-2.8-27.2c0-5.8,0.1-12.3,0.8-17.9
		c0.7-6.2,1.1-11.8,2.1-17.4c-5.4,7.3-10.1,14.1-11.2,16.9c-0.8,2.1-3.9,4.8-5.7,7.6c-1.7,2.6-3.4,5.1-3.4,5.1s-12.4,14.1-15.6,17.8
		c-3.2,3.7-5.9,7-7.4,10.1c-1.5,3.1-7.7,12.7-7.7,12.7l-3.4,4.9c5.2-0.3,13.2-0.4,13.2-0.4l10.1-1c1.1,0,4.5-0.2,5.6,0
		c6.8,0.8,9.3,0.2,13.6,5c2.5,2.7,5,5.4,6.2,8.9c0.9,2.8,1,6.2,1,9.3l0.4,8.6l0,6.1c3.8,0.2,5.7,1.2,8.4,4.3c2.6,3,3.7,6.9,3.7,11.1
		c0,5.3-0.9,10.9-5.6,13c-3.5,1.6-6.6,2.9-10.7,2.9c-4.3,0-8.2-0.5-11.2-3.2c-0.7-0.6-1.3-1.1-1.8-1.7c-3.5,1.5-6.9,2.2-9.9,2.2
		c-10.4-0.2-18.2-0.4-18.2-0.4l-22.7,0.3c0,0-28.4,1.1-35.6,1c-7.2-0.1-10.6-0.2-10.6-0.2l-18.5-0.3l-6-0.2c-4.4,0-9.7,0.8-13.4-1.1
		c-2.3-1.2-3.9-1.9-5.8-3.7c-5.5-5-7.8-12.1-7.8-20.1l0.1-18.9l0.8-23l-1.2-32c0,0,1.2-17.3,1.3-24.8c0-7.6-0.8-11.4-0.8-17.3
		c0-6.5-0.4-16.2-0.8-24.8c-0.3-6.5-0.6-16.6-0.7-20.9c-3.5,3.4-7.8,7.8-8.9,9.7c-2,3.3-7.1,9.9-10.1,14.2c-3,4.3-6.8,10.9-9.4,15.3
		c-1.7,3-10.6,12.5-10.6,12.5s-4.5,6.5-8.5,10.5c-4,4.1-13,18-13,18l-5.8,11.6l-6.1,10c-5.5,7-5.5,13.7-5.5,22.6l1.2,15.5l-0.3,25.1
		l0.4,13.2l-0.8,26.1l0.8,15.5l0,19.3l-0.3,5.6c-0.9,10.8,0.9,14.5,2.5,16.1c1.6,1.6,5.6,4,15.2,3.2c0,0,4.1-0.4,20.1-0.6
		c23.5-0.3,54,1.4,64.9-0.8c6.3-1.2,23.1-1.4,40.7-1.5c37.9-0.2,88.6,1.6,94.1,2.4c11.1,1.7,16.6-1.7,21.9-1.3
		c8,0.7,14.1,0.4,14.1,0.4s30.5-0.4,66.1,0.1c34.7,0.5,71.8,1.4,83-0.2c15.1-2.2,40.8-2.7,61.3-2.6c13.3,0,24.5,0.3,29.1,0.5
		c11.7,0.5,21.2,0,21.2,0c7.7,0,17.5-6.1,22.8-11.3l9.4-8.3c0,0,6-4.4,10.1-9.7c4-5.3,10.4-11.8,12.6-15c2.7-3.9,9.8-14.6,14.5-19.8
		c2.8-3.1,6.4-7.9,8.8-11.4l-23.9-1.1L744.6,583.1L744.6,583.1z"/>
	<path class="st2" d="M806.1,541.9c-1.9-0.9-3.2-2.9-3.2-5.1c0-1.4,0.5-2.8,1.4-3.8c-1.4-2.6-3.8-4.7-7.4-5.8
		c-0.7,0.3-1.4,0.4-2.2,0.4c-1.4,0-2.6-0.5-3.5-1.2c-0.1,0-0.2,0-0.3,0l-8.7-0.8l-11,0.4c-1,1-2.4,1.6-4,1.6c-1.8,0-3.4-0.9-4.5-2.2
		l-8.6-0.8l-9.7,0.6c-1,1.4-2.7,2.4-4.6,2.4c0,0,0,0-0.1,0c-1.6,0-3.1-0.7-4.1-1.8l-3.9,0.2c0,0-6.4,1.2-10.1-1.2
		c-3.7-2.3-2.1-13.6-2.1-13.6l0.9-25.2l-0.2-12.6l0.2-35.7l-0.3-12.4l1-31.9c0.3-1.2,0.2-2.5,0-3.9c-0.3-0.6-0.5-1.2-0.6-1.9
		c-1.6-4.1-5.3-8-9.4-9.9c-0.6-0.1-1.1-0.3-1.6-0.6c-1-0.3-2-0.5-3-0.5l-19.4,0.7c-0.7,0.3-1.5,0.5-2.3,0.5c-0.7,0-1.3-0.1-1.9-0.3
		l-5.1,0.2c-14.1-1.9-15,11.7-13.8,19l0,25.3l0.3,24.7l0.8,33.4l-1.1,27.3l0.7,27.4l-1.1,8l-0.6,17.7c0,7.9,7.5,15.2,15.4,15.2
		l45-0.5l15.2,0.8c0.4-0.1,0.8-0.2,1.3-0.2c0,0,0,0,0.1,0c0.7,0,1.3,0.1,1.9,0.3l14.2,0.7l8.7-0.3c0.8-0.5,1.7-0.7,2.7-0.7
		c0.8,0,1.6,0.2,2.3,0.5l9-0.4l13.2,0c2.9,0,5.5-0.9,7.7-2.3c-0.1-0.8,0-1.5-0.1-2.4c0-4.9,1.3-8.3,4.7-11.5
		c0.6-0.6,1.3-1.1,1.9-1.6L806.1,541.9L806.1,541.9z M671.3,572.5L671.3,572.5c-3.1,0-5.7-2.5-5.7-5.7c0-3.1,2.5-5.7,5.7-5.7
		c3.1,0,5.7,2.5,5.7,5.7C676.9,570,674.4,572.5,671.3,572.5L671.3,572.5z M671.2,542.6L671.2,542.6c-3.1,0-5.7-2.5-5.7-5.7
		c0-3.1,2.6-5.7,5.7-5.7c3.1,0,5.7,2.5,5.7,5.7C676.9,540.1,674.4,542.6,671.2,542.6L671.2,542.6z M671.2,512.7L671.2,512.7
		c-3.1,0-5.7-2.5-5.7-5.7c0-3.2,2.5-5.7,5.7-5.7c3.1,0,5.7,2.5,5.7,5.7C676.9,510.2,674.4,512.7,671.2,512.7L671.2,512.7z
		 M671.2,482.8L671.2,482.8c-3.1,0-5.7-2.6-5.7-5.7c0-3.2,2.5-5.7,5.7-5.7c3.2,0,5.7,2.5,5.7,5.7
		C676.9,480.3,674.3,482.8,671.2,482.8L671.2,482.8z M671.1,452.9L671.1,452.9c-3.1,0-5.7-2.6-5.7-5.7c0-3.1,2.5-5.7,5.7-5.7
		c3.1,0,5.7,2.5,5.7,5.7C676.8,450.4,674.3,452.9,671.1,452.9L671.1,452.9z M671.1,423L671.1,423c-3.1,0-5.7-2.5-5.7-5.7
		c0-3.1,2.6-5.7,5.7-5.7c3.1,0,5.7,2.5,5.7,5.7C676.8,420.4,674.2,423,671.1,423L671.1,423z M671.1,393.1L671.1,393.1
		c-3.1,0-5.7-2.5-5.7-5.7c0-3.1,2.5-5.7,5.7-5.7c3.1,0,5.7,2.5,5.7,5.7C676.8,390.5,674.2,393.1,671.1,393.1L671.1,393.1z
		 M684.8,557.7L684.8,557.7c-3.1,0-5.7-2.5-5.7-5.7c0-3.2,2.5-5.7,5.7-5.7c3.1,0,5.7,2.5,5.7,5.7C690.5,555.2,688,557.7,684.8,557.7
		L684.8,557.7z M684.8,527.8L684.8,527.8c-3.1,0-5.7-2.5-5.7-5.7c0-3.1,2.5-5.7,5.7-5.7c3.1,0,5.7,2.6,5.7,5.7
		C690.5,525.3,687.9,527.8,684.8,527.8L684.8,527.8z M684.8,497.9L684.8,497.9c-3.1,0-5.7-2.5-5.7-5.7c0-3.1,2.5-5.7,5.7-5.7
		c3.1,0,5.7,2.5,5.7,5.7C690.5,495.4,687.9,497.9,684.8,497.9L684.8,497.9z M684.7,468L684.7,468c-3.1,0-5.7-2.5-5.7-5.7
		c0-3.1,2.5-5.7,5.7-5.7c3.2,0,5.7,2.5,5.7,5.7C690.4,465.4,687.9,468,684.7,468L684.7,468z M684.7,438.1L684.7,438.1
		c-3.1,0-5.7-2.5-5.7-5.7c0-3.1,2.5-5.7,5.7-5.7c3.1,0,5.7,2.5,5.7,5.7C690.4,435.5,687.9,438.1,684.7,438.1L684.7,438.1z
		 M684.7,408.2L684.7,408.2c-3.1,0-5.7-2.5-5.7-5.7c0-3.1,2.5-5.7,5.7-5.7c3.1,0,5.7,2.5,5.7,5.7
		C690.4,405.6,687.8,408.2,684.7,408.2L684.7,408.2z M698.7,572.5L698.7,572.5c-3.2,0-5.7-2.5-5.7-5.7c0-3.1,2.5-5.7,5.7-5.7
		c3.1,0,5.7,2.5,5.7,5.7C704.4,569.9,701.9,572.5,698.7,572.5L698.7,572.5z M698.7,542.6L698.7,542.6c-3.1,0-5.7-2.5-5.7-5.7
		c0-3.1,2.5-5.7,5.7-5.7c3.1,0,5.7,2.5,5.7,5.7C704.4,540,701.8,542.6,698.7,542.6L698.7,542.6z M698.7,512.7L698.7,512.7
		c-3.1,0-5.7-2.5-5.7-5.7c0-3.1,2.5-5.7,5.7-5.7c3.1,0,5.7,2.5,5.7,5.7C704.3,510.1,701.8,512.7,698.7,512.7L698.7,512.7z
		 M698.6,482.8L698.6,482.8c-3.1,0-5.7-2.5-5.7-5.7c0-3.1,2.5-5.7,5.7-5.7c3.2,0,5.7,2.5,5.7,5.7
		C704.3,480.2,701.8,482.8,698.6,482.8L698.6,482.8z M698.6,452.9L698.6,452.9c-3.1,0-5.7-2.5-5.7-5.7c0-3.1,2.5-5.7,5.7-5.7
		c3.1,0,5.7,2.5,5.7,5.7C704.3,450.3,701.8,452.9,698.6,452.9L698.6,452.9z M698.6,423L698.6,423c-3.1,0-5.7-2.5-5.7-5.7
		c0-3.1,2.5-5.7,5.7-5.7c3.2,0,5.7,2.5,5.7,5.7C704.3,420.4,701.7,422.9,698.6,423L698.6,423z M698.6,393L698.6,393
		c-3.2,0-5.7-2.5-5.7-5.7c0-3.2,2.5-5.7,5.7-5.7c3.1,0,5.7,2.5,5.7,5.7C704.2,390.5,701.7,393.1,698.6,393L698.6,393z M712.3,557.7
		L712.3,557.7c-3.1,0-5.7-2.5-5.7-5.7c0-3.1,2.5-5.7,5.7-5.7c3.1,0,5.7,2.6,5.7,5.7C718,555.1,715.4,557.7,712.3,557.7L712.3,557.7z
		 M712.3,527.8L712.3,527.8c-3.2,0-5.7-2.6-5.7-5.7c0-3.1,2.5-5.7,5.7-5.7c3.1,0,5.7,2.5,5.7,5.7C718,525.2,715.4,527.8,712.3,527.8
		L712.3,527.8z M712.2,497.9L712.2,497.9c-3.1,0-5.7-2.5-5.7-5.7c0-3.1,2.5-5.7,5.7-5.7c3.1,0,5.7,2.5,5.7,5.7
		C717.9,495.3,715.4,497.9,712.2,497.9L712.2,497.9z M712.2,468L712.2,468c-3.1,0-5.7-2.5-5.7-5.7c0-3.1,2.5-5.7,5.7-5.7
		c3.1,0,5.7,2.5,5.7,5.7C717.9,465.4,715.4,468,712.2,468L712.2,468z M712.2,438.1L712.2,438.1c-3.1,0-5.7-2.5-5.7-5.7
		c0-3.1,2.5-5.7,5.7-5.7c3.2,0,5.7,2.5,5.7,5.7C717.9,435.5,715.3,438.1,712.2,438.1L712.2,438.1z M712.2,408.2L712.2,408.2
		c-3.1,0-5.7-2.5-5.7-5.7c0-3.1,2.5-5.7,5.7-5.7c3.1,0,5.7,2.5,5.7,5.7C717.8,405.6,715.3,408.2,712.2,408.2L712.2,408.2z
		 M726.2,572.5L726.2,572.5c-3.1,0-5.7-2.5-5.7-5.7c0-3.1,2.5-5.7,5.7-5.7c3.2,0,5.7,2.5,5.7,5.7
		C731.9,569.9,729.4,572.5,726.2,572.5L726.2,572.5z M726.2,542.6L726.2,542.6c-3.1,0-5.7-2.5-5.7-5.7c0-3.1,2.5-5.7,5.7-5.7
		c3.1,0,5.7,2.5,5.7,5.7C731.8,540,729.3,542.6,726.2,542.6L726.2,542.6z M739.8,557.7L739.8,557.7
		C739.7,557.7,739.7,557.7,739.8,557.7c-3.2,0-5.7-2.6-5.7-5.7c0-3.1,2.5-5.7,5.6-5.7c0,0,0,0,0,0c3.2,0,5.7,2.6,5.7,5.7
		C745.5,555.1,742.9,557.7,739.8,557.7L739.8,557.7z M753.7,572.5L753.7,572.5c-3.2,0-5.7-2.5-5.7-5.7c0-3.2,2.5-5.7,5.7-5.7
		c3.2,0,5.7,2.5,5.7,5.7C759.4,569.9,756.8,572.4,753.7,572.5L753.7,572.5z M753.6,542.5L753.6,542.5c-3.1,0-5.7-2.5-5.7-5.7
		c0-3.1,2.5-5.7,5.7-5.7c3.1,0,5.7,2.5,5.7,5.7C759.3,540,756.8,542.5,753.6,542.5L753.6,542.5z M767.2,557.6L767.2,557.6
		c-3.1,0-5.7-2.5-5.7-5.7c0-3.1,2.5-5.7,5.7-5.7c3.1,0,5.7,2.5,5.7,5.7C772.9,555.1,770.4,557.7,767.2,557.6L767.2,557.6z
		 M781.1,572.4L781.1,572.4c-3.1,0-5.7-2.5-5.7-5.7c0-3.1,2.6-5.7,5.7-5.7c3.1,0,5.7,2.5,5.7,5.7
		C786.8,569.9,784.3,572.4,781.1,572.4L781.1,572.4z M781.1,542.5L781.1,542.5c-3.1,0-5.7-2.5-5.7-5.7c0-3.2,2.5-5.7,5.7-5.7
		c3.2,0,5.7,2.5,5.7,5.7C786.8,540,784.3,542.5,781.1,542.5L781.1,542.5z M794.7,557.6L794.7,557.6c-3.2,0-5.7-2.5-5.7-5.7
		c0-3.1,2.5-5.7,5.7-5.7c3.1,0,5.7,2.6,5.7,5.7C800.4,555.1,797.9,557.6,794.7,557.6L794.7,557.6z"/>
	<path class="st2" d="M272.6,408.6C272.6,408.6,272.6,408.6,272.6,408.6c-1.3,0-2.5-0.4-3.4-1.2c0,0.5,0,0.9,0,1.4
		c0.1,4.6,1,11.5,1.4,18.7c0.6-0.2,1.3-0.4,2-0.4c0,0,0,0,0.1,0c3.1,0,5.7,2.5,5.7,5.7c0,3.1-2.5,5.7-5.7,5.7l0,0
		c-0.6,0-1.1-0.1-1.7-0.2c0,5.3-0.1,12.5-0.1,19.1c0.6-0.2,1.2-0.3,1.8-0.3l0.1,0c3.1,0,5.7,2.5,5.7,5.7c0,3.2-2.5,5.7-5.7,5.7l0,0
		c-0.6,0-1.2-0.1-1.7-0.3c0,1.6,0.1,3,0.1,4c0.1,2.5,0.3,8.6,0.5,14.9c0.4-0.1,0.7-0.1,1.1-0.1c0,0,0,0,0.1,0c3.1,0,5.7,2.5,5.7,5.7
		c0,3.1-2.5,5.7-5.7,5.7c0,0,0,0-0.1,0c-0.3,0-0.6,0-0.9-0.1c0.1,5.2,0.2,9,0.2,9s-0.4,4.8-0.5,9.7c0.4-0.1,0.8-0.1,1.2-0.1
		c0,0,0,0,0,0c3.1,0,5.7,2.5,5.7,5.7c0,3.1-2.5,5.7-5.7,5.7c0,0,0,0,0,0c-0.3,0-0.6,0-0.9-0.1c0.2,3.4,0.4,5.1,0.4,5.1l-0.1,4.5
		l0.4,7.3l0.1,1.7c0.1,0,0.1,0,0.2,0c0,0,0,0,0,0c3.1,0,5.7,2.6,5.7,5.7c0,3.1-2.4,5.6-5.5,5.7l0.1,2.5c0,7.9,6.5,14.3,14.4,14.3
		l17.4,0c0,0,7.9,0.5,11.9,0.8c4,0.3,11.6,0,11.6,0l9.8,0.1c0,0,20.2-0.7,30,0.1c9.7,0.9,15.4-0.3,21.8-0.7
		c6.4-0.4,10.8,0.3,10.8,0.3c1.8,0,3.4-0.4,4.9-1.1c0-0.1,0-0.2,0-0.3c0-2.6,1-6.6,2-8.8c1.4-3,3.5-5.4,6.2-7.1
		c0.1-0.6,0.1-1.2,0.2-2c-1,0.9-2.3,1.5-3.8,1.4l-0.1,0c-3.1,0-5.7-2.6-5.7-5.7c0-3.1,2.5-5.7,5.6-5.7l0.1,0c1.6,0,3,0.6,4,1.7
		c-0.3-3.4-0.7-6.7-0.7-6.7c0-3.3-1.1-6.2-2.9-8.7c-2.6-3.5-5.7-5.5-11.4-5.7c-5.7-0.2-7,0-7,0l-6.6,0c-0.9,0.5-1.9,0.8-3,0.8
		c0,0,0,0,0,0c-1,0-2-0.3-2.8-0.7c-1.9,0-4,0-5.3-0.1c-2.6-0.3-5.2,0-5.2,0s-6.6,0.5-12.5,0.7c-0.5,0.1-1,0.2-1.6,0.2
		c-0.5,0-1-0.1-1.4-0.2c-0.6,0-1.2,0-1.8,0c-6.4-0.2-10.7-0.4-10.7-0.4l-10.5-0.3c-0.9,0.6-1.9,0.9-3,0.9l-0.1,0
		c-3.1,0-5.6-2.5-5.6-5.7c0-3.1,2.5-5.7,5.6-5.7l0,0c0.4,0,0.9,0,1.2,0.1l-0.3-6l-0.7-12.7c-0.1,0-0.2,0-0.3,0c0,0,0,0,0,0
		c-3.1,0-5.7-2.5-5.7-5.7c0-3.1,2.4-5.5,5.4-5.7l0.9-18.6c-0.2,0-0.4,0-0.6,0l0,0c-3.1,0-5.6-2.6-5.7-5.7c0-3.1,2.5-5.7,5.6-5.7
		c0,0,0,0,0,0l0.6,0l-0.4-12.8l0.2-5.8c-0.2,0-0.3,0-0.4,0l0,0c-3.1,0-5.7-2.6-5.7-5.7c0-3.1,2.5-5.7,5.6-5.7c0,0,0,0,0,0
		c0.3,0,0.6,0,0.9,0.1l0.6-13.7l-0.5-5c-0.3,0-0.6,0.1-1,0.1l0,0c-3.1,0-5.6-2.6-5.7-5.7c0-3.1,2.4-5.5,5.4-5.7l0-0.2
		c0-7.9-5.6-15.3-11.5-16.8l-14.7-1.6c-0.4,0.1-0.7,0.1-1.1,0.1c-0.8,0-1.6-0.2-2.3-0.5l-0.7-0.1l-12.7,1.2c-7.9,0-15,4.6-15,12.5
		c0,0-0.1,2.8-0.1,6.5c0.9-0.7,2.1-1.1,3.3-1.1c0,0,0,0,0.1,0c3.1,0,5.7,2.5,5.7,5.7C278.3,406,275.7,408.6,272.6,408.6L272.6,408.6
		z M396.5,531.5L396.5,531.5c3.1,0,5.7,2.5,5.7,5.7c0,3.1-2.6,5.7-5.7,5.7c-3.1,0-5.7-2.5-5.7-5.7
		C390.8,534,393.4,531.5,396.5,531.5L396.5,531.5z M396.5,561.4L396.5,561.4c3.1,0,5.7,2.5,5.7,5.7c0,3.2-2.5,5.7-5.7,5.7
		c-3.1,0-5.7-2.5-5.7-5.7C390.8,564,393.4,561.4,396.5,561.4L396.5,561.4z M382.6,546.6L382.6,546.6L382.6,546.6
		c3.2,0,5.7,2.6,5.8,5.7c0,3.1-2.5,5.7-5.7,5.7c0,0,0,0-0.1,0c-3.1,0-5.6-2.6-5.6-5.7C376.9,549.2,379.5,546.7,382.6,546.6
		L382.6,546.6z M369,531.5L369,531.5c3.1,0,5.7,2.5,5.7,5.7c0,3.1-2.5,5.7-5.7,5.7c-3.1,0-5.7-2.5-5.7-5.7
		C363.3,534.1,365.9,531.5,369,531.5L369,531.5z M369.1,561.4L369.1,561.4c3.1,0,5.7,2.5,5.7,5.7c0,3.1-2.5,5.7-5.7,5.7
		c-3.1,0-5.7-2.5-5.7-5.7C363.4,564,365.9,561.4,369.1,561.4L369.1,561.4z M355.2,546.6L355.2,546.6c3.2,0,5.7,2.5,5.7,5.7
		c0,3.2-2.5,5.7-5.7,5.7c-3.1,0-5.7-2.5-5.7-5.7C349.5,549.2,352,546.7,355.2,546.6L355.2,546.6z M341.6,531.6L341.6,531.6
		c3.1,0,5.7,2.5,5.7,5.7c0,3.1-2.5,5.7-5.7,5.7c-3.1,0-5.7-2.5-5.7-5.7C335.9,534.1,338.4,531.6,341.6,531.6L341.6,531.6z
		 M341.6,561.5L341.6,561.5c3.1,0,5.7,2.5,5.7,5.7c0,3.1-2.5,5.7-5.7,5.7c-3.1,0-5.7-2.5-5.7-5.7C335.9,564,338.4,561.5,341.6,561.5
		L341.6,561.5z M327.6,546.7L327.6,546.7C327.7,546.7,327.7,546.7,327.6,546.7c3.2,0,5.7,2.5,5.8,5.7c0,3.2-2.6,5.7-5.7,5.7l-0.1,0
		c-3.1,0-5.6-2.5-5.6-5.7C322,549.3,324.5,546.7,327.6,546.7L327.6,546.7z M313.9,382L313.9,382c3.1,0,5.7,2.5,5.7,5.7
		c0,3.1-2.5,5.7-5.7,5.7c-3.1,0-5.7-2.5-5.7-5.7C308.2,384.6,310.8,382,313.9,382L313.9,382z M314,411.9L314,411.9
		c3.1,0,5.7,2.5,5.7,5.7c0,3.2-2.5,5.7-5.7,5.7c-3.1,0-5.7-2.5-5.7-5.7C308.3,414.5,310.8,412,314,411.9L314,411.9z M314,441.9
		L314,441.9c3.1,0,5.7,2.5,5.7,5.7c0,3.1-2.5,5.7-5.7,5.7c-3.1,0-5.7-2.5-5.7-5.7C308.3,444.4,310.9,441.9,314,441.9L314,441.9z
		 M314,471.8L314,471.8c3.1,0,5.7,2.5,5.7,5.7c0,3.1-2.6,5.7-5.7,5.7c-3.1,0-5.7-2.5-5.7-5.7C308.3,474.3,310.9,471.8,314,471.8
		L314,471.8z M314,501.7L314,501.7c3.2,0,5.7,2.5,5.7,5.7c0,3.1-2.5,5.7-5.7,5.7c-3.1,0-5.7-2.5-5.7-5.7
		C308.4,504.2,310.9,501.7,314,501.7L314,501.7z M314.1,531.6L314.1,531.6c3.1,0,5.7,2.5,5.7,5.7c0,3.1-2.5,5.7-5.7,5.7
		c-3.1,0-5.7-2.5-5.7-5.7C308.4,534.1,310.9,531.6,314.1,531.6L314.1,531.6z M314.1,561.5L314.1,561.5c3.1,0,5.7,2.5,5.7,5.7
		c0,3.1-2.5,5.7-5.7,5.7c-3.1,0-5.7-2.5-5.7-5.7C308.4,564,311,561.5,314.1,561.5L314.1,561.5z M300.1,397.2L300.1,397.2
		c3.1,0,5.7,2.5,5.7,5.7c0,3.1-2.5,5.7-5.7,5.7c-3.1,0-5.7-2.5-5.7-5.7C294.4,399.7,296.9,397.2,300.1,397.2L300.1,397.2z
		 M300.1,427.1L300.1,427.1c3.1,0,5.7,2.5,5.7,5.7c0,3.1-2.5,5.7-5.7,5.7c-3.1,0-5.7-2.5-5.7-5.7C294.4,429.6,297,427.1,300.1,427.1
		L300.1,427.1z M300.1,457L300.1,457c3.2,0,5.7,2.5,5.7,5.7c0,3.1-2.5,5.7-5.7,5.7c-3.1,0-5.7-2.5-5.7-5.7
		C294.4,459.5,297,457,300.1,457L300.1,457z M300.1,486.9L300.1,486.9c3.2,0,5.7,2.5,5.7,5.7c0,3.1-2.5,5.7-5.7,5.7
		c-3.2,0-5.7-2.5-5.7-5.7C294.5,489.4,297,486.9,300.1,486.9L300.1,486.9z M300.2,516.8L300.2,516.8c3.1,0,5.7,2.5,5.7,5.7
		c0,3.1-2.5,5.7-5.7,5.7c-3.1,0-5.7-2.5-5.7-5.7C294.5,519.4,297,516.8,300.2,516.8L300.2,516.8z M300.2,546.7L300.2,546.7
		c3.1,0,5.7,2.5,5.7,5.7c0,3.1-2.5,5.7-5.7,5.7c-3.2,0-5.7-2.5-5.7-5.7C294.5,549.3,297.1,546.7,300.2,546.7L300.2,546.7z
		 M286.5,382.1L286.5,382.1c3.1,0,5.7,2.5,5.7,5.7c0,3.1-2.6,5.7-5.7,5.7c-3.1,0-5.7-2.5-5.7-5.7
		C280.8,384.6,283.3,382.1,286.5,382.1L286.5,382.1z M286.5,412L286.5,412c3.1,0,5.7,2.5,5.7,5.7c0,3.1-2.5,5.7-5.7,5.7
		c-3.2,0-5.7-2.5-5.7-5.7C280.8,414.5,283.4,412,286.5,412L286.5,412z M286.5,441.9L286.5,441.9c3.1,0,5.7,2.5,5.7,5.7
		c0,3.2-2.5,5.7-5.7,5.7c-3.1,0-5.7-2.5-5.7-5.7C280.8,444.4,283.4,441.9,286.5,441.9L286.5,441.9z M286.5,471.8L286.5,471.8
		c3.1,0,5.7,2.5,5.7,5.7c0,3.1-2.5,5.7-5.7,5.7c-3.2,0-5.7-2.5-5.7-5.7C280.9,474.4,283.4,471.8,286.5,471.8L286.5,471.8z
		 M286.6,501.7L286.6,501.7c3.1,0,5.7,2.5,5.7,5.7c0,3.1-2.5,5.7-5.7,5.7c-3.1,0-5.7-2.5-5.7-5.7
		C280.9,504.3,283.4,501.7,286.6,501.7L286.6,501.7z M286.6,531.6L286.6,531.6c3.1,0,5.7,2.5,5.7,5.7c0,3.2-2.5,5.7-5.7,5.7
		c-3.2,0-5.7-2.6-5.7-5.7C280.9,534.2,283.5,531.6,286.6,531.6L286.6,531.6z M286.6,561.5L286.6,561.5c3.1,0,5.7,2.5,5.7,5.7
		c0,3.1-2.5,5.7-5.7,5.7c-3.1,0-5.7-2.5-5.7-5.7C281,564.1,283.5,561.5,286.6,561.5L286.6,561.5z"/>
	<path class="st2" d="M443.2,492.5c0,2.1-1.2,4-2.9,5c1,7.6,2.9,14.6,5.3,21.5c1.5,4.3,3,8.6,4.9,12.6c0.3-0.1,0.6-0.1,0.9-0.1
		c3.2,0,5.7,2.5,5.7,5.7c0,1.2-0.4,2.4-1.1,3.3c2.1,2.3,4.4,4.2,6.7,6.6c0.7-0.3,1.5-0.5,2.3-0.5c3.2,0,5.7,2.5,5.7,5.7
		c0,1.4-0.5,2.6-1.3,3.6c0.1,0.1,0.1,0.1,0.2,0.2c2.1,1.9,4.3,4,6.5,6c0.8-0.4,1.7-0.7,2.7-0.7c3.1,0,5.7,2.6,5.7,5.7
		c0,0.5-0.1,1.1-0.2,1.6c2.9,2.1,5.9,3.9,9.2,5.3c6.4,2.7,13.5,4.9,21,6.4c0.8-2.2,2.9-3.8,5.4-3.8c3,0,5.5,2.4,5.7,5.3
		c2.8,0.2,5.6,0.3,8.5,0.3c2.5,0,5.1,0,7.6-0.1c0.1-3.1,2.6-5.5,5.6-5.6c0,0,0,0,0,0c2.8,0,5.1,2,5.6,4.7c8.6-1.1,16.8-3.3,22.8-7.6
		c2.3-1.6,4.6-3.2,6.8-4.7c0.2-0.4,0.3-0.7,0.5-1.1c0-0.3-0.1-0.5-0.1-0.8c0-2.9,2.3-5.4,5.1-5.7c3.5-3.1,5.3-5.1,9.7-5.5
		c-0.8-1-1.3-2.2-1.3-3.6c0-3.1,2.5-5.7,5.7-5.7c2.2,0,4.1,1.3,5.1,3.1c2.2-2.7,3.4-5.6,4.7-8.6c-1-1-1.6-2.4-1.6-3.9
		c0-3.1,2.6-5.7,5.7-5.7c0.2,0,0.4,0,0.6,0c1.9-4,3.4-8.2,4.9-12.5c2.3-6.4,4-13.2,5-20.1c0.1-0.5,0.1-1,0.2-1.4
		c-1.7-1-2.9-2.8-2.9-4.9c0-2.5,1.6-4.6,3.9-5.4c0.1-2.3,0.2-4.6,0.2-7c0-3.6-0.1-7.7-0.3-12.2c-2.2-0.7-3.9-2.9-3.9-5.4
		c0-2.2,1.2-4.1,3-5c-0.5-4.8-1.3-9.6-2.4-13.9c-1.6-6.3-6.4-14.6-9.5-20c-0.1-0.2-0.2-0.3-0.3-0.5c-2.5-0.6-4.5-2.8-4.5-5.5
		c0-0.5,0.1-1,0.2-1.5c-1.9-2.9-3.9-5.8-6-8.2c-0.7,0.3-1.5,0.5-2.4,0.5c-3.2,0-5.7-2.6-5.7-5.7c0-0.7,0.1-1.3,0.3-2
		c-1.8-1.4-3.7-2.8-5.4-4.1c-1.7-1.3-3.4-2.6-5.1-3.8c-0.7-0.3-1.4-0.8-1.9-1.3c-3.1-2.1-6.4-4.1-10.2-5.8
		c-5.1-2.3-10.7-4.9-16.5-6.2c-1.9-0.4-4.3-1.3-7.2-2.1c-0.9,0.7-2.1,1.1-3.4,1.1c0,0,0,0,0,0c-2.2,0-4-1.2-5-3
		c-2.6-0.4-5.6-0.7-8.8-0.7c-2.9,0-5.7,0-8.4,0.1c-0.8,2.1-2.9,3.6-5.2,3.5c-2,0-3.7-1-4.8-2.6c-1.5,0.3-3.1,0.5-4.7,0.9
		c-5.5,1.3-11.3,3.5-18.7,8.2c-2.7,1.7-5.1,2.8-7.4,3.7c-0.5,2.6-2.8,4.5-5.6,4.6c-1.1,0-2-0.3-2.9-0.8c-1.2,0.7-2.5,1.6-3.8,2.8
		c-0.9,0.7-2.1,1.9-3.4,3.2c1.2,1.1,1.9,2.6,1.9,4.2c0,3.1-2.5,5.7-5.7,5.7c-1.6,0-3.1-0.7-4.2-1.8c-1.9,2.2-3.8,4.4-5.7,6.6
		c1.2,1.1,2,2.6,2,4.3c0,3.1-2.5,5.7-5.7,5.7c-1.1,0-2.1-0.3-2.9-0.8c-0.5,0.7-1.4,1.7-2.4,3.1c-1.1,1.8-2.1,3.7-3,5.6
		c0.1,0.5,0.2,1,0.2,1.5c0,2.1-1.1,3.9-2.8,4.9c-1.9,5.8-2.9,12.5-3.4,19.3c0.2,0,0.3,0,0.5,0c0,0,0,0,0,0c3.1,0,5.7,2.5,5.7,5.7
		c0,3.1-2.6,5.7-5.7,5.7c0,0,0,0,0,0c-0.3,0-0.6,0-0.9-0.1c-0.1,3.6-0.1,7.2-0.1,10.6c0,2.4,0.6,5.2,1.3,8
		C440.8,486.9,443.2,489.4,443.2,492.5L443.2,492.5z M616.2,441.6L616.2,441.6c3.1,0,5.7,2.5,5.7,5.7c0,3.1-2.5,5.7-5.7,5.7
		c-3.1,0-5.7-2.5-5.7-5.7C610.5,444.1,613,441.6,616.2,441.6L616.2,441.6z M616.2,471.5L616.2,471.5c3.1,0,5.7,2.5,5.7,5.7
		c0,3.2-2.6,5.7-5.7,5.7c-3.2,0-5.7-2.5-5.7-5.7C610.5,474,613.1,471.5,616.2,471.5L616.2,471.5z M616.2,501.4L616.2,501.4
		c3.1,0,5.7,2.5,5.7,5.7c0,3.2-2.5,5.7-5.7,5.7c-3.1,0-5.7-2.5-5.7-5.7C610.6,503.9,613.1,501.4,616.2,501.4L616.2,501.4z
		 M602.3,426.8L602.3,426.8c3.2,0,5.7,2.5,5.7,5.7c0,3.1-2.5,5.7-5.7,5.7c-3.1,0-5.7-2.5-5.7-5.7
		C596.6,429.4,599.2,426.8,602.3,426.8L602.3,426.8z M602.3,456.7L602.3,456.7c3.2,0,5.7,2.5,5.7,5.7c0,3.1-2.6,5.7-5.7,5.7
		c-3.1,0-5.7-2.5-5.7-5.7C596.6,459.2,599.2,456.7,602.3,456.7L602.3,456.7z M602.3,486.6L602.3,486.6c3.1,0,5.7,2.5,5.7,5.7
		c0,3.1-2.5,5.7-5.7,5.7c-3.2,0-5.7-2.6-5.7-5.7C596.7,489.2,599.2,486.6,602.3,486.6L602.3,486.6z M602.4,516.5L602.4,516.5
		c3.2,0,5.7,2.5,5.7,5.7c0,3.1-2.5,5.7-5.7,5.7c-3.1,0-5.7-2.5-5.7-5.7C596.7,519.1,599.2,516.5,602.4,516.5L602.4,516.5z
		 M588.7,411.7L588.7,411.7c3.1,0,5.7,2.5,5.7,5.7c0,3.1-2.5,5.7-5.7,5.7c-3.1,0-5.7-2.5-5.7-5.7C583,414.2,585.5,411.7,588.7,411.7
		L588.7,411.7z M588.7,441.6L588.7,441.6c3.1,0,5.7,2.5,5.7,5.7c0,3.1-2.5,5.7-5.7,5.7c-3.1,0-5.7-2.5-5.7-5.7
		C583,444.2,585.6,441.6,588.7,441.6L588.7,441.6z M588.7,471.5L588.7,471.5c3.1,0,5.7,2.5,5.7,5.7c0,3.1-2.6,5.7-5.7,5.7
		c-3.1,0-5.7-2.5-5.7-5.7C583.1,474.1,585.6,471.5,588.7,471.5L588.7,471.5z M588.8,501.4L588.8,501.4c3.1,0,5.7,2.5,5.7,5.7
		c0,3.1-2.5,5.7-5.7,5.7c-3.1,0-5.7-2.5-5.7-5.7C583.1,504,585.6,501.4,588.8,501.4L588.8,501.4z M588.8,531.3L588.8,531.3
		c3.1,0,5.7,2.5,5.7,5.7c0,3.2-2.5,5.7-5.7,5.7c-3.1,0-5.7-2.5-5.7-5.7C583.1,533.9,585.7,531.3,588.8,531.3L588.8,531.3z
		 M506.4,572.7L506.4,572.7c-3.1,0-5.7-2.6-5.7-5.7c0-3.1,2.5-5.7,5.7-5.7c3.2,0,5.7,2.6,5.7,5.7
		C512.1,570.1,509.6,572.7,506.4,572.7L506.4,572.7z M506.4,542.8L506.4,542.8c-3.1,0-5.7-2.5-5.7-5.7c0-3.1,2.5-5.7,5.7-5.7
		c3.1,0,5.7,2.5,5.7,5.7C512.1,540.2,509.5,542.8,506.4,542.8L506.4,542.8z M520,557.9L520,557.9c-3.1,0-5.7-2.5-5.7-5.7
		c0-3.2,2.5-5.7,5.7-5.7c3.1,0,5.7,2.5,5.7,5.7C525.7,555.3,523.2,557.9,520,557.9L520,557.9z M533.9,572.7L533.9,572.7
		c-3.1,0-5.7-2.5-5.7-5.7c0-3.1,2.5-5.7,5.7-5.7c3.1,0,5.7,2.5,5.7,5.7C539.6,570.1,537,572.7,533.9,572.7L533.9,572.7z
		 M533.9,542.7L533.9,542.7c-3.1,0-5.7-2.5-5.7-5.7c0-3.1,2.5-5.7,5.7-5.7c3.1,0,5.7,2.5,5.7,5.7C539.6,540.2,537,542.7,533.9,542.7
		L533.9,542.7z M547.5,557.9L547.5,557.9L547.5,557.9c-3.2,0-5.7-2.6-5.7-5.7c0-3.1,2.5-5.7,5.6-5.7c0,0,0,0,0,0
		c3.1,0,5.7,2.5,5.7,5.7C553.2,555.3,550.6,557.8,547.5,557.9L547.5,557.9z M561.4,572.6L561.4,572.6c-3.1,0-5.7-2.5-5.7-5.7
		c0-3.1,2.5-5.7,5.7-5.7c3.2,0,5.7,2.5,5.7,5.7C567.1,570.1,564.5,572.6,561.4,572.6L561.4,572.6z M561.3,542.7L561.3,542.7
		L561.3,542.7c-3.2,0-5.7-2.5-5.7-5.7c0-3.1,2.6-5.7,5.7-5.7c3.1,0,5.7,2.5,5.7,5.7C567,540.2,564.5,542.7,561.3,542.7L561.3,542.7z
		 M574.9,557.8L574.9,557.8c-3.1,0-5.7-2.5-5.7-5.7c0-3.2,2.5-5.7,5.7-5.7c3.1,0,5.7,2.5,5.7,5.7
		C580.6,555.3,578.1,557.8,574.9,557.8L574.9,557.8z M574.9,527.9L574.9,527.9c-3.1,0-5.7-2.5-5.7-5.7c0-3.1,2.5-5.7,5.7-5.7
		c3.1,0,5.7,2.5,5.7,5.7C580.6,525.4,578.1,527.9,574.9,527.9L574.9,527.9z M574.8,396.9L574.8,396.9c3.1,0,5.7,2.5,5.7,5.7
		c0,3.1-2.5,5.7-5.7,5.7l0,0c-1,0-1.9-0.3-2.7-0.7c-1.8-1-3-2.8-3-5C569.1,399.5,571.6,396.9,574.8,396.9L574.8,396.9z M574.8,426.8
		L574.8,426.8c3.1,0,5.7,2.5,5.7,5.7c0,3.1-2.5,5.7-5.7,5.7l0,0c-1,0-1.9-0.3-2.6-0.7c-1.8-1-3-2.8-3-5
		C569.1,429.4,571.7,426.8,574.8,426.8L574.8,426.8z M561.2,381.8L561.2,381.8c3.1,0,5.7,2.5,5.7,5.7c0,3.1-2.5,5.7-5.7,5.7
		c-3.2,0-5.7-2.5-5.7-5.7C555.5,384.4,558,381.8,561.2,381.8L561.2,381.8z M561.2,411.7L561.2,411.7c1,0,1.9,0.2,2.7,0.7
		c1.8,1,3,2.8,3,5c0,3.1-2.5,5.7-5.7,5.7c-1,0-1.9-0.2-2.7-0.7c-1.8-1-3-2.8-3-5C555.5,414.3,558.1,411.7,561.2,411.7L561.2,411.7z
		 M541.6,402.6L541.6,402.6c0-3.1,2.5-5.7,5.6-5.7c0,0,0,0,0,0c1,0,1.9,0.3,2.7,0.7c1.8,1,3,2.8,3,5c0,3.1-2.5,5.7-5.7,5.7
		C544.2,408.3,541.6,405.8,541.6,402.6L541.6,402.6z M533.7,381.8L533.7,381.8c3.1,0,5.7,2.5,5.7,5.7c0,3.1-2.5,5.7-5.7,5.7
		c-3.2,0-5.7-2.6-5.7-5.7C528,384.4,530.6,381.8,533.7,381.8L533.7,381.8z M528.1,417.4L528.1,417.4c0-3.1,2.5-5.7,5.7-5.7
		c3.1,0,5.7,2.5,5.7,5.7c0,3.2-2.5,5.7-5.7,5.7C530.6,423.1,528.1,420.6,528.1,417.4L528.1,417.4z M514.2,402.7L514.2,402.7
		c0-3.1,2.5-5.7,5.7-5.7c3.1,0,5.7,2.5,5.7,5.7l0,0c0,3.1-2.6,5.7-5.7,5.7C516.7,408.3,514.2,405.8,514.2,402.7L514.2,402.7z
		 M506.2,381.8L506.2,381.8c3.1,0,5.7,2.5,5.7,5.7c0,3.1-2.5,5.7-5.7,5.7c-3.1,0-5.7-2.5-5.7-5.7
		C500.5,384.4,503.1,381.9,506.2,381.8L506.2,381.8z M500.6,417.4L500.6,417.4c0-3.1,2.5-5.7,5.7-5.7c3.1,0,5.7,2.6,5.7,5.7
		c0,3.1-2.6,5.7-5.7,5.7C503.1,423.1,500.6,420.6,500.6,417.4L500.6,417.4z M492.3,397L492.3,397L492.3,397c3,0,5.4,2.2,5.7,5.1
		c0,0.2,0,0.4,0,0.6c0,3.1-2.5,5.7-5.7,5.7c0,0,0,0,0,0c-3.1,0-5.6-2.6-5.7-5.7C486.7,399.6,489.2,397,492.3,397L492.3,397z
		 M492.4,426.9L492.4,426.9L492.4,426.9c3,0,5.4,2.2,5.7,5.1c0,0.2,0,0.4,0,0.6c0,3.1-2.5,5.7-5.7,5.7l0,0c-3.1,0-5.6-2.6-5.7-5.7
		C486.7,429.5,489.2,426.9,492.4,426.9L492.4,426.9z M494.6,480L494.6,480c0-4.2-0.3-8.2-0.2-12.2c-0.6,0.2-1.3,0.4-2,0.4
		c0,0,0,0-0.1,0c-3.1,0-5.7-2.5-5.7-5.7c0-3.1,2.5-5.7,5.6-5.7l0.1,0c1.3,0,2.5,0.4,3.4,1.1c1.1-3.7,2.9-6.8,4.8-9.8
		c0-0.2,0-0.5,0-0.8c0-2.7,1.9-5,4.4-5.5c2.5-3.3,5.7-6.2,9.3-8.5c-0.1-0.2-0.1-0.5-0.1-0.7c0-3.1,2.5-5.7,5.7-5.7
		c1.5,0,2.8,0.6,3.8,1.5c3.7-1.6,7.8-2.6,11.9-1.6c3.4,0.8,5.9,1.3,7.9,1.7c1-0.9,2.4-1.5,3.8-1.5c0,0,0,0,0.1,0
		c1,0,1.9,0.3,2.7,0.7c1.4,0.8,2.5,2.1,2.8,3.7c0.2,0.1,0.4,0.2,0.7,0.3c4.3,2.4,6.7,6.3,9.2,10.3c0.4,0.1,0.8,0.3,1.2,0.5
		c1.8,1,3,2.8,3,5c0,0.3,0,0.6-0.1,0.8c1.9,2.9,3.5,5.9,4.6,9.7c0.9-0.7,2.1-1.1,3.3-1.1c3.1,0,5.7,2.5,5.7,5.7
		c0,3.1-2.5,5.7-5.7,5.7c-0.5,0-0.9-0.1-1.3-0.2c0.5,4,0.8,8.2,0.8,12.3c0,2.2-0.1,4.3-0.2,6.4c0.3,0,0.5-0.1,0.8-0.1
		c3.1,0,5.7,2.5,5.7,5.7c0,3.1-2.5,5.7-5.7,5.7c-0.8,0-1.6-0.2-2.3-0.5c-0.2,0.9-0.4,1.8-0.6,2.7c-1.5,6.1-3.9,11.7-7.2,16.6
		c-3.2,4.7-7.4,7.1-12.5,10c-5,2.8-11.1,4-18.5,4.1c-7.4,0-14-2-19-4.7c-5.1-2.8-7.9-6.2-11.1-10.9c-3.3-4.8-5.4-9-6.9-15.1l0.2,0
		c-0.3-1.1-0.5-2.2-0.7-3.3c-1,0.9-2.3,1.4-3.7,1.4c0,0,0,0,0,0c-3.1,0-5.7-2.6-5.7-5.7c0-3.1,2.5-5.7,5.7-5.7l0,0
		c0.9,0,1.7,0.2,2.5,0.6C494.7,484.8,494.6,482.4,494.6,480L494.6,480z M492.4,516.6L492.4,516.6
		C492.5,516.6,492.5,516.6,492.4,516.6c3,0,5.4,2.2,5.7,5.1c0,0.2,0,0.4,0,0.6c0,0.2,0,0.4,0,0.6c-0.3,2.9-2.7,5.1-5.7,5.1l0,0
		c-3.1,0-5.6-2.5-5.6-5.7C486.8,519.2,489.3,516.7,492.4,516.6L492.4,516.6z M492.5,546.5L492.5,546.5L492.5,546.5
		c3,0,5.4,2.2,5.7,5.1c0,0.2,0,0.4,0,0.6c0,0.2,0,0.4,0,0.6c-0.3,2.9-2.7,5.1-5.7,5.1c0,0,0,0,0,0c-3.1,0-5.7-2.6-5.7-5.7
		C486.8,549.1,489.4,546.6,492.5,546.5L492.5,546.5z M478.8,411.8L478.8,411.8c3.1,0,5.7,2.5,5.7,5.7c0,3.1-2.5,5.7-5.7,5.7
		c-3.1,0-5.7-2.5-5.7-5.7C473.1,414.3,475.7,411.8,478.8,411.8L478.8,411.8z M478.8,441.7L478.8,441.7c3.1,0,5.7,2.5,5.7,5.7
		c0,3.1-2.5,5.7-5.7,5.7c-3.1,0-5.7-2.5-5.7-5.7C473.1,444.3,475.7,441.7,478.8,441.7L478.8,441.7z M478.9,471.6L478.9,471.6
		c3.1,0,5.7,2.5,5.7,5.7c0,3.1-2.5,5.7-5.7,5.7c-3.1,0-5.7-2.5-5.7-5.7C473.2,474.2,475.7,471.6,478.9,471.6L478.9,471.6z
		 M478.9,501.5L478.9,501.5c3.1,0,5.7,2.5,5.7,5.7c0,3.2-2.5,5.7-5.7,5.7c-3.1,0-5.7-2.5-5.7-5.7
		C473.2,504.1,475.7,501.5,478.9,501.5L478.9,501.5z M478.9,531.4L478.9,531.4c3.1,0,5.7,2.5,5.7,5.7c0,3.1-2.5,5.7-5.7,5.7
		c-3.1,0-5.7-2.5-5.7-5.7C473.2,534,475.8,531.4,478.9,531.4L478.9,531.4z M464.9,426.9L464.9,426.9c3.1,0,5.7,2.5,5.7,5.7
		c0,3.1-2.5,5.7-5.7,5.7c-3.1,0-5.7-2.5-5.7-5.7C459.2,429.5,461.8,426.9,464.9,426.9L464.9,426.9z M465,456.8L465,456.8
		c3.1,0,5.7,2.5,5.7,5.7c0,3.1-2.6,5.7-5.7,5.7c-3.1,0-5.7-2.5-5.7-5.7C459.3,459.4,461.8,456.8,465,456.8L465,456.8z M465,486.7
		L465,486.7c3.1,0,5.7,2.5,5.7,5.7c0,3.1-2.5,5.7-5.7,5.7c-3.1,0-5.7-2.5-5.7-5.7C459.3,489.3,461.8,486.7,465,486.7L465,486.7z
		 M465,516.7L465,516.7c3.1,0,5.7,2.5,5.7,5.7c0,3.1-2.5,5.7-5.7,5.7c-3.1,0-5.7-2.5-5.7-5.7C459.3,519.2,461.9,516.7,465,516.7
		L465,516.7z M451.4,441.7L451.4,441.7c3.1,0,5.7,2.5,5.7,5.7c0,3.1-2.5,5.7-5.7,5.7c-3.1,0-5.7-2.5-5.7-5.7
		C445.7,444.3,448.2,441.7,451.4,441.7L451.4,441.7z M451.4,471.6L451.4,471.6c3.1,0,5.7,2.5,5.7,5.7c0,3.1-2.6,5.7-5.7,5.7
		c-3.1,0-5.7-2.6-5.7-5.7C445.7,474.2,448.2,471.6,451.4,471.6L451.4,471.6z M451.4,501.5L451.4,501.5c3.1,0,5.7,2.5,5.7,5.7
		c0,3.1-2.5,5.7-5.7,5.7c-3.1,0-5.7-2.5-5.7-5.7C445.7,504.1,448.3,501.6,451.4,501.5L451.4,501.5z"/>
	<path class="st3" d="M794.7,546.2c-3.2,0-5.7,2.6-5.7,5.7c0,3.2,2.5,5.7,5.7,5.7c3.2,0,5.7-2.6,5.7-5.7
		C800.4,548.8,797.8,546.2,794.7,546.2L794.7,546.2z"/>
	<path class="st3" d="M781.1,531.1c-3.1,0-5.7,2.5-5.7,5.7c0,3.1,2.5,5.7,5.7,5.7c3.1,0,5.7-2.6,5.7-5.7
		C786.8,533.7,784.3,531.1,781.1,531.1L781.1,531.1z"/>
	<path class="st3" d="M781.1,561.1c-3.1,0-5.7,2.5-5.7,5.7c0,3.1,2.6,5.7,5.7,5.7c3.2,0,5.7-2.6,5.7-5.7
		C786.8,563.6,784.3,561.1,781.1,561.1L781.1,561.1z"/>
	<path class="st3" d="M767.2,546.3c-3.2,0-5.7,2.5-5.7,5.7c0,3.1,2.5,5.7,5.7,5.7c3.2,0,5.7-2.6,5.7-5.7
		C772.9,548.8,770.4,546.3,767.2,546.3L767.2,546.3z"/>
	<path class="st3" d="M753.6,531.2c-3.1,0-5.7,2.6-5.7,5.7c0,3.1,2.6,5.7,5.7,5.7c3.2,0,5.7-2.5,5.7-5.7
		C759.3,533.7,756.8,531.2,753.6,531.2L753.6,531.2z"/>
	<path class="st3" d="M753.7,561.1c-3.1,0-5.7,2.5-5.7,5.7c0,3.2,2.5,5.7,5.7,5.7c3.1,0,5.7-2.6,5.7-5.7
		C759.4,563.6,756.8,561.1,753.7,561.1L753.7,561.1z"/>
	<path class="st3" d="M739.8,546.3C739.7,546.3,739.7,546.3,739.8,546.3c-3.2,0-5.7,2.6-5.7,5.7c0,3.1,2.5,5.6,5.6,5.7c0,0,0,0,0,0
		c3.2,0,5.7-2.6,5.7-5.7C745.5,548.8,742.9,546.3,739.8,546.3L739.8,546.3z"/>
	<path class="st3" d="M712.1,396.8c-3.1,0-5.7,2.6-5.7,5.7c0,3.1,2.5,5.7,5.7,5.7c3.2,0,5.7-2.6,5.7-5.7
		C717.8,399.3,715.3,396.8,712.1,396.8L712.1,396.8z"/>
	<path class="st3" d="M712.2,426.7c-3.1,0-5.7,2.6-5.7,5.7c0,3.1,2.6,5.7,5.7,5.7c3.1,0,5.7-2.5,5.7-5.7
		C717.9,429.2,715.3,426.7,712.2,426.7L712.2,426.7z"/>
	<path class="st3" d="M712.2,456.6c-3.2,0-5.7,2.5-5.7,5.7c0,3.1,2.6,5.7,5.7,5.7c3.2,0,5.7-2.6,5.7-5.7
		C717.9,459.1,715.3,456.6,712.2,456.6L712.2,456.6z"/>
	<path class="st3" d="M712.2,486.5c-3.1,0-5.7,2.6-5.7,5.7c0,3.2,2.6,5.7,5.7,5.7c3.2,0,5.7-2.5,5.7-5.7
		C717.9,489.1,715.4,486.5,712.2,486.5L712.2,486.5z"/>
	<path class="st3" d="M726.2,531.2c-3.2,0-5.7,2.6-5.7,5.7c0,3.1,2.6,5.7,5.7,5.7c3.2,0,5.7-2.6,5.7-5.7
		C731.8,533.7,729.3,531.2,726.2,531.2L726.2,531.2z"/>
	<path class="st3" d="M712.3,516.4c-3.2,0-5.7,2.6-5.7,5.7c0,3.1,2.5,5.7,5.7,5.7c3.1,0,5.7-2.6,5.7-5.7
		C718,518.9,715.4,516.4,712.3,516.4L712.3,516.4z"/>
	<path class="st3" d="M726.2,561.1c-3.1,0-5.7,2.6-5.7,5.7c0,3.2,2.5,5.7,5.7,5.7c3.2,0,5.7-2.6,5.7-5.7
		C731.9,563.6,729.3,561.1,726.2,561.1L726.2,561.1z"/>
	<path class="st3" d="M712.3,546.3c-3.1,0-5.7,2.6-5.7,5.7c0,3.2,2.5,5.7,5.7,5.7c3.1,0,5.7-2.6,5.7-5.7
		C718,548.9,715.4,546.3,712.3,546.3L712.3,546.3z"/>
	<path class="st3" d="M698.5,381.7c-3.1,0-5.7,2.5-5.7,5.7c0,3.1,2.5,5.7,5.7,5.7c3.1,0,5.7-2.5,5.7-5.7
		C704.2,384.2,701.7,381.7,698.5,381.7L698.5,381.7z"/>
	<path class="st3" d="M698.6,411.6c-3.1,0-5.7,2.5-5.7,5.7c0,3.1,2.6,5.7,5.7,5.7c3.1,0,5.7-2.5,5.7-5.7
		C704.3,414.1,701.7,411.6,698.6,411.6L698.6,411.6z"/>
	<path class="st3" d="M698.6,441.5c-3.1,0-5.7,2.6-5.7,5.7c0,3.1,2.5,5.7,5.7,5.7c3.2,0,5.7-2.6,5.7-5.7
		C704.3,444,701.7,441.5,698.6,441.5L698.6,441.5z"/>
	<path class="st3" d="M684.7,426.7c-3.1,0-5.7,2.6-5.7,5.7c0,3.1,2.6,5.7,5.7,5.7c3.2,0,5.7-2.6,5.7-5.7
		C690.4,429.3,687.8,426.7,684.7,426.7L684.7,426.7z"/>
	<path class="st3" d="M698.6,471.4c-3.1,0-5.7,2.6-5.7,5.7c0,3.1,2.6,5.7,5.7,5.7c3.1,0,5.7-2.6,5.7-5.7
		C704.3,473.9,701.8,471.4,698.6,471.4L698.6,471.4z"/>
	<path class="st3" d="M684.7,456.6c-3.1,0-5.7,2.5-5.7,5.7c0,3.1,2.6,5.7,5.7,5.7c3.1,0,5.7-2.6,5.7-5.7
		C690.4,459.2,687.9,456.6,684.7,456.6L684.7,456.6z"/>
	<path class="st3" d="M698.7,501.3c-3.2,0-5.7,2.6-5.7,5.7c0,3.1,2.5,5.7,5.7,5.7c3.2,0,5.7-2.6,5.7-5.7
		C704.3,503.8,701.8,501.3,698.7,501.3L698.7,501.3z"/>
	<path class="st3" d="M684.8,486.5c-3.1,0-5.7,2.6-5.7,5.7c0,3.1,2.6,5.7,5.7,5.7c3.1,0,5.7-2.6,5.7-5.7
		C690.5,489.1,687.9,486.5,684.8,486.5L684.8,486.5z"/>
	<path class="st3" d="M698.7,531.2c-3.2,0-5.7,2.6-5.7,5.7c0,3.1,2.6,5.7,5.7,5.7c3.2,0,5.7-2.6,5.7-5.7
		C704.4,533.8,701.8,531.2,698.7,531.2L698.7,531.2z"/>
	<path class="st3" d="M684.8,516.4c-3.1,0-5.7,2.6-5.7,5.7c0,3.1,2.6,5.7,5.7,5.7c3.1,0,5.7-2.6,5.7-5.7
		C690.5,519,687.9,516.4,684.8,516.4L684.8,516.4z"/>
	<path class="st3" d="M698.7,561.1c-3.2,0-5.7,2.6-5.7,5.7c0,3.1,2.5,5.7,5.7,5.7c3.1,0,5.7-2.6,5.7-5.7
		C704.4,563.7,701.9,561.1,698.7,561.1L698.7,561.1z"/>
	<path class="st3" d="M671.1,381.7c-3.1,0-5.7,2.6-5.7,5.7c0,3.2,2.5,5.7,5.7,5.7c3.1,0,5.7-2.5,5.7-5.7
		C676.8,384.2,674.2,381.7,671.1,381.7L671.1,381.7z"/>
	<path class="st3" d="M684.7,396.8c-3.1,0-5.7,2.6-5.7,5.7c0,3.1,2.6,5.7,5.7,5.7c3.1,0,5.7-2.5,5.7-5.7
		C690.4,399.3,687.8,396.8,684.7,396.8L684.7,396.8z"/>
	<path class="st3" d="M671.1,411.6c-3.1,0-5.7,2.6-5.7,5.7c0,3.1,2.6,5.7,5.7,5.7c3.1,0,5.7-2.5,5.7-5.7
		C676.8,414.2,674.2,411.6,671.1,411.6L671.1,411.6z"/>
	<path class="st3" d="M671.1,441.5c-3.1,0-5.7,2.6-5.7,5.7c0,3.1,2.6,5.7,5.7,5.7c3.1,0,5.7-2.6,5.7-5.7
		C676.8,444.1,674.3,441.5,671.1,441.5L671.1,441.5z"/>
	<path class="st3" d="M671.1,471.4c-3.1,0-5.7,2.5-5.7,5.7c0,3.1,2.6,5.7,5.7,5.7c3.1,0,5.7-2.6,5.7-5.7
		C676.8,474,674.3,471.4,671.1,471.4L671.1,471.4z"/>
	<path class="st3" d="M671.2,501.3c-3.2,0-5.7,2.5-5.7,5.7c0,3.2,2.6,5.7,5.7,5.7c3.2,0,5.7-2.5,5.7-5.7
		C676.9,503.9,674.3,501.3,671.2,501.3L671.2,501.3z"/>
	<path class="st3" d="M671.2,531.2c-3.2,0-5.7,2.5-5.7,5.7c0,3.1,2.6,5.7,5.7,5.7c3.1,0,5.7-2.5,5.7-5.7
		C676.9,533.8,674.4,531.2,671.2,531.2L671.2,531.2z"/>
	<path class="st3" d="M684.8,546.3c-3.2,0-5.7,2.5-5.7,5.7c0,3.1,2.5,5.7,5.7,5.7c3.1,0,5.7-2.6,5.7-5.7
		C690.5,548.9,688,546.3,684.8,546.3L684.8,546.3z"/>
	<path class="st3" d="M671.2,561.2c-3.1,0-5.7,2.6-5.7,5.7c0,3.2,2.6,5.7,5.7,5.7c3.1,0,5.7-2.6,5.7-5.7
		C676.9,563.7,674.4,561.1,671.2,561.2L671.2,561.2z"/>
	<path class="st3" d="M396.5,542.9c3.1,0,5.7-2.5,5.7-5.7c0-3.1-2.6-5.7-5.7-5.7c-3.1,0-5.7,2.5-5.7,5.7
		C390.8,540.3,393.4,542.9,396.5,542.9L396.5,542.9z"/>
	<path class="st3" d="M396.5,572.8c3.2,0,5.7-2.6,5.7-5.7c0-3.1-2.6-5.7-5.7-5.7c-3.2,0-5.7,2.6-5.7,5.7
		C390.9,570.2,393.4,572.8,396.5,572.8L396.5,572.8z"/>
	<path class="st3" d="M382.6,558C382.6,558,382.6,558,382.6,558c3.2,0,5.7-2.6,5.7-5.7c0-3.1-2.5-5.7-5.7-5.7l0,0
		c-3.1,0-5.6,2.6-5.6,5.7C377,555.5,379.5,558,382.6,558L382.6,558z"/>
	<path class="st3" d="M369,542.9c3.1,0,5.7-2.5,5.7-5.7c0-3.1-2.5-5.7-5.7-5.7c-3.1,0-5.7,2.6-5.7,5.7
		C363.3,540.4,365.9,542.9,369,542.9L369,542.9z"/>
	<path class="st3" d="M369.1,572.8c3.1,0,5.7-2.6,5.7-5.7c0-3.1-2.5-5.7-5.7-5.7c-3.1,0-5.7,2.5-5.7,5.7
		C363.4,570.3,365.9,572.8,369.1,572.8L369.1,572.8z"/>
	<path class="st3" d="M355.2,558c3.1,0,5.7-2.6,5.7-5.7c0-3.1-2.5-5.7-5.7-5.7c-3.1,0-5.7,2.6-5.7,5.7
		C349.5,555.5,352,558,355.2,558L355.2,558z"/>
	<path class="st3" d="M341.6,542.9c3.1,0,5.7-2.6,5.7-5.7c0-3.1-2.5-5.7-5.7-5.7c-3.2,0-5.7,2.5-5.7,5.7
		C335.9,540.4,338.4,542.9,341.6,542.9L341.6,542.9z"/>
	<path class="st3" d="M341.6,572.8c3.1,0,5.7-2.5,5.7-5.7c0-3.1-2.5-5.7-5.7-5.7c-3.1,0-5.7,2.6-5.7,5.7
		C335.9,570.3,338.5,572.8,341.6,572.8L341.6,572.8z"/>
	<path class="st3" d="M327.7,558.1L327.7,558.1c3.2,0,5.7-2.5,5.7-5.7c0-3.1-2.6-5.7-5.7-5.7c0,0,0,0-0.1,0c-3.1,0-5.6,2.6-5.6,5.7
		C322,555.5,324.5,558,327.7,558.1L327.7,558.1z"/>
	<path class="st3" d="M313.9,393.4c3.1,0,5.7-2.6,5.7-5.7c0-3.1-2.6-5.7-5.7-5.7c-3.1,0-5.7,2.6-5.7,5.7
		C308.3,390.9,310.8,393.4,313.9,393.4L313.9,393.4z"/>
	<path class="st3" d="M314,423.3c3.2,0,5.7-2.6,5.7-5.7c0-3.1-2.5-5.7-5.7-5.7c-3.1,0-5.7,2.6-5.7,5.7
		C308.3,420.8,310.8,423.3,314,423.3L314,423.3z"/>
	<path class="st3" d="M300.1,408.6c3.2,0,5.7-2.6,5.7-5.7c0-3.1-2.6-5.7-5.7-5.7c-3.1,0-5.7,2.6-5.7,5.7
		C294.4,406,296.9,408.6,300.1,408.6L300.1,408.6z"/>
	<path class="st3" d="M314,453.2c3.1,0,5.7-2.5,5.7-5.7c0-3.1-2.6-5.7-5.7-5.7c-3.1,0-5.7,2.6-5.7,5.7
		C308.3,450.7,310.9,453.2,314,453.2L314,453.2z"/>
	<path class="st3" d="M314,483.1c3.1,0,5.7-2.6,5.7-5.7c0-3.1-2.6-5.7-5.7-5.7c-3.1,0-5.7,2.6-5.7,5.7
		C308.3,480.6,310.9,483.1,314,483.1L314,483.1z"/>
	<path class="st3" d="M300.1,468.4c3.2,0,5.7-2.6,5.7-5.7c0-3.2-2.5-5.7-5.7-5.7c-3.1,0-5.7,2.5-5.7,5.7
		C294.5,465.8,297,468.4,300.1,468.4L300.1,468.4z"/>
	<path class="st3" d="M314.1,513c3.1,0,5.7-2.5,5.7-5.7c0-3.2-2.6-5.7-5.7-5.7c-3.1,0-5.7,2.6-5.7,5.7
		C308.4,510.5,310.9,513,314.1,513L314.1,513z"/>
	<path class="st3" d="M300.2,498.3c3.1,0,5.7-2.6,5.7-5.7c0-3.1-2.6-5.7-5.7-5.7c-3.1,0-5.7,2.6-5.7,5.7
		C294.5,495.7,297,498.3,300.2,498.3L300.2,498.3z"/>
	<path class="st3" d="M314.1,542.9c3.1,0,5.7-2.5,5.7-5.7c0-3.1-2.5-5.7-5.7-5.7c-3.2,0-5.7,2.6-5.7,5.7
		C308.4,540.4,311,543,314.1,542.9L314.1,542.9z"/>
	<path class="st3" d="M314.1,572.9c3.1,0,5.7-2.6,5.7-5.7c0-3.1-2.6-5.7-5.7-5.7c-3.1,0-5.7,2.6-5.7,5.7
		C308.4,570.3,311,572.9,314.1,572.9L314.1,572.9z"/>
	<path class="st3" d="M300.2,558.1c3.1,0,5.7-2.6,5.7-5.7c0-3.1-2.6-5.7-5.7-5.7c-3.1,0-5.7,2.5-5.7,5.7
		C294.5,555.5,297.1,558.1,300.2,558.1L300.2,558.1z"/>
	<path class="st3" d="M286.5,393.4c3.1,0,5.7-2.6,5.7-5.7c0-3.1-2.6-5.7-5.7-5.7c-3.1,0-5.7,2.5-5.7,5.7
		C280.8,390.9,283.3,393.4,286.5,393.4L286.5,393.4z"/>
	<path class="st3" d="M286.5,423.4c3.1,0,5.7-2.6,5.7-5.7c0-3.1-2.5-5.7-5.7-5.7c-3.1,0-5.7,2.6-5.7,5.7
		C280.8,420.8,283.4,423.4,286.5,423.4L286.5,423.4z"/>
	<path class="st3" d="M300.1,438.5c3.1,0,5.7-2.6,5.7-5.7c0-3.1-2.5-5.7-5.7-5.7c-3.1,0-5.7,2.6-5.7,5.7
		C294.4,435.9,297,438.5,300.1,438.5L300.1,438.5z"/>
	<path class="st3" d="M286.5,453.3c3.1,0,5.7-2.6,5.7-5.7c0-3.1-2.6-5.7-5.7-5.7c-3.1,0-5.7,2.5-5.7,5.7
		C280.8,450.7,283.4,453.3,286.5,453.3L286.5,453.3z"/>
	<path class="st3" d="M286.6,483.2c3.1,0,5.7-2.6,5.7-5.7c0-3.2-2.6-5.7-5.7-5.7c-3.1,0-5.7,2.6-5.7,5.7
		C280.9,480.6,283.4,483.2,286.6,483.2L286.6,483.2z"/>
	<path class="st3" d="M286.6,513.1c3.1,0,5.7-2.6,5.7-5.7c0-3.1-2.6-5.7-5.7-5.7c-3.1,0-5.7,2.6-5.7,5.7
		C280.9,510.5,283.5,513.1,286.6,513.1L286.6,513.1z"/>
	<path class="st3" d="M300.2,528.2c3.2,0,5.7-2.5,5.7-5.7c0-3.2-2.6-5.7-5.7-5.7c-3.1,0-5.7,2.6-5.7,5.7
		C294.5,525.6,297.1,528.2,300.2,528.2L300.2,528.2z"/>
	<path class="st3" d="M286.6,543c3.1,0,5.7-2.6,5.7-5.7c0-3.1-2.5-5.7-5.7-5.7c-3.1,0-5.7,2.6-5.7,5.7
		C280.9,540.4,283.5,543,286.6,543L286.6,543z"/>
	<path class="st3" d="M286.7,572.9c3.1,0,5.7-2.5,5.7-5.7c0-3.1-2.6-5.7-5.7-5.7c-3.1,0-5.7,2.5-5.7,5.7
		C281,570.4,283.5,572.9,286.7,572.9L286.7,572.9z"/>
	<path class="st3" d="M616.2,452.9c3.1,0,5.7-2.6,5.7-5.7c0-3.2-2.6-5.7-5.7-5.7c-3.1,0-5.7,2.6-5.7,5.7
		C610.5,450.4,613,453,616.2,452.9L616.2,452.9z"/>
	<path class="st3" d="M602.3,438.2c3.1,0,5.7-2.5,5.7-5.7c0-3.1-2.5-5.7-5.7-5.7c-3.1,0-5.7,2.6-5.7,5.7
		C596.6,435.6,599.2,438.2,602.3,438.2L602.3,438.2z"/>
	<path class="st3" d="M616.2,482.9c3.1,0,5.7-2.5,5.7-5.7c0-3.1-2.5-5.7-5.7-5.7c-3.2,0-5.7,2.6-5.7,5.7
		C610.5,480.3,613.1,482.9,616.2,482.9L616.2,482.9z"/>
	<path class="st3" d="M602.3,468.1c3.1,0,5.7-2.6,5.7-5.7c0-3.1-2.5-5.7-5.7-5.7c-3.1,0-5.7,2.5-5.7,5.7
		C596.6,465.5,599.2,468.1,602.3,468.1L602.3,468.1z"/>
	<path class="st3" d="M616.2,512.7c3.2,0,5.7-2.5,5.7-5.7c0-3.1-2.6-5.7-5.7-5.7c-3.1,0-5.7,2.6-5.7,5.7
		C610.6,510.2,613.1,512.7,616.2,512.7L616.2,512.7z"/>
	<path class="st3" d="M602.4,498c3.1,0,5.7-2.6,5.7-5.7c0-3.1-2.5-5.7-5.7-5.7c-3.1,0-5.7,2.5-5.7,5.7
		C596.7,495.4,599.2,498,602.4,498L602.4,498z"/>
	<path class="st3" d="M602.4,527.9c3.1,0,5.7-2.6,5.7-5.7c0-3.1-2.5-5.7-5.7-5.7c-3.1,0-5.7,2.6-5.7,5.7
		C596.7,525.4,599.2,527.9,602.4,527.9L602.4,527.9z"/>
	<path class="st3" d="M588.7,423.1c3.1,0,5.7-2.6,5.7-5.7c0-3.1-2.6-5.7-5.7-5.7c-3.1,0-5.7,2.5-5.7,5.7
		C583,420.5,585.5,423.1,588.7,423.1L588.7,423.1z"/>
	<path class="st3" d="M572.1,407.6c0.8,0.4,1.7,0.7,2.7,0.7l0,0c3.1,0,5.7-2.6,5.7-5.7c0-3.1-2.5-5.7-5.7-5.7
		c-3.1,0-5.7,2.5-5.7,5.7C569.1,404.8,570.3,406.6,572.1,407.6L572.1,407.6z"/>
	<path class="st3" d="M588.7,453c3.1,0,5.7-2.6,5.7-5.7c0-3.1-2.6-5.7-5.7-5.7c-3.1,0-5.7,2.6-5.7,5.7
		C583,450.4,585.6,453,588.7,453L588.7,453z"/>
	<path class="st3" d="M572.1,437.5c0.8,0.4,1.7,0.7,2.6,0.7l0.1,0c3.1,0,5.7-2.6,5.7-5.7c0-3.1-2.6-5.7-5.7-5.7
		c-3.1,0-5.7,2.5-5.7,5.7C569.1,434.7,570.3,436.6,572.1,437.5L572.1,437.5z"/>
	<path class="st3" d="M588.7,482.9c3.1,0,5.7-2.6,5.7-5.7c0-3.1-2.6-5.7-5.7-5.7c-3.1,0-5.7,2.6-5.7,5.7
		C583.1,480.3,585.6,482.9,588.7,482.9L588.7,482.9z"/>
	<path class="st3" d="M588.8,512.8c3.1,0,5.7-2.6,5.7-5.7c0-3.1-2.5-5.7-5.7-5.7c-3.2,0-5.7,2.6-5.7,5.7
		C583.1,510.3,585.6,512.8,588.8,512.8L588.8,512.8z"/>
	<path class="st3" d="M588.8,542.7c3.2,0,5.7-2.5,5.7-5.7c0-3.1-2.6-5.7-5.7-5.7c-3.1,0-5.7,2.6-5.7,5.7
		C583.1,540.2,585.7,542.7,588.8,542.7L588.8,542.7z"/>
	<path class="st3" d="M574.9,516.6c-3.1,0-5.7,2.5-5.7,5.7c0,3.2,2.5,5.7,5.7,5.7c3.1,0,5.7-2.5,5.7-5.7
		C580.6,519.1,578,516.5,574.9,516.6L574.9,516.6z"/>
	<path class="st3" d="M574.9,546.4c-3.2,0-5.7,2.6-5.7,5.7c0,3.1,2.5,5.7,5.7,5.7c3.1,0,5.7-2.6,5.7-5.7
		C580.6,549,578.1,546.4,574.9,546.4L574.9,546.4z"/>
	<path class="st3" d="M561.2,393.2c3.1,0,5.7-2.6,5.7-5.7c0-3.1-2.6-5.7-5.7-5.7c-3.1,0-5.7,2.5-5.7,5.7
		C555.5,390.6,558,393.2,561.2,393.2L561.2,393.2z"/>
	<path class="st3" d="M547.3,408.3c3.2,0,5.7-2.6,5.7-5.7c0-2.2-1.2-4-3-5c-0.8-0.4-1.7-0.7-2.7-0.7c0,0,0,0,0,0
		c-3.1,0-5.6,2.6-5.6,5.7C541.6,405.8,544.2,408.3,547.3,408.3L547.3,408.3z"/>
	<path class="st3" d="M561.3,561.3c-3.1,0-5.7,2.6-5.7,5.7c0,3.1,2.6,5.7,5.7,5.7c3.1,0,5.7-2.6,5.7-5.7
		C567,563.8,564.5,561.3,561.3,561.3L561.3,561.3z"/>
	<path class="st3" d="M547.5,546.5C547.4,546.5,547.4,546.5,547.5,546.5c-3.2,0-5.7,2.6-5.7,5.7c0,3.1,2.5,5.7,5.6,5.7l0,0
		c3.1,0,5.7-2.6,5.7-5.7C553.2,549,550.6,546.5,547.5,546.5L547.5,546.5z"/>
	<path class="st3" d="M533.7,393.2c3.1,0,5.7-2.6,5.7-5.7c0-3.1-2.6-5.7-5.7-5.7c-3.2,0-5.7,2.5-5.7,5.7
		C528,390.7,530.6,393.2,533.7,393.2L533.7,393.2z"/>
	<path class="st3" d="M533.9,561.3c-3.1,0-5.7,2.6-5.7,5.7c0,3.1,2.6,5.7,5.7,5.7c3.1,0,5.7-2.6,5.7-5.7
		C539.6,563.8,537,561.3,533.9,561.3L533.9,561.3z"/>
	<path class="st3" d="M506.3,393.2c3.1,0,5.7-2.6,5.7-5.7c0-3.2-2.6-5.7-5.7-5.7c-3.2,0-5.7,2.6-5.7,5.7
		C500.6,390.7,503.1,393.2,506.3,393.2L506.3,393.2z"/>
	<path class="st3" d="M520,546.5c-3.1,0-5.7,2.5-5.7,5.7c0,3.1,2.6,5.7,5.7,5.7c3.2,0,5.7-2.6,5.7-5.7
		C525.7,549,523.1,546.5,520,546.5L520,546.5z"/>
	<path class="st3" d="M506.4,561.3c-3.1,0-5.7,2.6-5.7,5.7c0,3.1,2.5,5.7,5.7,5.7c3.2,0,5.7-2.6,5.7-5.7
		C512.1,563.8,509.6,561.3,506.4,561.3L506.4,561.3z"/>
	<path class="st3" d="M492.5,557.9C492.5,557.9,492.5,557.9,492.5,557.9c3,0,5.4-2.2,5.7-5.1c0-0.2,0-0.4,0-0.6c0-0.2,0-0.4,0-0.6
		c-0.3-2.9-2.7-5.1-5.7-5.1l0,0c-3.1,0-5.6,2.6-5.6,5.7C486.8,555.3,489.4,557.9,492.5,557.9L492.5,557.9z"/>
	<path class="st3" d="M492.3,408.4C492.4,408.4,492.4,408.4,492.3,408.4c3.2,0,5.7-2.6,5.7-5.7c0-0.2,0-0.4,0-0.6
		c-0.3-2.9-2.7-5.1-5.7-5.1l-0.1,0c-3.1,0-5.6,2.6-5.6,5.7C486.7,405.8,489.2,408.3,492.3,408.4L492.3,408.4z"/>
	<path class="st3" d="M478.8,423.2c3.2,0,5.7-2.6,5.7-5.7c0-3.1-2.5-5.7-5.7-5.7c-3.1,0-5.7,2.6-5.7,5.7
		C473.1,420.6,475.7,423.2,478.8,423.2L478.8,423.2z"/>
	<path class="st3" d="M492.4,438.3L492.4,438.3c3.2,0,5.7-2.5,5.7-5.7c0-0.2,0-0.4,0-0.6c-0.3-2.9-2.7-5.1-5.7-5.1l-0.1,0
		c-3.1,0-5.6,2.6-5.6,5.7C486.7,435.7,489.2,438.3,492.4,438.3L492.4,438.3z"/>
	<path class="st3" d="M478.8,453.1c3.1,0,5.7-2.6,5.7-5.7c0-3.1-2.5-5.7-5.7-5.7c-3.1,0-5.7,2.6-5.7,5.7
		C473.1,450.5,475.7,453.1,478.8,453.1L478.8,453.1z"/>
	<path class="st3" d="M478.9,483c3.1,0,5.7-2.6,5.7-5.7c0-3.1-2.5-5.7-5.7-5.7c-3.1,0-5.7,2.6-5.7,5.7
		C473.2,480.4,475.7,483,478.9,483L478.9,483z"/>
	<path class="st3" d="M478.9,512.9c3.1,0,5.7-2.5,5.7-5.7c0-3.1-2.6-5.7-5.7-5.7c-3.1,0-5.7,2.6-5.7,5.7
		C473.2,510.4,475.8,512.9,478.9,512.9L478.9,512.9z"/>
	<path class="st3" d="M492.5,528L492.5,528c3,0,5.4-2.2,5.7-5.1c0-0.2,0-0.4,0-0.6c0-0.2,0-0.4,0-0.6c-0.3-2.9-2.7-5.1-5.7-5.1
		c0,0,0,0,0,0c-3.1,0-5.6,2.6-5.6,5.7C486.8,525.4,489.3,528,492.5,528L492.5,528z"/>
	<path class="st3" d="M478.9,542.8c3.1,0,5.7-2.6,5.7-5.7c0-3.2-2.5-5.7-5.7-5.7c-3.1,0-5.7,2.6-5.7,5.7
		C473.2,540.3,475.8,542.8,478.9,542.8L478.9,542.8z"/>
	<path class="st3" d="M464.9,438.3c3.1,0,5.7-2.6,5.7-5.7c0-3.2-2.6-5.7-5.7-5.7c-3.1,0-5.7,2.6-5.7,5.7
		C459.3,435.8,461.8,438.3,464.9,438.3L464.9,438.3z"/>
	<path class="st3" d="M451.4,453.1c3.2,0,5.7-2.6,5.7-5.7c0-3.1-2.6-5.7-5.7-5.7c-3.2,0-5.7,2.6-5.7,5.7
		C445.7,450.6,448.2,453.1,451.4,453.1L451.4,453.1z"/>
	<path class="st3" d="M465,468.2c3.1,0,5.7-2.5,5.7-5.7c0-3.2-2.5-5.7-5.7-5.7c-3.1,0-5.7,2.5-5.7,5.7
		C459.3,465.7,461.8,468.2,465,468.2L465,468.2z"/>
	<path class="st3" d="M451.4,483c3.1,0,5.7-2.6,5.7-5.7c0-3.2-2.6-5.7-5.7-5.7c-3.1,0-5.7,2.6-5.7,5.7
		C445.7,480.5,448.3,483,451.4,483L451.4,483z"/>
	<path class="st3" d="M465,498.1c3.1,0,5.7-2.6,5.7-5.7c0-3.2-2.6-5.7-5.7-5.7c-3.1,0-5.7,2.6-5.7,5.7
		C459.3,495.6,461.9,498.1,465,498.1L465,498.1z"/>
	<path class="st3" d="M451.4,512.9c3.1,0,5.7-2.5,5.7-5.7c0-3.1-2.5-5.7-5.7-5.7c-3.1,0-5.7,2.6-5.7,5.7
		C445.7,510.4,448.3,512.9,451.4,512.9L451.4,512.9z"/>
	<path class="st3" d="M465,528c3.2,0,5.7-2.6,5.7-5.7c0-3.1-2.6-5.7-5.7-5.7c-3.2,0-5.7,2.6-5.7,5.7C459.3,525.5,461.9,528,465,528
		L465,528z"/>
	<path class="st3" d="M558.5,422.4c0.8,0.4,1.7,0.7,2.7,0.7c3.1,0,5.7-2.6,5.7-5.7c0-2.1-1.2-4-3-5c-0.8-0.4-1.7-0.7-2.7-0.7
		c-3.1,0-5.7,2.5-5.7,5.7C555.5,419.6,556.7,421.5,558.5,422.4L558.5,422.4z"/>
	<path class="st3" d="M561.3,531.4c-3.1,0-5.7,2.5-5.7,5.7c0,3.2,2.5,5.7,5.7,5.7l0,0c3.1,0,5.7-2.6,5.7-5.7
		C567,533.9,564.5,531.3,561.3,531.4L561.3,531.4z"/>
	<path class="st3" d="M533.7,423.1c3.2,0,5.7-2.6,5.7-5.7c0-3.1-2.5-5.7-5.7-5.7c-3.1,0-5.7,2.5-5.7,5.7
		C528.1,420.6,530.6,423.1,533.7,423.1L533.7,423.1z"/>
	<path class="st3" d="M533.9,531.4c-3.1,0-5.7,2.5-5.7,5.7c0,3.1,2.6,5.7,5.7,5.7c3.1,0,5.7-2.6,5.7-5.7
		C539.5,533.9,537,531.4,533.9,531.4L533.9,531.4z"/>
	<path class="st3" d="M519.9,408.3c3.1,0,5.7-2.6,5.7-5.7v0c0-3.1-2.5-5.7-5.7-5.7c-3.1,0-5.7,2.5-5.7,5.7
		C514.2,405.8,516.7,408.4,519.9,408.3L519.9,408.3z"/>
	<path class="st3" d="M506.3,423.1c3.1,0,5.7-2.6,5.7-5.7c0-3.1-2.6-5.7-5.7-5.7c-3.1,0-5.7,2.6-5.7,5.7
		C500.6,420.6,503.1,423.1,506.3,423.1L506.3,423.1z"/>
	<path class="st3" d="M506.4,531.4c-3.1,0-5.7,2.5-5.7,5.7c0,3.1,2.5,5.7,5.7,5.7c3.1,0,5.7-2.6,5.7-5.7
		C512.1,533.9,509.5,531.4,506.4,531.4L506.4,531.4z"/>
	<path class="st3" d="M492.4,486.7c-3.1,0-5.6,2.6-5.7,5.7c0,3.1,2.5,5.7,5.7,5.7c0,0,0,0,0,0c1.4,0,2.7-0.5,3.7-1.4
		c0.2,1.1,0.4,2.2,0.7,3.3l-0.2,0c1.5,6.1,3.6,10.3,6.9,15.1c3.2,4.7,6,8.1,11.1,10.9c5,2.7,11.6,4.7,19,4.7
		c7.5,0,13.5-1.3,18.5-4.1c5.1-2.8,9.3-5.3,12.5-10c3.3-4.9,5.7-10.5,7.2-16.6c0.2-0.9,0.4-1.8,0.6-2.7c0.7,0.3,1.5,0.5,2.3,0.5
		c3.2,0,5.7-2.5,5.7-5.7c0-3.1-2.6-5.7-5.7-5.7c-0.3,0-0.5,0-0.8,0.1c0.2-2.1,0.2-4.3,0.2-6.4c0-4.2-0.3-8.3-0.8-12.3
		c0.4,0.1,0.9,0.2,1.3,0.2c3.1,0,5.7-2.6,5.7-5.7c0-3.2-2.6-5.7-5.7-5.7c-1.3,0-2.4,0.4-3.3,1.1c-1.1-3.8-2.7-6.8-4.6-9.7
		c0-0.3,0.1-0.6,0.1-0.8c0-2.1-1.2-4-3-5c-0.4-0.2-0.8-0.4-1.2-0.5c-2.6-4-4.9-7.9-9.2-10.3c-0.2-0.1-0.4-0.2-0.7-0.3
		c-0.4-1.6-1.4-2.9-2.8-3.7c-0.8-0.4-1.7-0.7-2.7-0.7c0,0,0,0-0.1,0c-1.5,0-2.8,0.6-3.8,1.5c-2-0.4-4.5-0.9-7.9-1.7
		c-4.1-0.9-8.2,0.1-11.9,1.6c-1-0.9-2.3-1.5-3.8-1.5c-3.1,0-5.7,2.6-5.7,5.7c0,0.2,0,0.5,0.1,0.7c-3.6,2.3-6.7,5.2-9.3,8.5
		c-2.5,0.6-4.4,2.9-4.4,5.5c0,0.3,0,0.5,0.1,0.8c-1.9,3-3.7,6.1-4.8,9.8c-1-0.7-2.1-1.1-3.4-1.1l-0.1,0c-3.1,0-5.6,2.6-5.6,5.7
		c0,3.1,2.5,5.7,5.7,5.7c0,0,0,0,0.1,0c0.7,0,1.4-0.1,2-0.4c-0.1,4,0.2,8,0.2,12.2c0,2.4,0.1,4.9,0.3,7.3
		C494.2,486.9,493.4,486.7,492.4,486.7L492.4,486.7L492.4,486.7z M505,479.2L505,479.2c0-6.1,0.6-13.3,1.9-19
		c1.1-4.9,4.2-7.9,6.6-11.5c2-3,4.6-4.9,7.8-6.7c2.9-1.6,6.6-3.8,11.7-3.8c5.1,0,13-0.6,15.9,1.1c3.3,1.8,6.1,4.9,8.1,7.9
		c2.4,3.6,5.1,8.8,6.2,13.6c1.4,5.7,1.5,16,1.5,22.1c0,5.7-2.4,12.9-3.7,18.2c-1.1,4.6-2.8,6.9-5.2,10.5c-2,3-6.4,4.2-9.7,6
		c-2.9,1.6-7.4,1.2-12.5,1.2c-5.1,0-9.3-0.8-12.3-2.5c-3.3-1.8-7.3-3.5-9.3-6.5c-2.4-3.6-4.4-5.1-5.5-9.7l-1.2-3.2l-0.5-3.4
		C503.6,488.3,505,484.9,505,479.2L505,479.2z"/>
	<path class="st2" d="M820,565.7c-1.7-0.8-3.3-1.9-5.2-1.9c-2.4,0-3.9,1.7-5.8,2.7c-1.7,1-3,3.4-3,5.5c0,2.6,1.4,6.4,3.5,7.6
		c2.6,1.5,3.8,1.7,5.7,1.7c1.8,0,3.8-1.2,5.4-1.7c2.8-1,3-5.3,3-7.9C822.7,569.3,822.9,567.1,820,565.7L820,565.7z"/>
	<path class="st3" d="M827.6,560.7c-3-3.5-7-4.6-11.9-4.6l1-6.1l-1.1-12c0-4.4,0.1-8.2-1.7-11.8c-2.5-4.9-3.9-4.3-8.7-7
		c-4-2.3-8.2-2.8-13.1-2.8c0,0-5.2-0.7-12.1-0.5c-6.9,0.2-15.8,0.2-21.2,0.6c-5.4,0.4-7.7,1.4-14,1.5c-6.3,0.1-15.8-1.5-15.8-1.5
		l-0.1-20.6l-0.6-20.8l0.5-23.6l-1.1-18.5l2.8-28l0-9.6c1.1-15.8-10.2-26.5-25.4-26.4l-11.4-0.9l-11.9-0.3c-2.4,0-10.7-0.1-12.9,0
		c-7.7,0.5-12.3,6-14.7,13.2c0,0,0,0,0,0l-7.5,18.4c0,0-5.9,10.5-7.6,13c-1.8,2.5-3.1,4.8-5.3,7.2c-1,1.1-3.1,3.9-5.2,6.7
		c-4.4-7.7-9.9-13.7-16.4-20.9c-3.3-3.7-6.8-9.8-10.6-12.9c-7.1-5.9-13.7-11.9-22.4-15.8c-8-3.6-15.8-6.5-25.6-7.4
		c-6.2-0.5-13.9-3.6-20.6-3.6c-6.4,0-12.4-0.2-18.3,0.7c-9.3,1.4-17.4,3.6-25.5,7.2c-5.8,2.6-10.6,5.9-18.3,10.5
		c-6,3.5-9.6,9.1-14.2,13.8h0c0,0-0.2,0.2-0.4,0.4c-0.6,0.7-1.3,1.4-1.9,2.1c-0.7,0.8-1.5,1.7-2.2,2.5c-1.4,1.6-2.6,3-2.6,3
		l-1.6,2.5c-0.5,0.7-1,1.4-1.5,2.1c-1.5,2.2-4.8,4-6.2,6.3l-13.6,20.5c0,0-5.9,10.6-7.8,12.6c-1.9,2-11.5,13.8-11.5,13.8
		s-1,2.9-6.3,8.4c-5.3,5.6-15.7,19.4-18.3,23.9c-2.6,4.5-10,11.4-10,11.4l-12,13.7c-2.7,0.1-5.2,0.1-7.3,0c-0.6,0-3.1,0.1-3.6,0.1
		c-5.6,0-13.8-1-13.8-1l-1.9-26.8l1.7-31.8l0.1-21.1l0.3-25.6l-0.4-16.1c0-6.8-0.3-12.6-4.5-17.4c-5.1-5.9-12.6-10.2-20.9-10.2l-9-1
		l-14.1-0.7c-7.8,0-14.8,3.2-19.8,8.4l0,0c0,0,0,0,0,0l-9.5,8.9c0,0-14.5,22.4-17.7,26.5c-3.1,4.2-7.2,8.9-7.2,8.9
		s-9.1,12.7-13,15.7c-3.9,2.9-4.7,5.6-9.1,9.9c-4.5,4.3-8.2,11.3-9.9,13.5c-1.7,2.2-10.1,11.7-13.8,16.7c-3.8,5-10.4,14.6-10.4,14.6
		c-7.3,9.3-7,20-7,31.8c0,0,0.8,6,0.8,11.2c0,5.2,1.1,21.4,0.9,30.3c-0.2,9,0.4,27.3,0.7,36.5c0.3,9.2,0.7,18,0.7,18
		s-0.3,2.9,0.2,6.6c0.5,3.7,0.8,24.6,0.8,24.6c0,11.8,7.5,22.9,19.3,22.9c0,0,29.6-0.4,43.1-0.7c14.4-0.3,37.9,1.2,37.9,1.2
		l72.4-1.7l178,1c0,0,77-0.9,109.5-0.2c32.5,0.7,87.8,0.1,87.8,0.1c11.8,0,19.3-8.8,26.6-18.2l6.2-7.6c0,0,5.4-3.7,9.2-10
		c3.9-6.4,7.6-10.1,7.6-10.1s6.5-6.2,10.4-12.1c3.9-5.9,7.5-11.6,10.7-14.9c3.2-3.3,8.6-9.3,8.6-9.3l5.9-6.7
		c2.5,1.2,5.3,1.7,8.2,1.7c5.2,0,7.4-1.8,10.5-5.5c2.5-3,4.1-5.4,4.1-9.6C829.9,567.6,830.2,563.7,827.6,560.7L827.6,560.7z
		 M436.6,468.1L436.6,468.1c0.3,0,0.6,0.1,0.9,0.1c0,0,0,0,0.1,0c3.1,0,5.7-2.5,5.7-5.7c0-3.1-2.6-5.7-5.7-5.7c0,0,0,0,0,0
		c-0.1,0-0.3,0-0.5,0c0.5-6.9,1.5-13.6,3.4-19.3c1.7-1,2.8-2.8,2.8-4.9c0-0.5-0.1-1.1-0.2-1.5c0.9-2,1.9-3.8,3-5.6
		c1.1-1.4,1.9-2.4,2.4-3.1c0.9,0.5,1.8,0.8,2.9,0.8c3.2,0,5.7-2.6,5.7-5.7c0-1.7-0.8-3.3-2-4.3c1.9-2.2,3.8-4.4,5.7-6.6
		c1,1.1,2.5,1.8,4.2,1.8c3.2,0,5.7-2.5,5.7-5.7c0-1.7-0.8-3.2-1.9-4.2c1.3-1.3,2.5-2.4,3.4-3.2c1.3-1.2,2.6-2.1,3.8-2.8
		c0.8,0.5,1.8,0.8,2.9,0.8c2.7,0,5-2,5.6-4.6c2.3-0.9,4.7-1.9,7.4-3.7c7.4-4.7,13.1-7,18.7-8.2c1.6-0.4,3.1-0.7,4.7-0.9
		c1,1.6,2.8,2.6,4.8,2.6c2.4,0,4.4-1.5,5.2-3.5c2.7-0.1,5.4-0.1,8.4-0.1c3.3,0,6.2,0.3,8.8,0.7c0.9,1.8,2.8,3,5,3c0,0,0,0,0,0
		c1.3,0,2.4-0.4,3.4-1.1c2.9,0.9,5.3,1.7,7.2,2.1c5.7,1.3,11.4,3.9,16.5,6.2c3.8,1.7,7.1,3.6,10.2,5.8c0.5,0.6,1.2,1,1.9,1.3
		c1.7,1.2,3.4,2.5,5.1,3.8c1.7,1.3,3.6,2.7,5.4,4.1c-0.2,0.6-0.3,1.3-0.3,2c0,3.1,2.6,5.7,5.7,5.7c0.9,0,1.7-0.2,2.4-0.5
		c2.1,2.4,4.1,5.2,6,8.2c-0.1,0.5-0.2,0.9-0.2,1.5c0,2.7,1.9,5,4.5,5.5c0.1,0.2,0.2,0.4,0.3,0.5c3.1,5.4,7.9,13.7,9.5,20
		c1.1,4.3,1.9,9.1,2.4,13.9c-1.8,0.9-3.1,2.8-3,5c0,2.5,1.6,4.6,3.9,5.4c0.2,4.4,0.3,8.6,0.3,12.2c0,2.3-0.1,4.6-0.2,7
		c-2.3,0.8-3.9,2.9-3.9,5.4c0,2.1,1.2,4,2.9,4.9c-0.1,0.5-0.1,1-0.2,1.4c-1,7-2.7,13.7-5,20.1c-1.5,4.3-3,8.6-4.9,12.5
		c-0.2,0-0.4,0-0.6,0c-3.1,0-5.7,2.5-5.7,5.7c0,1.5,0.6,2.9,1.6,3.9c-1.3,3-2.5,5.9-4.7,8.6c-0.9-1.9-2.9-3.1-5.1-3.1
		c-3.1,0-5.7,2.6-5.7,5.7c0,1.3,0.5,2.6,1.3,3.6c-4.4,0.4-6.2,2.5-9.7,5.5c-2.9,0.3-5.1,2.7-5.1,5.7c0,0.3,0,0.6,0.1,0.8
		c-0.2,0.4-0.4,0.7-0.5,1.1c-2.3,1.5-4.5,3-6.8,4.7c-6,4.3-14.1,6.5-22.8,7.6c-0.5-2.7-2.8-4.7-5.6-4.7c0,0,0,0,0,0
		c-3.1,0-5.6,2.5-5.6,5.6c-2.6,0.1-5.1,0.1-7.6,0.1c-2.8,0-5.7-0.1-8.5-0.3c-0.2-3-2.7-5.3-5.7-5.3c-2.5,0-4.6,1.6-5.4,3.8
		c-7.5-1.4-14.7-3.6-21-6.4c-3.2-1.4-6.3-3.2-9.2-5.3c0.1-0.5,0.2-1,0.2-1.6c0-3.1-2.6-5.7-5.7-5.7c-1,0-1.9,0.2-2.7,0.7
		c-2.3-2-4.4-4-6.5-6c-0.1-0.1-0.2-0.2-0.2-0.2c0.8-1,1.3-2.2,1.3-3.6c0-3.1-2.5-5.7-5.7-5.7c-0.8,0-1.6,0.2-2.3,0.5
		c-2.3-2.4-4.6-4.3-6.7-6.6c0.7-0.9,1.1-2.1,1.1-3.3c0-3.1-2.5-5.7-5.7-5.7c-0.3,0-0.6,0-0.9,0.1c-1.9-4-3.3-8.2-4.9-12.6
		c-2.5-7-4.3-13.9-5.3-21.5c1.7-1,2.9-2.8,2.9-5c0-3.1-2.4-5.5-5.4-5.7c-0.7-2.8-1.3-5.6-1.3-8C436.5,475.3,436.5,471.7,436.6,468.1
		L436.6,468.1z M607,572.1L607,572.1c0,4.5-0.5,8.9-8.3,9.4c-4.5,0-9.7-4.6-9.7-9.1c0-2.2,2.1-6.4,3.5-7.9c1.5-1.5,3.6-2.7,5.9-2.7
		l0.2,0c1.1,0,3.2,1.1,4.2,1.5C605.7,564.6,607,568.8,607,572.1L607,572.1z M272.6,397.2L272.6,397.2
		C272.6,397.2,272.6,397.2,272.6,397.2c-1.3,0-2.5,0.4-3.4,1.1c0-3.6,0.1-6.5,0.1-6.5c0-7.9,7.1-12.5,15-12.5l12.7-1.2l0.7,0.1
		c0.7,0.3,1.5,0.5,2.3,0.5c0.4,0,0.7-0.1,1.1-0.1l14.7,1.6c5.8,1.4,11.5,8.9,11.5,16.8l0,0.2c-3,0.1-5.4,2.6-5.4,5.7
		c0,3.1,2.5,5.7,5.6,5.7l0,0c0.3,0,0.6,0,0.9-0.1l0.5,5l-0.6,13.7c-0.3,0-0.6-0.1-0.9-0.1c0,0,0,0,0,0c-3.1,0-5.6,2.5-5.6,5.7
		c0,3.1,2.5,5.7,5.7,5.7l0,0c0.2,0,0.3,0,0.4,0l-0.2,5.8l0.4,12.8l-0.6,0c0,0,0,0,0,0c-3.1,0-5.6,2.6-5.6,5.7c0,3.1,2.5,5.7,5.7,5.7
		l0,0c0.2,0,0.4,0,0.6,0l-0.9,18.6c-3,0.1-5.4,2.6-5.4,5.7c0,3.1,2.5,5.7,5.7,5.7c0,0,0,0,0,0c0.1,0,0.2,0,0.3,0l0.7,12.7l0.3,6
		c-0.4-0.1-0.8-0.2-1.2-0.1l0,0c-3.1,0-5.6,2.6-5.6,5.7c0,3.1,2.5,5.7,5.6,5.7l0.1,0c1.1,0,2.1-0.3,3-0.9l10.5,0.3
		c0,0,4.3,0.2,10.7,0.4c0.6,0,1.2,0,1.8,0c0.4,0.1,0.9,0.2,1.4,0.2c0.6,0,1.1-0.1,1.6-0.2c5.9-0.2,12.5-0.7,12.5-0.7s2.7-0.2,5.2,0
		c1.3,0.1,3.4,0.1,5.3,0.1c0.8,0.5,1.8,0.7,2.8,0.8c0,0,0,0,0,0c1.1,0,2.1-0.3,3-0.8l6.6,0c0,0,1.3-0.2,7,0
		c5.7,0.2,8.8,2.2,11.4,5.7c1.8,2.4,2.9,5.4,2.9,8.7c0,0,0.4,3.3,0.7,6.7c-1-1-2.5-1.7-4-1.7l-0.1,0c-3.1,0-5.6,2.6-5.6,5.7
		c0,3.1,2.5,5.7,5.7,5.7l0.1,0c1.4,0,2.8-0.6,3.8-1.5c-0.1,0.7-0.1,1.4-0.2,2c-2.7,1.6-4.8,4.1-6.2,7.1c-1,2.2-2,6.2-2,8.8
		c0,0.1,0,0.2,0,0.3c-1.5,0.7-3.1,1.1-4.9,1.1c0,0-4.4-0.7-10.8-0.3c-6.4,0.4-12.1,1.6-21.8,0.7c-9.7-0.9-30-0.1-30-0.1l-9.8-0.1
		c0,0-7.6,0.3-11.6,0c-4-0.3-11.9-0.8-11.9-0.8l-17.4,0c-7.9,0-14.3-6.4-14.4-14.3l-0.1-2.5c3.1-0.1,5.5-2.6,5.5-5.7
		c0-3.1-2.6-5.7-5.7-5.7c0,0,0,0,0,0c-0.1,0-0.2,0-0.2,0l-0.1-1.7l-0.4-7.3l0.1-4.5c0,0-0.1-1.7-0.4-5.1c0.3,0.1,0.6,0.1,0.9,0.1
		c0,0,0,0,0,0c3.1,0,5.7-2.6,5.7-5.7c0-3.1-2.5-5.7-5.7-5.7c0,0,0,0,0,0c-0.4,0-0.8,0.1-1.2,0.1c0.2-5,0.5-9.7,0.5-9.7
		s-0.1-3.9-0.2-9c0.3,0,0.6,0.1,0.9,0.1c0,0,0,0,0.1,0c3.1,0,5.7-2.6,5.7-5.7c0-3.1-2.5-5.7-5.7-5.7c0,0,0,0-0.1,0
		c-0.4,0-0.8,0-1.1,0.1c-0.2-6.3-0.4-12.4-0.5-14.9c-0.1-1-0.1-2.4-0.1-4c0.6,0.2,1.1,0.3,1.7,0.3l0,0c3.1,0,5.7-2.5,5.7-5.7
		c0-3.1-2.5-5.7-5.7-5.7l-0.1,0c-0.6,0-1.2,0.1-1.8,0.3c0-6.6,0.1-13.8,0.1-19.1c0.5,0.2,1.1,0.3,1.7,0.3l0,0c3.1,0,5.7-2.6,5.7-5.7
		c0-3.1-2.6-5.7-5.7-5.7c0,0,0,0-0.1,0c-0.7,0-1.3,0.1-2,0.4c-0.5-7.1-1.3-14.1-1.4-18.7c0-0.4,0-0.9,0-1.4c0.9,0.7,2.1,1.2,3.4,1.2
		c0,0,0,0,0.1,0c3.1,0,5.7-2.6,5.7-5.7C278.3,399.7,275.7,397.2,272.6,397.2L272.6,397.2z M785.8,595.5L785.8,595.5
		c-4.7,5.2-11.7,15.9-14.5,19.8c-2.2,3.2-8.6,9.6-12.6,15c-4,5.4-10.1,9.7-10.1,9.7l-9.4,8.3c-5.3,5.2-15.1,11.3-22.8,11.3
		c0,0-9.5,0.6-21.1,0c-4.6-0.2-15.7-0.5-29.1-0.5c-20.5-0.1-46.2,0.4-61.3,2.6c-11.2,1.6-48.3,0.7-83,0.2
		c-35.6-0.5-66.1-0.1-66.1-0.1s-6.1,0.3-14.1-0.4c-5.3-0.5-10.7,2.9-21.9,1.3c-5.5-0.8-56.2-2.7-94.1-2.4
		c-17.6,0.1-34.4,0.2-40.7,1.5c-10.9,2.2-41.4,0.5-64.9,0.8c-16,0.2-20.1,0.6-20.1,0.6c-9.5,0.8-13.6-1.7-15.2-3.2
		c-1.6-1.6-3.4-5.3-2.5-16.1l0.3-5.6l0-19.3l-0.8-15.5l0.8-26.1l-0.4-13.2l0.3-25.1l-1.2-15.5c0-8.9,0.1-15.6,5.5-22.6l6.1-10
		l5.8-11.5c0,0,9.1-13.9,13-18c4-4,8.5-10.5,8.5-10.5s8.9-9.5,10.6-12.5c2.6-4.4,6.4-11,9.4-15.3c3-4.3,8.2-10.9,10.1-14.2
		c1.1-1.9,5.4-6.2,8.9-9.7c0.1,4.3,0.4,14.4,0.7,20.9c0.4,8.5,0.8,18.2,0.8,24.8c0,5.9,0.8,9.7,0.8,17.3c0,7.6-1.3,24.8-1.3,24.8
		l1.2,32l-0.8,23l-0.1,18.9c0,8,2.3,15,7.8,20.1c1.9,1.7,3.4,2.5,5.8,3.7c3.7,1.9,9,1.1,13.4,1.1l6,0.2l18.5,0.3
		c0,0,3.4,0.1,10.6,0.2c7.2,0.1,35.6-1,35.6-1l22.7-0.3c0,0,7.8,0.2,18.2,0.4c2.9,0,6.4-0.7,9.9-2.2c0.6,0.6,1.2,1.1,1.8,1.7
		c3,2.7,6.9,3.2,11.2,3.2c4.1,0,7.3-1.3,10.7-2.9c4.7-2.1,5.6-7.7,5.6-13c0-4.3-1.1-8.1-3.7-11.1c-2.7-3.1-4.6-4.1-8.4-4.3l0-6.1
		l-0.4-8.6c0-3.1-0.1-6.5-1-9.3c-1.2-3.5-3.7-6.2-6.2-8.9c-4.4-4.9-6.8-4.2-13.6-5c-1.1-0.1-4.4,0-5.6,0l-10.1,1
		c0,0-8.1,0.2-13.2,0.4l3.4-4.9c0,0,6.2-9.6,7.7-12.7c1.5-3.1,4.2-6.4,7.4-10.1c3.2-3.7,15.6-17.8,15.6-17.8s1.7-2.5,3.4-5.1
		c1.8-2.8,4.9-5.5,5.7-7.6c1.1-2.8,5.8-9.6,11.2-16.9c-1,5.6-1.4,11.2-2.1,17.4c-0.7,5.6-0.8,12.1-0.8,17.9c0,9.5,1,18.4,2.8,27.2
		c1.1,5.3,1.8,11.1,3.6,16.1c4.2,11.8,9,22.2,16.5,31.5c1.1,1.4,2.3,2.8,3.6,4.2c4.7,5.2,10,9.9,15.7,14c5.8,4.1,12.1,7.6,18.8,10.5
		c7.2,3.1,14.9,6.1,23.2,6.1c7-0.1,14.2,2.5,21.7,2.5c10.2,0,19.8-0.9,28.9-3.2c5.6-1.4,11-3.2,16.1-5.5c1.9-0.9,3.8-1.8,5.6-2.8
		c0.5,0.8,1,1.6,1.7,2.3c3.1,3.6,7.7,5.4,12.8,5.4c3.7,0,6.5-0.3,9.3-2.3c2.5-1.8,4.3-3.7,5.5-5.9c1.4-2.5,1.8-5.6,1.8-8.7
		c0-4.8-1.8-9-4.9-12.1c0.5-0.6,1.1-1.1,1.6-1.7c6.4-7.1,10.5-14.4,14.8-23.1c1.9-3.9,4.1-9.4,5.6-13.6c2.6-7.4,4.1-13.1,5.3-21
		c1-6.5,0.7-13.2,0.7-20c0-7.7,1.1-14.9,0-22.1c-1.2-7.4-2.7-14.1-5.1-20.9c-0.5-1.4-1-2.7-1.6-3.9c2.4-4,6.1-10.1,7-11.4
		c1.3-2,7.4-7.2,8.3-8.4c0.4-0.6,2.4-3.5,4.5-6.5l0,7.4l1.8,31.3l0.1,49.4l1.3,23.5l-0.7,20.4l1.3,21.1c0,7.2,1.9,12.3,6.5,17.2
		c4.5,4.8,10.1,4.2,16.9,4c0.9,0,1.7,0,2.6,0l15.5,0l2.1,0l7.2,0.6L725,582l19.6,1.1l26.1,0l23.9,1.1
		C792.2,587.6,788.6,592.4,785.8,595.5L785.8,595.5z M414.2,573.6L414.2,573.6c0-1.8,1.2-4,2.2-5.4c1.5-2,5.4-3.8,5.8-4l1.1,0
		c0.7,0,1.8,0.4,2.4,0.6c2.4,0.9,5.8,2.7,4.6,7.4c0,4.5-1.6,7.7-8.1,8.1C417.7,580.4,414.8,577.5,414.2,573.6L414.2,573.6z
		 M799.4,571.7L799.4,571.7c0,0.8,0,1.6,0.1,2.4c-2.2,1.4-4.9,2.3-7.7,2.3l-13.2,0l-9,0.4c-0.7-0.3-1.5-0.5-2.3-0.5
		c-1,0-1.9,0.3-2.7,0.7l-8.7,0.3l-14.2-0.7c-0.6-0.2-1.2-0.3-1.9-0.3c0,0,0,0-0.1,0c-0.4,0-0.9,0.1-1.3,0.2l-15.2-0.8l-45,0.5
		c-7.9,0-15.3-7.3-15.4-15.2l0.6-17.7l1.1-8l-0.7-27.4l1.1-27.3l-0.8-33.4l-0.3-24.7l0-25.3c-1.2-7.3-0.3-20.9,13.8-19l5.1-0.2
		c0.6,0.2,1.2,0.3,1.9,0.3c0.8,0,1.6-0.2,2.3-0.5l19.4-0.7c1,0,2,0.2,3,0.5c0.5,0.3,1,0.5,1.6,0.6c4.1,1.8,7.8,5.8,9.4,9.9
		c0.1,0.7,0.3,1.3,0.6,1.9c0.3,1.3,0.3,2.6,0,3.9l-1,31.9l0.3,12.4l-0.2,35.7l0.2,12.6l-0.9,25.2c0,0-1.6,11.3,2.1,13.6
		c3.8,2.3,10.1,1.2,10.1,1.2l3.9-0.2c1,1.1,2.5,1.8,4.1,1.8c0,0,0,0,0.1,0c1.9,0,3.6-0.9,4.6-2.4l9.7-0.6l8.6,0.8
		c1,1.4,2.7,2.2,4.5,2.2c1.6,0,3-0.6,4-1.6l11-0.4l8.7,0.8c0.1,0,0.2,0,0.3,0c1,0.8,2.2,1.2,3.5,1.2c0.8,0,1.5-0.2,2.2-0.4
		c3.6,1.1,6,3.1,7.4,5.8c-0.9,1-1.4,2.3-1.4,3.7c0,2.3,1.3,4.2,3.2,5.1l-0.1,16.7c-0.6,0.5-1.3,1-1.9,1.6
		C800.7,563.3,799.4,566.7,799.4,571.7L799.4,571.7z M820.5,579.6L820.5,579.6c-1.6,0.5-3.6,1.7-5.4,1.7c-1.9,0-3.1-0.2-5.7-1.7
		c-2.1-1.2-3.5-5-3.5-7.6c0-2.1,1.3-4.6,3-5.5c1.8-1,3.4-2.7,5.8-2.7c2,0,3.6,1.1,5.2,1.9c2.9,1.4,2.7,3.6,3.6,6
		C823.5,574.4,823.4,578.7,820.5,579.6L820.5,579.6z"/>
	<path class="st2" d="M602.8,563.3c-1-0.4-3.1-1.5-4.2-1.5l-0.2,0c-2.3,0-4.4,1.2-5.9,2.7c-1.5,1.5-3.5,5.7-3.5,7.9
		c0,4.5,5.3,9.1,9.7,9.1c7.8-0.5,8.3-4.9,8.3-9.4C607,568.8,605.7,564.6,602.8,563.3L602.8,563.3z"/>
	<path class="st2" d="M430.3,572.3c1.1-4.7-2.3-6.5-4.6-7.4c-0.6-0.2-1.7-0.6-2.4-0.6l-1.1,0c-0.4,0.2-4.3,2-5.8,4
		c-1,1.3-2.2,3.5-2.2,5.4c0.6,3.9,3.6,6.9,8.1,6.9C428.7,580,430.3,576.8,430.3,572.3L430.3,572.3z"/>
	<path class="st2" d="M702.6,643.5c0-2.8-2.3-4.8-5.5-5c-1.8-0.1-3.6,0.5-4.7,1.6c-0.9,0.9-1.4,2.1-1.4,3.4l0,1.2
		c0,3.7,2.9,5.5,5.5,5.6c1.7,0.1,3.3-0.5,4.5-1.6c1.1-1,1.6-2.5,1.6-4.1L702.6,643.5L702.6,643.5z"/>
	<path class="st2" d="M696.2,634.3c1.8,0.1,3.6-0.6,4.8-1.7c1-1,1.5-2.2,1.5-3.6l-0.2-23.9c0-3.7-2.9-5.8-5.7-5.9
		c-1.6-0.1-3.1,0.5-4.2,1.5c-0.8,0.8-1.7,2.1-1.7,4.4l0.2,23.9C690.9,632.6,693.6,634.2,696.2,634.3L696.2,634.3z"/>
	<path class="st2" d="M282.9,620.8c-6.3-1.7-10.1-2.9-9.5-6.5c0.8-3.9,5.6-4,7.6-3.9c2.7,0.2,5.8,1.1,7.6,2.3c0.8,0.6,1.7,0.9,2.6,1
		c2,0.1,4-1.2,4.7-3.1c0.8-2.1,0.1-4.3-1.9-5.9c-3-2.3-7-3.6-11.5-3.9c-8.9-0.6-18.5,3.6-19.6,12.7c-1.2,11.7,8.4,14.3,16.1,16.5
		c5,1.4,9.3,2.6,9.7,5.7c-0.5,4.6-4.9,5.3-8.4,5.1c-4-0.3-7.8-1.7-9.7-3.1c-2.4-2-4.9-1.8-7.2,0.6l-0.1,0.2
		c-1.4,2.2-1.5,5.6,1.2,7.8c3.2,2.7,8.2,4.4,13.7,4.7c6.8,0.4,12.9-1.3,16.7-4.8c2.9-2.6,4.4-6.1,4.5-10.2
		C299.7,625.3,290.4,622.8,282.9,620.8L282.9,620.8z"/>
	<path class="st2" d="M359.9,607.7c0-3.6-2.4-5.4-4.9-5.6c-1.5-0.1-3,0.4-4.1,1.5c-1.1,1-1.7,2.5-1.7,4.1l0.1,23.4
		c0,2.5-0.8,4.6-2.5,6.2c-1.9,1.8-4.9,2.8-8,2.6c-4.6-0.3-9.3-3.1-9.3-8.7l-0.1-23.4c0-3.6-2.5-5.4-4.9-5.5c-1.5-0.1-3,0.4-4.1,1.4
		c-1.1,1-1.7,2.5-1.7,4.1l0.1,23.4c0,12.4,9.6,18.5,19,19.1c6.4,0.4,12.4-1.6,16.5-5.5c3.7-3.5,5.6-8.2,5.6-13.7L359.9,607.7
		L359.9,607.7z"/>
	<path class="st2" d="M411,631.1c6.5-3.3,8.5-10.3,7.6-15.9c-1.2-7.4-6.8-12.5-14.3-13c-0.4,0-0.8,0-1.2,0l-17.2,0.1
		c-1.3,0-2.6,0.5-3.5,1.4c-0.9,1-1.5,2.2-1.4,3.6L381,644c0,3.4,2.6,5.1,4.9,5.2c1.6,0.1,3.1-0.4,4.2-1.5c1.1-1,1.6-2.4,1.6-3.9
		l0-10.6l8.5,0l9.5,13.5c1.5,1.9,3.2,2.4,4.4,2.4c2.1,0.1,4-0.9,5-2.7c1-1.8,0.9-4-0.5-6L411,631.1L411,631.1z M408.5,618L408.5,618
		c-0.1,2.7-1.8,5.6-5.4,5.6l-11.4,0l0-11.4l11.4,0C406.9,612.2,408.6,615.2,408.5,618L408.5,618z"/>
	<path class="st2" d="M460.6,601.5c-0.4,0-0.9,0-1.3,0l-14.9,0c-3.4,0-5.5,2.9-5.5,5.6l0.1,36.4c0,3.4,2.7,5.4,5.1,5.5l0.4,0
		c1.4,0,2.8-0.5,3.7-1.5c1-1,1.5-2.4,1.5-4.1l0-7.4l9.7,0c4.6,0,8.8-1.6,11.8-4.5c3.4-3.1,5.2-7.5,5.2-12.6
		C476.3,607.6,468.4,602,460.6,601.5L460.6,601.5z M464,623.6L464,623.6c-1.3,1.3-2.9,2.1-4.7,2.1l-9.7,0l0-13.9l9.7,0
		c3.7,0,6.7,3.2,6.7,7.2C466,620.6,465.3,622.3,464,623.6L464,623.6z"/>
	<path class="st2" d="M525.3,630.8c6.5-3.4,8.5-10.3,7.6-15.9c-1.2-7.4-6.8-12.5-14.3-13c-0.4,0-0.8,0-1.2-0.1l-17.2,0.1
		c-2.8,0-4.9,2.2-4.9,5l0.1,36.7c0,3.4,2.6,5.1,4.9,5.2c1.6,0.1,3.1-0.4,4.2-1.5c1.1-1,1.6-2.4,1.6-3.9l0-10.6l8.5,0l9.5,13.5
		c1.5,1.9,3.2,2.4,4.4,2.4c2.1,0.1,4-0.9,5-2.7c1-1.8,0.9-4-0.5-6L525.3,630.8L525.3,630.8z M522.8,617.6L522.8,617.6
		c-0.1,2.7-1.8,5.6-5.4,5.6l-11.4,0l0-11.4l11.4,0C521.2,611.8,522.9,614.8,522.8,617.6L522.8,617.6z"/>
	<path class="st2" d="M559.4,601.6c-1.6-0.1-3.2,0.4-4.3,1.4c-1,0.9-1.5,2.2-1.5,3.7l0.1,36.9c0,3.3,2.6,5,4.9,5.1
		c1.6,0.1,3.2-0.4,4.3-1.5c1-0.9,1.5-2.2,1.5-3.7l-0.1-36.9C564.3,603.4,561.7,601.7,559.4,601.6L559.4,601.6z"/>
	<path class="st2" d="M605,619.7c-6.2-1.7-10-2.9-9.5-6.5c0.8-3.9,5.6-4,7.6-3.9c2.7,0.2,5.8,1.1,7.7,2.3c0.8,0.6,1.7,0.9,2.6,1
		c2,0.1,4-1.2,4.7-3.1c0.8-2.1,0.1-4.3-1.9-5.9c-3-2.3-7-3.7-11.5-3.9c-8.9-0.6-18.5,3.6-19.6,12.7c-1.2,11.7,8.4,14.3,16.1,16.5
		c5,1.4,9.3,2.6,9.7,5.7c-0.5,4.6-4.9,5.4-8.4,5.1c-4-0.2-7.8-1.7-9.7-3.1c-2.4-1.9-4.9-1.8-7.2,0.6l-0.1,0.2
		c-1.4,2.2-1.5,5.6,1.2,7.8c3.2,2.6,8.2,4.4,13.7,4.7c6.8,0.4,12.9-1.3,16.7-4.8c2.9-2.6,4.4-6.1,4.5-10.2
		C621.7,624.2,612.4,621.7,605,619.7L605,619.7z"/>
	<path class="st2" d="M670.3,637.6l-18.6,0.1l0-7.5l15.2,0c3.6,0,5.3-2.7,5.4-5.2c0.1-2.7-1.8-5.5-5.4-5.5l-15.2,0.1l0-7.5l17.5-0.1
		c3.5,0,5.4-2.6,5.5-5.2c0.1-2.6-1.8-5.4-5.5-5.4l-23.2,0.1c-1.4,0-2.7,0.5-3.6,1.5c-1,0.9-1.5,2.3-1.5,3.7l0.1,36.7
		c0,2.7,2.1,4.9,4.8,5.1c0.1,0,0.2,0,0.4,0l24.3-0.1c3.8,0,5.6-2.6,5.6-5C676.1,640.5,674.1,637.5,670.3,637.6L670.3,637.6z"/>
</g>
</svg>
