<svg width="48" height="49" viewBox="0 0 48 49" fill="none" xmlns="http://www.w3.org/2000/svg">
<g clip-path="url(#clip0_1_554)">
<path d="M48 24.375C48 11.1201 37.2548 0.375 24 0.375C10.7452 0.375 0 11.1201 0 24.375C0 36.354 8.77645 46.2829 20.25 48.0834V31.3125H14.1563V24.375H20.25V19.0875C20.25 13.0725 23.833 9.75 29.3152 9.75C31.941 9.75 34.6875 10.2187 34.6875 10.2187V16.125H31.6612C28.6798 16.125 27.75 17.975 27.75 19.8729V24.375H34.4062L33.3422 31.3125H27.75V48.0834C39.2235 46.2829 48 36.354 48 24.375Z" fill="#1877F2"/>
<path d="M33.3422 31.3125L34.4062 24.375H27.75V19.873C27.75 17.975 28.6798 16.125 31.6611 16.125H34.6875V10.2188C34.6875 10.2188 31.9409 9.75 29.3152 9.75C23.833 9.75 20.25 13.0725 20.25 19.0875V24.375H14.1562V31.3125H20.25V48.0834C21.4719 48.2752 22.7242 48.375 24 48.375C25.2757 48.375 26.5281 48.2752 27.75 48.0834V31.3125H33.3422Z" fill="white"/>
</g>
<defs>
<clipPath id="clip0_1_554">
<rect width="48" height="48" fill="white" transform="translate(0 0.375)"/>
</clipPath>
</defs>
</svg>
