<svg width="48" height="49" viewBox="0 0 48 49" fill="none" xmlns="http://www.w3.org/2000/svg">
<g clip-path="url(#clip0_1_561)">
<path d="M47.0113 13.4142C46.4578 11.3462 44.8367 9.71572 42.7807 9.15897C39.0245 8.125 23.9999 8.125 23.9999 8.125C23.9999 8.125 8.97525 8.125 5.21909 9.1192C3.20262 9.67595 1.542 11.3462 0.988464 13.4142C0 17.1921 0 25.0264 0 25.0264C0 25.0264 0 32.9005 0.988464 36.6387C1.542 38.7066 3.16308 40.3371 5.21909 40.8938C9.01479 41.9278 23.9999 41.9278 23.9999 41.9278C23.9999 41.9278 39.0245 41.9278 42.7807 40.9336C44.8367 40.3769 46.4578 38.7464 47.0113 36.6784C47.9998 32.9005 47.9998 25.0662 47.9998 25.0662C47.9998 25.0662 48.0393 17.1921 47.0113 13.4142Z" fill="#FF0000"/>
<path d="M31.71 25.0264L19.2158 17.7886V32.2641L31.71 25.0264Z" fill="white"/>
</g>
<defs>
<clipPath id="clip0_1_561">
<rect width="48" height="35" fill="white" transform="translate(0 7.375)"/>
</clipPath>
</defs>
</svg>
